{"glyphs":{"0":{"ha":638,"x_min":57,"x_max":581,"o":"m 581 729 l 581 154 q 540 41 581 82 q 406 0 500 0 l 233 0 q 98 41 139 0 q 57 154 57 82 l 57 729 q 98 842 57 801 q 233 883 139 883 l 406 883 q 540 842 500 883 q 581 729 581 801 m 382 181 l 382 703 q 374 730 382 722 q 344 738 365 738 l 293 738 q 264 730 272 738 q 256 703 256 722 l 256 181 q 264 154 256 163 q 293 146 272 146 l 344 146 q 374 154 365 146 q 382 181 382 163 z "},"1":{"ha":403,"x_min":26,"x_max":340,"o":"m 265 883 l 265 738 l 26 738 l 26 883 l 265 883 m 142 883 l 340 883 l 340 0 l 142 0 l 142 883 z "},"2":{"ha":576,"x_min":33,"x_max":539,"o":"m 232 703 l 232 586 l 33 586 l 33 729 q 74 842 33 801 q 208 883 114 883 l 358 883 q 494 842 453 883 q 536 729 536 801 l 536 618 q 517 504 536 551 q 457 406 497 457 l 279 146 l 539 146 l 539 0 l 38 0 l 38 135 l 282 463 q 328 540 317 507 q 340 619 340 574 l 340 703 q 332 730 340 722 q 303 738 324 738 l 268 738 q 240 730 249 738 q 232 703 232 722 z "},"3":{"ha":599,"x_min":36,"x_max":543,"o":"m 236 703 l 236 599 l 36 599 l 36 729 q 77 842 36 801 q 213 883 118 883 l 368 883 q 503 842 463 883 q 543 729 543 801 l 543 579 q 530 499 543 532 q 481 450 517 467 q 530 406 517 436 q 543 329 543 376 l 543 154 q 503 41 543 82 q 368 0 463 0 l 213 0 q 77 41 118 0 q 36 154 36 82 l 36 283 l 236 283 l 236 181 q 244 154 236 163 q 272 146 253 146 l 310 146 q 340 154 332 146 q 347 181 347 163 l 347 344 q 340 372 347 364 q 310 379 332 379 l 201 379 l 201 517 l 310 517 q 340 524 332 517 q 347 550 347 532 l 347 703 q 340 730 347 722 q 310 738 332 738 l 272 738 q 244 730 253 738 q 236 703 236 722 z "},"4":{"ha":629,"x_min":13,"x_max":629,"o":"m 71 165 l 71 313 l 629 313 l 629 165 l 71 165 m 13 165 l 13 338 l 314 883 l 514 883 l 107 165 l 13 165 m 353 486 l 540 486 l 540 0 l 353 0 l 353 486 z "},"5":{"ha":618,"x_min":56,"x_max":574,"o":"m 254 299 l 254 181 q 263 154 254 163 q 292 146 271 146 l 340 146 q 369 154 361 146 q 378 181 378 163 l 378 390 q 369 417 378 410 q 340 425 361 425 l 182 425 l 182 571 l 397 571 q 533 530 492 571 q 574 417 574 489 l 574 154 q 533 41 574 82 q 397 0 492 0 l 232 0 q 97 41 138 0 q 56 154 56 82 l 56 299 l 254 299 m 260 425 l 64 425 l 64 883 l 564 883 l 564 738 l 260 738 l 260 425 z "},"6":{"ha":628,"x_min":57,"x_max":579,"o":"m 385 181 l 385 346 q 377 373 385 365 q 347 381 369 381 l 199 381 l 199 521 l 403 521 q 538 480 497 521 q 579 368 579 439 l 579 154 q 538 41 579 82 q 403 0 497 0 l 311 0 l 311 146 l 347 146 q 377 154 369 146 q 385 181 385 163 m 251 703 l 251 181 q 260 154 251 163 q 288 146 268 146 l 324 146 l 324 0 l 233 0 q 98 41 139 0 q 57 154 57 82 l 57 729 q 98 842 57 801 q 233 883 139 883 l 324 883 l 324 738 l 288 738 q 260 730 268 738 q 251 703 251 722 m 375 611 l 375 703 q 367 730 375 722 q 338 738 360 738 l 304 738 l 304 883 l 393 883 q 528 842 488 883 q 569 729 569 801 l 569 611 l 375 611 z "},"7":{"ha":517,"x_min":13,"x_max":510,"o":"m 463 883 l 463 728 l 13 728 l 13 883 l 463 883 m 510 883 l 510 772 l 254 0 l 49 0 l 353 883 l 510 883 z "},"8":{"ha":635,"x_min":54,"x_max":579,"o":"m 246 349 l 246 179 q 254 152 246 160 q 283 144 263 144 l 326 144 l 326 0 l 231 0 q 95 41 136 0 q 54 154 54 82 l 54 328 q 68 404 54 374 q 115 449 82 435 q 68 497 82 464 q 54 578 54 531 l 54 729 q 95 842 54 801 q 231 883 136 883 l 324 883 l 324 739 l 283 739 q 254 731 263 739 q 246 704 246 724 l 246 544 q 254 519 246 526 q 283 511 263 511 l 322 511 l 322 383 l 283 383 q 254 376 263 383 q 246 349 246 368 m 389 544 l 389 704 q 381 731 389 724 q 351 739 372 739 l 317 739 l 317 883 l 404 883 q 539 842 499 883 q 579 729 579 801 l 579 578 q 566 497 579 531 q 518 449 553 464 q 566 404 553 435 q 579 328 579 374 l 579 154 q 539 41 579 82 q 404 0 499 0 l 317 0 l 317 144 l 351 144 q 381 152 372 144 q 389 179 389 160 l 389 349 q 381 376 389 368 q 351 383 372 383 l 311 383 l 311 511 l 351 511 q 381 519 372 511 q 389 544 389 526 z "},"9":{"ha":625,"x_min":46,"x_max":568,"o":"m 240 703 l 240 519 q 249 492 240 500 q 278 485 257 485 l 426 485 l 426 349 l 222 349 q 87 390 128 349 q 46 501 46 431 l 46 729 q 87 842 46 801 q 222 883 128 883 l 314 883 l 314 738 l 278 738 q 249 730 257 738 q 240 703 240 722 m 374 181 l 374 703 q 366 730 374 722 q 338 738 358 738 l 301 738 l 301 883 l 392 883 q 528 842 488 883 q 568 729 568 801 l 568 154 q 528 41 568 82 q 392 0 488 0 l 301 0 l 301 146 l 338 146 q 366 154 358 146 q 374 181 374 163 m 247 267 l 247 181 q 256 154 247 163 q 285 146 264 146 l 321 146 l 321 0 l 231 0 q 95 41 136 0 q 54 154 54 82 l 54 267 l 247 267 z "},"A":{"ha":671,"x_min":6,"x_max":665,"o":"m 528 304 l 528 160 l 143 160 l 143 304 l 528 304 m 665 0 l 465 0 l 333 678 l 203 0 l 6 0 l 207 883 l 460 883 l 665 0 z "},"Æ":{"ha":969,"x_min":6,"x_max":943,"o":"m 525 883 l 201 0 l 6 0 l 349 883 l 525 883 m 538 319 l 538 178 l 153 178 l 153 319 l 538 319 m 469 883 l 658 883 l 658 0 l 469 0 l 469 883 m 943 146 l 943 0 l 540 0 l 540 146 l 943 146 m 890 522 l 890 376 l 553 376 l 553 522 l 890 522 m 931 883 l 931 738 l 540 738 l 540 883 l 931 883 z "},"Á":{"ha":671,"x_min":6,"x_max":665,"o":"m 528 304 l 528 160 l 143 160 l 143 304 l 528 304 m 665 0 l 465 0 l 333 678 l 203 0 l 6 0 l 207 883 l 460 883 l 665 0 m 258 928 l 385 1126 l 585 1126 l 414 928 l 258 928 z "},"Ă":{"ha":671,"x_min":6,"x_max":665,"o":"m 528 304 l 528 160 l 143 160 l 143 304 l 528 304 m 665 0 l 465 0 l 333 678 l 203 0 l 6 0 l 207 883 l 460 883 l 665 0 m 406 1126 l 579 1126 l 579 1082 q 538 969 579 1011 q 403 928 497 928 l 322 928 l 322 1044 l 368 1044 q 397 1052 389 1044 q 406 1078 406 1060 l 406 1126 m 88 1126 l 261 1126 l 261 1078 q 269 1052 261 1060 q 299 1044 278 1044 l 346 1044 l 346 928 l 264 928 q 128 969 169 928 q 88 1082 88 1011 l 88 1126 z "},"Â":{"ha":671,"x_min":6,"x_max":665,"o":"m 528 304 l 528 160 l 143 160 l 143 304 l 528 304 m 665 0 l 465 0 l 333 678 l 203 0 l 6 0 l 207 883 l 460 883 l 665 0 m 75 928 l 240 1126 l 426 1126 l 592 928 l 407 928 l 333 1031 l 260 928 l 75 928 z "},"Ä":{"ha":671,"x_min":6,"x_max":665,"o":"m 88 929 l 88 1090 l 272 1090 l 272 929 l 88 929 m 394 929 l 394 1090 l 579 1090 l 579 929 l 394 929 m 528 304 l 528 160 l 143 160 l 143 304 l 528 304 m 665 0 l 465 0 l 333 678 l 203 0 l 6 0 l 207 883 l 460 883 l 665 0 z "},"À":{"ha":671,"x_min":6,"x_max":665,"o":"m 528 304 l 528 160 l 143 160 l 143 304 l 528 304 m 665 0 l 465 0 l 333 678 l 203 0 l 6 0 l 207 883 l 460 883 l 665 0 m 275 1126 l 401 928 l 246 928 l 75 1126 l 275 1126 z "},"Ā":{"ha":671,"x_min":6,"x_max":665,"o":"m 528 304 l 528 160 l 143 160 l 143 304 l 528 304 m 665 0 l 465 0 l 333 678 l 203 0 l 6 0 l 207 883 l 460 883 l 665 0 m 94 929 l 94 1056 l 571 1056 l 571 929 l 94 929 z "},"Ą":{"ha":671,"x_min":6,"x_max":692,"o":"m 528 304 l 528 160 l 143 160 l 143 304 l 528 304 m 665 0 l 465 0 l 333 678 l 203 0 l 6 0 l 207 883 l 460 883 l 665 0 m 396 -161 q 428 -62 396 -99 q 542 -26 460 -26 l 667 -26 l 667 -143 l 571 -143 q 544 -150 551 -143 q 536 -174 536 -157 l 536 -208 q 544 -231 536 -225 q 571 -237 551 -237 l 692 -237 l 692 -354 l 542 -354 q 428 -319 460 -354 q 396 -219 396 -283 l 396 -161 m 667 -33 l 550 -33 l 550 19 l 667 19 l 667 -33 z "},"Å":{"ha":671,"x_min":6,"x_max":665,"o":"m 528 304 l 528 160 l 143 160 l 143 304 l 528 304 m 665 0 l 465 0 l 333 678 l 203 0 l 6 0 l 207 883 l 460 883 l 665 0 m 514 1064 l 514 1042 q 486 958 514 988 q 388 928 458 928 l 279 928 q 181 958 208 928 q 153 1042 153 988 l 153 1064 q 181 1148 153 1118 q 279 1178 208 1178 l 388 1178 q 486 1148 458 1178 q 514 1064 514 1118 m 390 1044 l 390 1060 q 384 1084 390 1078 q 358 1090 378 1090 l 308 1090 q 284 1084 290 1090 q 278 1060 278 1078 l 278 1044 q 284 1022 278 1028 q 308 1015 290 1015 l 358 1015 q 384 1022 378 1015 q 390 1044 390 1028 z "},"Ã":{"ha":671,"x_min":6,"x_max":665,"o":"m 528 304 l 528 160 l 143 160 l 143 304 l 528 304 m 665 0 l 465 0 l 333 678 l 203 0 l 6 0 l 207 883 l 460 883 l 665 0 m 418 929 q 352 945 382 929 q 299 978 322 961 q 260 994 276 994 q 236 964 236 994 l 236 929 l 79 929 l 79 988 q 106 1079 79 1046 q 206 1113 133 1113 l 226 1113 q 292 1096 263 1113 q 345 1063 322 1079 q 382 1047 368 1047 q 402 1054 396 1047 q 408 1078 408 1061 l 408 1113 l 565 1113 l 565 1047 q 538 960 565 990 q 438 929 510 929 l 418 929 z "},"B":{"ha":661,"x_min":61,"x_max":606,"o":"m 61 883 l 429 883 q 565 842 525 883 q 606 729 606 801 l 606 575 q 592 495 606 529 q 543 446 579 461 q 592 402 579 432 q 606 326 606 372 l 606 154 q 565 41 606 82 q 429 0 525 0 l 61 0 l 61 883 m 410 171 l 410 342 q 401 369 410 361 q 372 376 393 376 l 258 376 l 258 136 l 372 136 q 401 144 393 136 q 410 171 410 153 m 410 547 l 410 713 q 401 740 410 732 q 372 747 393 747 l 258 747 l 258 513 l 372 513 q 401 521 393 513 q 410 547 410 529 z "},"C":{"ha":625,"x_min":54,"x_max":585,"o":"m 254 713 l 254 171 q 263 144 254 151 q 292 136 271 136 l 328 136 l 328 0 l 231 0 q 95 41 136 0 q 54 153 54 82 l 54 729 q 95 842 54 801 q 231 883 136 883 l 332 883 l 332 747 l 292 747 q 263 740 271 747 q 254 713 254 732 m 385 574 l 385 713 q 377 740 385 732 q 349 747 369 747 l 308 747 l 308 883 l 408 883 q 544 842 503 883 q 585 729 585 801 l 585 574 l 385 574 m 385 171 l 385 306 l 585 306 l 585 153 q 544 41 585 82 q 408 0 503 0 l 308 0 l 308 136 l 349 136 q 377 144 369 136 q 385 171 385 151 z "},"Ć":{"ha":625,"x_min":54,"x_max":585,"o":"m 254 713 l 254 171 q 263 144 254 151 q 292 136 271 136 l 328 136 l 328 0 l 231 0 q 95 41 136 0 q 54 153 54 82 l 54 729 q 95 842 54 801 q 231 883 136 883 l 332 883 l 332 747 l 292 747 q 263 740 271 747 q 254 713 254 732 m 385 574 l 385 713 q 377 740 385 732 q 349 747 369 747 l 308 747 l 308 883 l 408 883 q 544 842 503 883 q 585 729 585 801 l 585 574 l 385 574 m 385 171 l 385 306 l 585 306 l 585 153 q 544 41 585 82 q 408 0 503 0 l 308 0 l 308 136 l 349 136 q 377 144 369 136 q 385 171 385 151 m 239 928 l 365 1126 l 565 1126 l 394 928 l 239 928 z "},"Č":{"ha":625,"x_min":54,"x_max":585,"o":"m 254 713 l 254 171 q 263 144 254 151 q 292 136 271 136 l 328 136 l 328 0 l 231 0 q 95 41 136 0 q 54 153 54 82 l 54 729 q 95 842 54 801 q 231 883 136 883 l 332 883 l 332 747 l 292 747 q 263 740 271 747 q 254 713 254 732 m 385 574 l 385 713 q 377 740 385 732 q 349 747 369 747 l 308 747 l 308 883 l 408 883 q 544 842 503 883 q 585 729 585 801 l 585 574 l 385 574 m 385 171 l 385 306 l 585 306 l 585 153 q 544 41 585 82 q 408 0 503 0 l 308 0 l 308 136 l 349 136 q 377 144 369 136 q 385 171 385 151 m 225 928 l 60 1126 l 244 1126 l 318 1025 l 392 1126 l 576 1126 l 411 928 l 225 928 z "},"Ç":{"ha":625,"x_min":54,"x_max":585,"o":"m 254 713 l 254 171 q 263 144 254 151 q 292 136 271 136 l 328 136 l 328 0 l 231 0 q 95 41 136 0 q 54 153 54 82 l 54 729 q 95 842 54 801 q 231 883 136 883 l 332 883 l 332 747 l 292 747 q 263 740 271 747 q 254 713 254 732 m 385 574 l 385 713 q 377 740 385 732 q 349 747 369 747 l 308 747 l 308 883 l 408 883 q 544 842 503 883 q 585 729 585 801 l 585 574 l 385 574 m 385 171 l 385 306 l 585 306 l 585 153 q 544 41 585 82 q 408 0 503 0 l 308 0 l 308 136 l 349 136 q 377 144 369 136 q 385 171 385 151 m 228 -150 l 228 -65 l 410 -65 l 410 -165 q 367 -281 410 -239 q 231 -322 325 -322 l 121 -322 l 121 -187 l 189 -187 q 219 -178 210 -187 q 228 -150 228 -168 z "},"D":{"ha":674,"x_min":71,"x_max":617,"o":"m 418 529 l 418 713 q 410 740 418 732 q 381 747 401 747 l 144 747 l 144 883 l 440 883 q 576 842 535 883 q 617 729 617 801 l 617 529 l 418 529 m 418 171 l 418 551 l 617 551 l 617 154 q 576 41 617 82 q 440 0 535 0 l 144 0 l 144 136 l 381 136 q 410 144 401 136 q 418 171 418 153 m 71 883 l 271 883 l 271 0 l 71 0 l 71 883 z "},"Ď":{"ha":674,"x_min":71,"x_max":617,"o":"m 418 529 l 418 713 q 410 740 418 732 q 381 747 401 747 l 144 747 l 144 883 l 440 883 q 576 842 535 883 q 617 729 617 801 l 617 529 l 418 529 m 418 171 l 418 551 l 617 551 l 617 154 q 576 41 617 82 q 440 0 535 0 l 144 0 l 144 136 l 381 136 q 410 144 401 136 q 418 171 418 153 m 71 883 l 271 883 l 271 0 l 71 0 l 71 883 m 238 928 l 72 1126 l 257 1126 l 331 1025 l 404 1126 l 589 1126 l 424 928 l 238 928 z "},"Đ":{"ha":681,"x_min":-3,"x_max":617,"o":"m 418 529 l 418 703 q 410 730 418 722 q 381 738 401 738 l 144 738 l 144 883 l 440 883 q 576 842 535 883 q 617 729 617 801 l 617 529 l 418 529 m 418 181 l 418 551 l 617 551 l 617 154 q 576 41 617 82 q 440 0 535 0 l 144 0 l 144 146 l 381 146 q 410 154 401 146 q 418 181 418 163 m 71 883 l 271 883 l 271 0 l 71 0 l 71 883 m 357 515 l 357 379 l -3 379 l -3 515 l 357 515 z "},"E":{"ha":568,"x_min":61,"x_max":544,"o":"m 61 883 l 261 883 l 261 0 l 61 0 l 61 883 m 493 522 l 493 376 l 153 376 l 153 522 l 493 522 m 533 883 l 533 738 l 140 738 l 140 883 l 533 883 m 544 146 l 544 0 l 140 0 l 140 146 l 544 146 z "},"É":{"ha":568,"x_min":61,"x_max":544,"o":"m 61 883 l 261 883 l 261 0 l 61 0 l 61 883 m 493 522 l 493 376 l 153 376 l 153 522 l 493 522 m 533 883 l 533 738 l 140 738 l 140 883 l 533 883 m 544 146 l 544 0 l 140 0 l 140 146 l 544 146 m 218 928 l 344 1126 l 544 1126 l 374 928 l 218 928 z "},"Ě":{"ha":568,"x_min":46,"x_max":561,"o":"m 61 883 l 261 883 l 261 0 l 61 0 l 61 883 m 493 522 l 493 376 l 153 376 l 153 522 l 493 522 m 533 883 l 533 738 l 140 738 l 140 883 l 533 883 m 544 146 l 544 0 l 140 0 l 140 146 l 544 146 m 210 928 l 44 1126 l 229 1126 l 303 1025 l 376 1126 l 561 1126 l 396 928 l 210 928 z "},"Ê":{"ha":568,"x_min":43,"x_max":560,"o":"m 61 883 l 261 883 l 261 0 l 61 0 l 61 883 m 493 522 l 493 376 l 153 376 l 153 522 l 493 522 m 533 883 l 533 738 l 140 738 l 140 883 l 533 883 m 544 146 l 544 0 l 140 0 l 140 146 l 544 146 m 43 928 l 208 1126 l 394 1126 l 560 928 l 375 928 l 301 1031 l 228 928 l 43 928 z "},"Ë":{"ha":618,"x_min":53,"x_max":544,"o":"m 53 929 l 53 1090 l 238 1090 l 238 929 l 53 929 m 360 929 l 360 1090 l 544 1090 l 544 929 l 360 929 m 61 883 l 261 883 l 261 0 l 61 0 l 61 883 m 493 522 l 493 376 l 153 376 l 153 522 l 493 522 m 533 883 l 533 738 l 140 738 l 140 883 l 533 883 m 544 146 l 544 0 l 140 0 l 140 146 l 544 146 z "},"Ė":{"ha":568,"x_min":61,"x_max":544,"o":"m 61 883 l 261 883 l 261 0 l 61 0 l 61 883 m 493 522 l 493 376 l 153 376 l 153 522 l 493 522 m 533 883 l 533 738 l 140 738 l 140 883 l 533 883 m 544 146 l 544 0 l 140 0 l 140 146 l 544 146 m 210 928 l 210 1090 l 406 1090 l 406 928 l 210 928 z "},"È":{"ha":568,"x_min":51,"x_max":544,"o":"m 61 883 l 261 883 l 261 0 l 61 0 l 61 883 m 493 522 l 493 376 l 153 376 l 153 522 l 493 522 m 533 883 l 533 738 l 140 738 l 140 883 l 533 883 m 544 146 l 544 0 l 140 0 l 140 146 l 544 146 m 251 1126 l 378 928 l 222 928 l 51 1126 l 251 1126 z "},"Ē":{"ha":568,"x_min":57,"x_max":544,"o":"m 61 883 l 261 883 l 261 0 l 61 0 l 61 883 m 493 522 l 493 376 l 153 376 l 153 522 l 493 522 m 533 883 l 533 738 l 140 738 l 140 883 l 533 883 m 544 146 l 544 0 l 140 0 l 140 146 l 544 146 m 57 936 l 57 1063 l 533 1063 l 533 936 l 57 936 z "},"Ę":{"ha":568,"x_min":61,"x_max":571,"o":"m 61 883 l 261 883 l 261 0 l 61 0 l 61 883 m 493 522 l 493 376 l 153 376 l 153 522 l 493 522 m 533 883 l 533 738 l 140 738 l 140 883 l 533 883 m 544 146 l 544 0 l 140 0 l 140 146 l 544 146 m 275 -161 q 307 -62 275 -99 q 421 -26 339 -26 l 546 -26 l 546 -143 l 450 -143 q 423 -150 431 -143 q 415 -174 415 -157 l 415 -208 q 423 -231 415 -225 q 450 -237 431 -237 l 571 -237 l 571 -354 l 421 -354 q 307 -319 339 -354 q 275 -219 275 -283 l 275 -161 m 546 -33 l 429 -33 l 429 19 l 546 19 l 546 -33 z "},"Ð":{"ha":671,"x_min":-3,"x_max":617,"o":"m 418 529 l 418 713 q 410 740 418 732 q 381 747 401 747 l 144 747 l 144 883 l 440 883 q 576 842 535 883 q 617 729 617 801 l 617 529 l 418 529 m 418 171 l 418 551 l 617 551 l 617 154 q 576 41 617 82 q 440 0 535 0 l 144 0 l 144 136 l 381 136 q 410 144 401 136 q 418 171 418 153 m 71 883 l 271 883 l 271 0 l 71 0 l 71 883 m 357 515 l 357 379 l -3 379 l -3 515 l 357 515 z "},"F":{"ha":554,"x_min":61,"x_max":538,"o":"m 61 883 l 261 883 l 261 0 l 61 0 l 61 883 m 493 494 l 493 357 l 154 357 l 154 494 l 493 494 m 538 883 l 538 738 l 140 738 l 140 883 l 538 883 z "},"G":{"ha":633,"x_min":54,"x_max":585,"o":"m 254 713 l 254 171 q 263 144 254 151 q 292 136 271 136 l 325 136 l 325 0 l 231 0 q 95 41 136 0 q 54 153 54 82 l 54 729 q 95 842 54 801 q 231 883 136 883 l 332 883 l 332 747 l 292 747 q 263 740 271 747 q 254 713 254 732 m 585 475 l 585 343 l 317 343 l 317 475 l 585 475 m 386 597 l 386 713 q 378 740 386 732 q 349 747 369 747 l 308 747 l 308 883 l 410 883 q 544 842 504 883 q 585 729 585 801 l 585 597 l 386 597 m 386 171 l 386 385 l 585 385 l 585 153 q 544 41 585 82 q 410 0 504 0 l 313 0 l 313 136 l 349 136 q 378 144 369 136 q 386 171 386 151 z "},"Ğ":{"ha":633,"x_min":54,"x_max":585,"o":"m 254 713 l 254 171 q 263 144 254 151 q 292 136 271 136 l 325 136 l 325 0 l 231 0 q 95 41 136 0 q 54 153 54 82 l 54 729 q 95 842 54 801 q 231 883 136 883 l 332 883 l 332 747 l 292 747 q 263 740 271 747 q 254 713 254 732 m 585 475 l 585 343 l 317 343 l 317 475 l 585 475 m 386 597 l 386 713 q 378 740 386 732 q 349 747 369 747 l 308 747 l 308 883 l 410 883 q 544 842 504 883 q 585 729 585 801 l 585 597 l 386 597 m 386 171 l 386 385 l 585 385 l 585 153 q 544 41 585 82 q 410 0 504 0 l 313 0 l 313 136 l 349 136 q 378 144 369 136 q 386 171 386 151 m 393 1126 l 567 1126 l 567 1082 q 526 969 567 1011 q 390 928 485 928 l 310 928 l 310 1044 l 356 1044 q 385 1052 376 1044 q 393 1078 393 1060 l 393 1126 m 75 1126 l 249 1126 l 249 1078 q 257 1052 249 1060 q 286 1044 265 1044 l 333 1044 l 333 928 l 251 928 q 116 969 157 928 q 75 1082 75 1011 l 75 1126 z "},"Ģ":{"ha":633,"x_min":54,"x_max":585,"o":"m 254 713 l 254 171 q 263 144 254 151 q 292 136 271 136 l 325 136 l 325 0 l 231 0 q 95 41 136 0 q 54 153 54 82 l 54 729 q 95 842 54 801 q 231 883 136 883 l 332 883 l 332 747 l 292 747 q 263 740 271 747 q 254 713 254 732 m 585 475 l 585 343 l 317 343 l 317 475 l 585 475 m 386 597 l 386 713 q 378 740 386 732 q 349 747 369 747 l 308 747 l 308 883 l 410 883 q 544 842 504 883 q 585 729 585 801 l 585 597 l 386 597 m 386 171 l 386 385 l 585 385 l 585 153 q 544 41 585 82 q 410 0 504 0 l 313 0 l 313 136 l 349 136 q 378 144 369 136 q 386 171 386 151 m 233 -65 l 429 -65 l 429 -167 l 296 -379 l 233 -379 l 233 -65 z "},"H":{"ha":694,"x_min":61,"x_max":632,"o":"m 469 510 l 469 364 l 217 364 l 217 510 l 469 510 m 61 883 l 258 883 l 258 0 l 61 0 l 61 883 m 436 883 l 632 883 l 632 0 l 436 0 l 436 883 z "},"I":{"ha":331,"x_min":65,"x_max":264,"o":"m 65 883 l 264 883 l 264 0 l 65 0 l 65 883 z "},"Í":{"ha":331,"x_min":65,"x_max":411,"o":"m 65 883 l 264 883 l 264 0 l 65 0 l 65 883 m 85 928 l 211 1126 l 411 1126 l 240 928 l 85 928 z "},"Î":{"ha":331,"x_min":-93,"x_max":424,"o":"m 65 883 l 264 883 l 264 0 l 65 0 l 65 883 m -93 928 l 72 1126 l 258 1126 l 424 928 l 239 928 l 165 1031 l 92 928 l -93 928 z "},"Ï":{"ha":331,"x_min":-81,"x_max":411,"o":"m -81 929 l -81 1090 l 104 1090 l 104 929 l -81 929 m 226 929 l 226 1090 l 411 1090 l 411 929 l 226 929 m 65 883 l 264 883 l 264 0 l 65 0 l 65 883 z "},"İ":{"ha":331,"x_min":65,"x_max":264,"o":"m 65 883 l 264 883 l 264 0 l 65 0 l 65 883 m 68 935 l 68 1097 l 264 1097 l 264 935 l 68 935 z "},"Ì":{"ha":331,"x_min":-83,"x_max":264,"o":"m 65 883 l 264 883 l 264 0 l 65 0 l 65 883 m 115 1126 l 242 928 l 86 928 l -85 1126 l 115 1126 z "},"Ī":{"ha":331,"x_min":-72,"x_max":404,"o":"m 65 883 l 264 883 l 264 0 l 65 0 l 65 883 m -72 936 l -72 1063 l 404 1063 l 404 936 l -72 936 z "},"Į":{"ha":331,"x_min":-6,"x_max":289,"o":"m 65 883 l 264 883 l 264 0 l 65 0 l 65 883 m -6 -161 q 26 -62 -6 -99 q 140 -26 58 -26 l 265 -26 l 265 -143 l 169 -143 q 142 -150 150 -143 q 135 -174 135 -157 l 135 -208 q 142 -231 135 -225 q 169 -237 150 -237 l 290 -237 l 290 -354 l 140 -354 q 26 -319 58 -354 q -6 -219 -6 -283 l -6 -161 m 265 -33 l 149 -33 l 149 19 l 265 19 l 265 -33 z "},"J":{"ha":569,"x_min":15,"x_max":514,"o":"m 15 331 l 215 331 l 215 181 q 224 154 215 163 q 253 146 232 146 l 276 146 q 306 154 299 146 q 314 181 314 163 l 314 883 l 514 883 l 514 154 q 473 41 514 82 q 338 0 432 0 l 192 0 q 56 41 97 0 q 15 154 15 82 l 15 331 z "},"K":{"ha":660,"x_min":61,"x_max":649,"o":"m 264 447 l 471 447 l 649 0 l 435 0 l 264 447 m 471 447 l 264 447 l 435 883 l 649 883 l 471 447 m 61 883 l 260 883 l 260 0 l 61 0 l 61 883 z "},"Ķ":{"ha":660,"x_min":61,"x_max":649,"o":"m 264 447 l 471 447 l 649 0 l 435 0 l 264 447 m 471 447 l 264 447 l 435 883 l 649 883 l 471 447 m 61 883 l 260 883 l 260 0 l 61 0 l 61 883 m 226 -65 l 422 -65 l 422 -167 l 289 -379 l 226 -379 l 226 -65 z "},"L":{"ha":515,"x_min":61,"x_max":514,"o":"m 61 883 l 260 883 l 260 0 l 61 0 l 61 883 m 135 0 l 135 146 l 514 146 l 514 0 l 135 0 z "},"Ĺ":{"ha":515,"x_min":61,"x_max":514,"o":"m 61 883 l 260 883 l 260 0 l 61 0 l 61 883 m 135 0 l 135 146 l 514 146 l 514 0 l 135 0 m 88 928 l 214 1126 l 414 1126 l 243 928 l 88 928 z "},"Ļ":{"ha":515,"x_min":61,"x_max":514,"o":"m 61 883 l 260 883 l 260 0 l 61 0 l 61 883 m 135 0 l 135 146 l 514 146 l 514 0 l 135 0 m 188 -65 l 383 -65 l 383 -167 l 250 -379 l 188 -379 l 188 -65 z "},"Ł":{"ha":538,"x_min":-46,"x_max":524,"o":"m 418 639 l 418 503 l -46 282 l -46 418 l 418 639 m 71 883 l 271 883 l 271 0 l 71 0 l 71 883 m 144 0 l 144 146 l 524 146 l 524 0 l 144 0 z "},"M":{"ha":850,"x_min":61,"x_max":788,"o":"m 499 192 l 351 192 l 238 590 l 238 0 l 61 0 l 61 883 l 279 883 l 425 383 l 571 883 l 788 883 l 788 0 l 613 0 l 613 593 l 499 192 z "},"N":{"ha":675,"x_min":61,"x_max":614,"o":"m 432 883 l 614 883 l 614 0 l 436 0 l 243 528 l 243 0 l 61 0 l 61 883 l 242 883 l 432 357 l 432 883 z "},"Ń":{"ha":675,"x_min":61,"x_max":614,"o":"m 432 883 l 614 883 l 614 0 l 436 0 l 243 528 l 243 0 l 61 0 l 61 883 l 242 883 l 432 357 l 432 883 m 250 928 l 376 1126 l 576 1126 l 406 928 l 250 928 z "},"Ň":{"ha":675,"x_min":61,"x_max":614,"o":"m 432 883 l 614 883 l 614 0 l 436 0 l 243 528 l 243 0 l 61 0 l 61 883 l 242 883 l 432 357 l 432 883 m 244 928 l 79 1126 l 264 1126 l 338 1025 l 411 1126 l 596 1126 l 431 928 l 244 928 z "},"Ņ":{"ha":675,"x_min":61,"x_max":614,"o":"m 432 883 l 614 883 l 614 0 l 436 0 l 243 528 l 243 0 l 61 0 l 61 883 l 242 883 l 432 357 l 432 883 m 228 -65 l 424 -65 l 424 -167 l 290 -379 l 228 -379 l 228 -65 z "},"Ñ":{"ha":675,"x_min":61,"x_max":614,"o":"m 432 883 l 614 883 l 614 0 l 436 0 l 243 528 l 243 0 l 61 0 l 61 883 l 242 883 l 432 357 l 432 883 m 436 929 q 370 945 400 929 q 317 978 340 961 q 278 994 294 994 q 254 964 254 994 l 254 929 l 97 929 l 97 988 q 124 1079 97 1046 q 224 1113 151 1113 l 244 1113 q 310 1096 281 1113 q 363 1063 340 1079 q 400 1047 386 1047 q 420 1054 414 1047 q 426 1078 426 1061 l 426 1113 l 583 1113 l 583 1047 q 556 960 583 990 q 456 929 528 929 l 436 929 z "},"O":{"ha":651,"x_min":57,"x_max":594,"o":"m 396 422 l 396 703 q 388 730 396 722 q 360 738 381 738 l 313 738 l 313 883 l 419 883 q 554 842 514 883 q 594 729 594 801 l 594 422 l 396 422 m 396 181 l 396 456 l 594 456 l 594 154 q 554 41 594 82 q 419 0 514 0 l 310 0 l 310 146 l 360 146 q 388 154 381 146 q 396 181 396 163 m 256 703 l 256 422 l 57 422 l 57 729 q 98 842 57 801 q 233 883 139 883 l 339 883 l 339 738 l 293 738 q 264 730 272 738 q 256 703 256 722 m 256 460 l 256 181 q 264 154 256 163 q 293 146 272 146 l 338 146 l 338 0 l 233 0 q 98 41 139 0 q 57 154 57 82 l 57 460 l 256 460 z "},"Œ":{"ha":935,"x_min":85,"x_max":892,"o":"m 424 422 l 424 713 q 415 740 424 732 q 386 747 407 747 l 340 747 l 340 883 l 368 883 q 465 854 432 883 q 510 780 497 825 q 522 681 522 735 l 522 422 l 424 422 m 424 171 l 424 456 l 522 456 l 522 203 q 510 104 522 150 q 465 29 497 58 q 368 0 432 0 l 338 0 l 338 136 l 386 136 q 415 144 407 136 q 424 171 424 153 m 283 713 l 283 422 l 85 422 l 85 729 q 125 842 85 801 q 260 883 165 883 l 347 883 l 347 747 l 319 747 q 292 740 300 747 q 283 713 283 732 m 283 460 l 283 171 q 292 144 283 153 q 319 136 300 136 l 346 136 l 346 0 l 260 0 q 125 41 165 0 q 85 154 85 82 l 85 460 l 283 460 m 461 883 l 607 883 l 607 0 l 461 0 l 461 883 m 839 518 l 839 381 l 500 381 l 500 518 l 839 518 m 881 883 l 881 747 l 488 747 l 488 883 l 881 883 m 892 136 l 892 0 l 488 0 l 488 136 l 892 136 z "},"Ó":{"ha":651,"x_min":57,"x_max":594,"o":"m 396 422 l 396 703 q 388 730 396 722 q 360 738 381 738 l 313 738 l 313 883 l 419 883 q 554 842 514 883 q 594 729 594 801 l 594 422 l 396 422 m 396 181 l 396 456 l 594 456 l 594 154 q 554 41 594 82 q 419 0 514 0 l 310 0 l 310 146 l 360 146 q 388 154 381 146 q 396 181 396 163 m 256 703 l 256 422 l 57 422 l 57 729 q 98 842 57 801 q 233 883 139 883 l 339 883 l 339 738 l 293 738 q 264 730 272 738 q 256 703 256 722 m 256 460 l 256 181 q 264 154 256 163 q 293 146 272 146 l 338 146 l 338 0 l 233 0 q 98 41 139 0 q 57 154 57 82 l 57 460 l 256 460 m 249 928 l 375 1126 l 575 1126 l 404 928 l 249 928 z "},"Ô":{"ha":651,"x_min":57,"x_max":594,"o":"m 396 422 l 396 703 q 388 730 396 722 q 360 738 381 738 l 313 738 l 313 883 l 419 883 q 554 842 514 883 q 594 729 594 801 l 594 422 l 396 422 m 396 181 l 396 456 l 594 456 l 594 154 q 554 41 594 82 q 419 0 514 0 l 310 0 l 310 146 l 360 146 q 388 154 381 146 q 396 181 396 163 m 256 703 l 256 422 l 57 422 l 57 729 q 98 842 57 801 q 233 883 139 883 l 339 883 l 339 738 l 293 738 q 264 730 272 738 q 256 703 256 722 m 256 460 l 256 181 q 264 154 256 163 q 293 146 272 146 l 338 146 l 338 0 l 233 0 q 98 41 139 0 q 57 154 57 82 l 57 460 l 256 460 m 65 928 l 231 1126 l 417 1126 l 582 928 l 397 928 l 324 1031 l 250 928 l 65 928 z "},"Ö":{"ha":636,"x_min":57,"x_max":594,"o":"m 81 929 l 81 1090 l 265 1090 l 265 929 l 81 929 m 388 929 l 388 1090 l 572 1090 l 572 929 l 388 929 m 396 422 l 396 703 q 388 730 396 722 q 360 738 381 738 l 313 738 l 313 883 l 419 883 q 554 842 514 883 q 594 729 594 801 l 594 422 l 396 422 m 396 181 l 396 456 l 594 456 l 594 154 q 554 41 594 82 q 419 0 514 0 l 310 0 l 310 146 l 360 146 q 388 154 381 146 q 396 181 396 163 m 256 703 l 256 422 l 57 422 l 57 729 q 98 842 57 801 q 233 883 139 883 l 339 883 l 339 738 l 293 738 q 264 730 272 738 q 256 703 256 722 m 256 460 l 256 181 q 264 154 256 163 q 293 146 272 146 l 338 146 l 338 0 l 233 0 q 98 41 139 0 q 57 154 57 82 l 57 460 l 256 460 z "},"Ò":{"ha":651,"x_min":57,"x_max":594,"o":"m 396 422 l 396 703 q 388 730 396 722 q 360 738 381 738 l 313 738 l 313 883 l 419 883 q 554 842 514 883 q 594 729 594 801 l 594 422 l 396 422 m 396 181 l 396 456 l 594 456 l 594 154 q 554 41 594 82 q 419 0 514 0 l 310 0 l 310 146 l 360 146 q 388 154 381 146 q 396 181 396 163 m 256 703 l 256 422 l 57 422 l 57 729 q 98 842 57 801 q 233 883 139 883 l 339 883 l 339 738 l 293 738 q 264 730 272 738 q 256 703 256 722 m 256 460 l 256 181 q 264 154 256 163 q 293 146 272 146 l 338 146 l 338 0 l 233 0 q 98 41 139 0 q 57 154 57 82 l 57 460 l 256 460 m 269 1126 l 396 928 l 240 928 l 69 1126 l 269 1126 z "},"Ő":{"ha":636,"x_min":57,"x_max":675,"o":"m 375 928 l 503 1126 l 676 1126 l 506 928 l 375 928 m 149 928 l 276 1126 l 450 1126 l 279 928 l 149 928 m 396 422 l 396 703 q 388 730 396 722 q 360 738 381 738 l 313 738 l 313 883 l 419 883 q 554 842 514 883 q 594 729 594 801 l 594 422 l 396 422 m 396 181 l 396 456 l 594 456 l 594 154 q 554 41 594 82 q 419 0 514 0 l 310 0 l 310 146 l 360 146 q 388 154 381 146 q 396 181 396 163 m 256 703 l 256 422 l 57 422 l 57 729 q 98 842 57 801 q 233 883 139 883 l 339 883 l 339 738 l 293 738 q 264 730 272 738 q 256 703 256 722 m 256 460 l 256 181 q 264 154 256 163 q 293 146 272 146 l 338 146 l 338 0 l 233 0 q 98 41 139 0 q 57 154 57 82 l 57 460 l 256 460 z "},"Ō":{"ha":651,"x_min":57,"x_max":594,"o":"m 396 422 l 396 703 q 388 730 396 722 q 360 738 381 738 l 313 738 l 313 883 l 419 883 q 554 842 514 883 q 594 729 594 801 l 594 422 l 396 422 m 396 181 l 396 456 l 594 456 l 594 154 q 554 41 594 82 q 419 0 514 0 l 310 0 l 310 146 l 360 146 q 388 154 381 146 q 396 181 396 163 m 256 703 l 256 422 l 57 422 l 57 729 q 98 842 57 801 q 233 883 139 883 l 339 883 l 339 738 l 293 738 q 264 730 272 738 q 256 703 256 722 m 256 460 l 256 181 q 264 154 256 163 q 293 146 272 146 l 338 146 l 338 0 l 233 0 q 98 41 139 0 q 57 154 57 82 l 57 460 l 256 460 m 88 929 l 88 1056 l 564 1056 l 564 929 l 88 929 z "},"Ø":{"ha":656,"x_min":51,"x_max":610,"o":"m 597 729 l 597 154 q 556 41 597 82 q 421 0 515 0 l 235 0 q 99 41 140 0 q 58 154 58 82 l 58 729 q 99 842 58 801 q 235 883 140 883 l 421 883 q 556 842 515 883 q 597 729 597 801 m 408 169 l 408 714 q 400 741 408 733 q 371 749 392 749 l 285 749 q 256 741 264 749 q 247 714 247 733 l 247 169 q 256 143 247 151 q 285 135 264 135 l 371 135 q 400 143 392 135 q 408 169 408 151 m 518 911 l 610 911 l 144 -28 l 51 -28 l 518 911 z "},"Õ":{"ha":651,"x_min":57,"x_max":594,"o":"m 396 422 l 396 703 q 388 730 396 722 q 360 738 381 738 l 313 738 l 313 883 l 419 883 q 554 842 514 883 q 594 729 594 801 l 594 422 l 396 422 m 396 181 l 396 456 l 594 456 l 594 154 q 554 41 594 82 q 419 0 514 0 l 310 0 l 310 146 l 360 146 q 388 154 381 146 q 396 181 396 163 m 256 703 l 256 422 l 57 422 l 57 729 q 98 842 57 801 q 233 883 139 883 l 339 883 l 339 738 l 293 738 q 264 730 272 738 q 256 703 256 722 m 256 460 l 256 181 q 264 154 256 163 q 293 146 272 146 l 338 146 l 338 0 l 233 0 q 98 41 139 0 q 57 154 57 82 l 57 460 l 256 460 m 419 929 q 353 945 383 929 q 301 978 324 961 q 261 994 278 994 q 238 964 238 994 l 238 929 l 81 929 l 81 988 q 108 1079 81 1046 q 207 1113 135 1113 l 228 1113 q 294 1096 264 1113 q 347 1063 324 1079 q 383 1047 369 1047 q 403 1054 397 1047 q 410 1078 410 1061 l 410 1113 l 567 1113 l 567 1047 q 539 960 567 990 q 439 929 511 929 l 419 929 z "},"P":{"ha":633,"x_min":61,"x_max":601,"o":"m 403 489 l 403 703 q 395 730 403 722 q 367 738 388 738 l 118 738 l 118 883 l 426 883 q 561 842 521 883 q 601 729 601 801 l 601 463 q 561 349 601 390 q 426 308 521 308 l 135 308 l 135 454 l 367 454 q 395 463 388 454 q 403 489 403 471 m 61 883 l 260 883 l 260 0 l 61 0 l 61 883 z "},"Q":{"ha":651,"x_min":57,"x_max":651,"o":"m 396 422 l 396 703 q 388 730 396 722 q 360 738 381 738 l 313 738 l 313 883 l 419 883 q 554 842 514 883 q 594 729 594 801 l 594 422 l 396 422 m 396 181 l 396 456 l 594 456 l 594 154 q 554 41 594 82 q 419 0 514 0 l 310 0 l 310 146 l 360 146 q 388 154 381 146 q 396 181 396 163 m 256 703 l 256 422 l 57 422 l 57 729 q 98 842 57 801 q 233 883 139 883 l 339 883 l 339 738 l 293 738 q 264 730 272 738 q 256 703 256 722 m 256 460 l 256 181 q 264 154 256 163 q 293 146 272 146 l 338 146 l 338 0 l 233 0 q 98 41 139 0 q 57 154 57 82 l 57 460 l 256 460 m 219 136 l 438 136 l 651 -107 l 429 -107 l 219 136 z "},"R":{"ha":651,"x_min":61,"x_max":646,"o":"m 403 504 l 403 703 q 395 730 403 722 q 367 738 388 738 l 118 738 l 118 883 l 426 883 q 561 842 521 883 q 601 729 601 801 l 601 483 q 561 372 601 413 q 426 331 521 331 l 135 331 l 135 471 l 367 471 q 395 478 388 471 q 403 504 403 486 m 61 883 l 260 883 l 260 0 l 61 0 l 61 883 m 261 408 l 458 408 l 646 0 l 433 0 l 261 408 z "},"Ŕ":{"ha":651,"x_min":61,"x_max":646,"o":"m 403 504 l 403 703 q 395 730 403 722 q 367 738 388 738 l 118 738 l 118 883 l 426 883 q 561 842 521 883 q 601 729 601 801 l 601 483 q 561 372 601 413 q 426 331 521 331 l 135 331 l 135 471 l 367 471 q 395 478 388 471 q 403 504 403 486 m 61 883 l 260 883 l 260 0 l 61 0 l 61 883 m 261 408 l 458 408 l 646 0 l 433 0 l 261 408 m 233 928 l 360 1126 l 560 1126 l 389 928 l 233 928 z "},"Ř":{"ha":651,"x_min":61,"x_max":646,"o":"m 403 504 l 403 703 q 395 730 403 722 q 367 738 388 738 l 118 738 l 118 883 l 426 883 q 561 842 521 883 q 601 729 601 801 l 601 483 q 561 372 601 413 q 426 331 521 331 l 135 331 l 135 471 l 367 471 q 395 478 388 471 q 403 504 403 486 m 61 883 l 260 883 l 260 0 l 61 0 l 61 883 m 261 408 l 458 408 l 646 0 l 433 0 l 261 408 m 229 928 l 64 1126 l 249 1126 l 322 1025 l 396 1126 l 581 1126 l 415 928 l 229 928 z "},"Ŗ":{"ha":651,"x_min":61,"x_max":646,"o":"m 403 504 l 403 703 q 395 730 403 722 q 367 738 388 738 l 118 738 l 118 883 l 426 883 q 561 842 521 883 q 601 729 601 801 l 601 483 q 561 372 601 413 q 426 331 521 331 l 135 331 l 135 471 l 367 471 q 395 478 388 471 q 403 504 403 486 m 61 883 l 260 883 l 260 0 l 61 0 l 61 883 m 261 408 l 458 408 l 646 0 l 433 0 l 261 408 m 221 -65 l 417 -65 l 417 -167 l 283 -379 l 221 -379 l 221 -65 z "},"S":{"ha":614,"x_min":46,"x_max":568,"o":"m 369 181 l 369 340 q 361 366 369 358 q 332 374 353 374 l 210 374 q 82 416 118 374 q 46 529 46 458 l 46 729 q 86 842 46 801 q 221 883 126 883 l 390 883 q 525 842 485 883 q 565 729 565 801 l 565 615 l 367 615 l 367 703 q 358 730 367 722 q 329 738 350 738 l 282 738 q 253 730 261 738 q 244 703 244 722 l 244 547 q 253 522 244 529 q 282 514 261 514 l 401 514 q 531 474 494 514 q 568 361 568 433 l 568 154 q 528 41 568 82 q 393 0 488 0 l 225 0 q 90 41 131 0 q 49 154 49 82 l 49 268 l 247 268 l 247 181 q 256 154 247 163 q 285 146 264 146 l 332 146 q 361 154 353 146 q 369 181 369 163 z "},"Ś":{"ha":614,"x_min":46,"x_max":568,"o":"m 369 181 l 369 340 q 361 366 369 358 q 332 374 353 374 l 210 374 q 82 416 118 374 q 46 529 46 458 l 46 729 q 86 842 46 801 q 221 883 126 883 l 390 883 q 525 842 485 883 q 565 729 565 801 l 565 615 l 367 615 l 367 703 q 358 730 367 722 q 329 738 350 738 l 282 738 q 253 730 261 738 q 244 703 244 722 l 244 547 q 253 522 244 529 q 282 514 261 514 l 401 514 q 531 474 494 514 q 568 361 568 433 l 568 154 q 528 41 568 82 q 393 0 488 0 l 225 0 q 90 41 131 0 q 49 154 49 82 l 49 268 l 247 268 l 247 181 q 256 154 247 163 q 285 146 264 146 l 332 146 q 361 154 353 146 q 369 181 369 163 m 242 928 l 368 1126 l 568 1126 l 397 928 l 242 928 z "},"Š":{"ha":614,"x_min":46,"x_max":568,"o":"m 369 181 l 369 340 q 361 366 369 358 q 332 374 353 374 l 210 374 q 82 416 118 374 q 46 529 46 458 l 46 729 q 86 842 46 801 q 221 883 126 883 l 390 883 q 525 842 485 883 q 565 729 565 801 l 565 615 l 367 615 l 367 703 q 358 730 367 722 q 329 738 350 738 l 282 738 q 253 730 261 738 q 244 703 244 722 l 244 547 q 253 522 244 529 q 282 514 261 514 l 401 514 q 531 474 494 514 q 568 361 568 433 l 568 154 q 528 41 568 82 q 393 0 488 0 l 225 0 q 90 41 131 0 q 49 154 49 82 l 49 268 l 247 268 l 247 181 q 256 154 247 163 q 285 146 264 146 l 332 146 q 361 154 353 146 q 369 181 369 163 m 214 928 l 49 1126 l 233 1126 l 307 1025 l 381 1126 l 565 1126 l 400 928 l 214 928 z "},"Ş":{"ha":614,"x_min":46,"x_max":568,"o":"m 369 181 l 369 340 q 361 366 369 358 q 332 374 353 374 l 210 374 q 82 416 118 374 q 46 529 46 458 l 46 729 q 86 842 46 801 q 221 883 126 883 l 390 883 q 525 842 485 883 q 565 729 565 801 l 565 615 l 367 615 l 367 703 q 358 730 367 722 q 329 738 350 738 l 282 738 q 253 730 261 738 q 244 703 244 722 l 244 547 q 253 522 244 529 q 282 514 261 514 l 401 514 q 531 474 494 514 q 568 361 568 433 l 568 154 q 528 41 568 82 q 393 0 488 0 l 225 0 q 90 41 131 0 q 49 154 49 82 l 49 268 l 247 268 l 247 181 q 256 154 247 163 q 285 146 264 146 l 332 146 q 361 154 353 146 q 369 181 369 163 m 204 -65 l 400 -65 l 400 -167 l 267 -379 l 204 -379 l 204 -65 z "},"Ș":{"ha":614,"x_min":46,"x_max":568,"o":"m 369 181 l 369 340 q 361 366 369 358 q 332 374 353 374 l 210 374 q 82 416 118 374 q 46 529 46 458 l 46 729 q 86 842 46 801 q 221 883 126 883 l 390 883 q 525 842 485 883 q 565 729 565 801 l 565 615 l 367 615 l 367 703 q 358 730 367 722 q 329 738 350 738 l 282 738 q 253 730 261 738 q 244 703 244 722 l 244 547 q 253 522 244 529 q 282 514 261 514 l 401 514 q 531 474 494 514 q 568 361 568 433 l 568 154 q 528 41 568 82 q 393 0 488 0 l 225 0 q 90 41 131 0 q 49 154 49 82 l 49 268 l 247 268 l 247 181 q 256 154 247 163 q 285 146 264 146 l 332 146 q 361 154 353 146 q 369 181 369 163 m 206 -65 l 401 -65 l 401 -167 l 268 -379 l 206 -379 l 206 -65 z "},"T":{"ha":536,"x_min":7,"x_max":529,"o":"m 168 825 l 367 825 l 367 0 l 168 0 l 168 825 m 529 883 l 529 738 l 7 738 l 7 883 l 529 883 z "},"Ť":{"ha":536,"x_min":7,"x_max":529,"o":"m 168 825 l 367 825 l 367 0 l 168 0 l 168 825 m 529 883 l 529 738 l 7 738 l 7 883 l 529 883 m 172 928 l 7 1126 l 192 1126 l 265 1025 l 339 1126 l 524 1126 l 358 928 l 172 928 z "},"Ţ":{"ha":536,"x_min":7,"x_max":529,"o":"m 168 825 l 367 825 l 367 0 l 168 0 l 168 825 m 529 883 l 529 738 l 7 738 l 7 883 l 529 883 m 169 -65 l 365 -65 l 365 -167 l 232 -379 l 169 -379 l 169 -65 z "},"Ț":{"ha":536,"x_min":7,"x_max":529,"o":"m 168 825 l 367 825 l 367 0 l 168 0 l 168 825 m 529 883 l 529 738 l 7 738 l 7 883 l 529 883 m 169 -65 l 365 -65 l 365 -167 l 232 -379 l 169 -379 l 169 -65 z "},"Þ":{"ha":663,"x_min":67,"x_max":597,"o":"m 399 339 l 399 543 q 390 570 399 563 q 361 578 382 578 l 136 578 l 136 718 l 421 718 q 556 677 515 718 q 597 565 597 636 l 597 318 q 556 205 597 246 q 421 164 515 164 l 140 164 l 140 306 l 361 306 q 390 313 382 306 q 399 339 399 321 m 67 883 l 265 883 l 265 0 l 67 0 l 67 883 z "},"U":{"ha":660,"x_min":61,"x_max":599,"o":"m 400 181 l 400 883 l 599 883 l 599 154 q 558 41 599 82 q 424 0 518 0 l 314 0 l 314 146 l 363 146 q 392 154 383 146 q 400 181 400 163 m 260 883 l 260 181 q 268 154 260 163 q 296 146 276 146 l 342 146 l 342 0 l 236 0 q 101 41 142 0 q 61 154 61 82 l 61 883 l 260 883 z "},"Ú":{"ha":660,"x_min":61,"x_max":599,"o":"m 400 181 l 400 883 l 599 883 l 599 154 q 558 41 599 82 q 424 0 518 0 l 314 0 l 314 146 l 363 146 q 392 154 383 146 q 400 181 400 163 m 260 883 l 260 181 q 268 154 260 163 q 296 146 276 146 l 342 146 l 342 0 l 236 0 q 101 41 142 0 q 61 154 61 82 l 61 883 l 260 883 m 244 928 l 371 1126 l 571 1126 l 400 928 l 244 928 z "},"Û":{"ha":660,"x_min":61,"x_max":599,"o":"m 400 181 l 400 883 l 599 883 l 599 154 q 558 41 599 82 q 424 0 518 0 l 314 0 l 314 146 l 363 146 q 392 154 383 146 q 400 181 400 163 m 260 883 l 260 181 q 268 154 260 163 q 296 146 276 146 l 342 146 l 342 0 l 236 0 q 101 41 142 0 q 61 154 61 82 l 61 883 l 260 883 m 71 928 l 236 1126 l 422 1126 l 588 928 l 403 928 l 329 1031 l 256 928 l 71 928 z "},"Ü":{"ha":660,"x_min":61,"x_max":599,"o":"m 83 929 l 83 1090 l 268 1090 l 268 929 l 83 929 m 390 929 l 390 1090 l 575 1090 l 575 929 l 390 929 m 400 181 l 400 883 l 599 883 l 599 154 q 558 41 599 82 q 424 0 518 0 l 314 0 l 314 146 l 363 146 q 392 154 383 146 q 400 181 400 163 m 260 883 l 260 181 q 268 154 260 163 q 296 146 276 146 l 342 146 l 342 0 l 236 0 q 101 41 142 0 q 61 154 61 82 l 61 883 l 260 883 z "},"Ù":{"ha":660,"x_min":61,"x_max":599,"o":"m 400 181 l 400 883 l 599 883 l 599 154 q 558 41 599 82 q 424 0 518 0 l 314 0 l 314 146 l 363 146 q 392 154 383 146 q 400 181 400 163 m 260 883 l 260 181 q 268 154 260 163 q 296 146 276 146 l 342 146 l 342 0 l 236 0 q 101 41 142 0 q 61 154 61 82 l 61 883 l 260 883 m 279 1126 l 406 928 l 250 928 l 79 1126 l 279 1126 z "},"Ű":{"ha":638,"x_min":61,"x_max":668,"o":"m 367 928 l 494 1126 l 668 1126 l 497 928 l 367 928 m 140 928 l 268 1126 l 442 1126 l 271 928 l 140 928 m 400 181 l 400 883 l 599 883 l 599 154 q 558 41 599 82 q 424 0 518 0 l 314 0 l 314 146 l 363 146 q 392 154 383 146 q 400 181 400 163 m 260 883 l 260 181 q 268 154 260 163 q 296 146 276 146 l 342 146 l 342 0 l 236 0 q 101 41 142 0 q 61 154 61 82 l 61 883 l 260 883 z "},"Ū":{"ha":660,"x_min":61,"x_max":599,"o":"m 400 181 l 400 883 l 599 883 l 599 154 q 558 41 599 82 q 424 0 518 0 l 314 0 l 314 146 l 363 146 q 392 154 383 146 q 400 181 400 163 m 260 883 l 260 181 q 268 154 260 163 q 296 146 276 146 l 342 146 l 342 0 l 236 0 q 101 41 142 0 q 61 154 61 82 l 61 883 l 260 883 m 92 929 l 92 1056 l 568 1056 l 568 929 l 92 929 z "},"Ų":{"ha":660,"x_min":61,"x_max":599,"o":"m 400 181 l 400 883 l 599 883 l 599 154 q 558 41 599 82 q 424 0 518 0 l 314 0 l 314 146 l 363 146 q 392 154 383 146 q 400 181 400 163 m 260 883 l 260 181 q 268 154 260 163 q 296 146 276 146 l 342 146 l 342 0 l 236 0 q 101 41 142 0 q 61 154 61 82 l 61 883 l 260 883 m 131 -161 q 163 -62 131 -99 q 276 -26 194 -26 l 401 -26 l 401 -143 l 306 -143 q 278 -150 286 -143 q 271 -174 271 -157 l 271 -208 q 278 -231 271 -225 q 306 -237 286 -237 l 426 -237 l 426 -354 l 276 -354 q 163 -319 194 -354 q 131 -219 131 -283 l 131 -161 m 401 -33 l 285 -33 l 285 19 l 401 19 l 401 -33 z "},"Ů":{"ha":660,"x_min":61,"x_max":599,"o":"m 400 181 l 400 883 l 599 883 l 599 154 q 558 41 599 82 q 424 0 518 0 l 314 0 l 314 146 l 363 146 q 392 154 383 146 q 400 181 400 163 m 260 883 l 260 181 q 268 154 260 163 q 296 146 276 146 l 342 146 l 342 0 l 236 0 q 101 41 142 0 q 61 154 61 82 l 61 883 l 260 883 m 510 1064 l 510 1042 q 482 958 510 988 q 383 928 454 928 l 275 928 q 176 958 204 928 q 149 1042 149 988 l 149 1064 q 176 1148 149 1118 q 275 1178 204 1178 l 383 1178 q 482 1148 454 1178 q 510 1064 510 1118 m 386 1044 l 386 1060 q 380 1084 386 1078 q 354 1090 374 1090 l 304 1090 q 280 1084 286 1090 q 274 1060 274 1078 l 274 1044 q 280 1022 274 1028 q 304 1015 286 1015 l 354 1015 q 380 1022 374 1015 q 386 1044 386 1028 z "},"V":{"ha":651,"x_min":8,"x_max":643,"o":"m 436 883 l 643 883 l 447 0 l 204 0 l 8 883 l 215 883 l 325 228 l 436 883 z "},"W":{"ha":1042,"x_min":14,"x_max":1028,"o":"m 831 883 l 1028 883 l 858 0 l 619 0 l 521 578 l 424 0 l 185 0 l 14 883 l 219 883 l 303 225 l 419 883 l 621 883 l 738 225 l 831 883 z "},"X":{"ha":646,"x_min":1,"x_max":644,"o":"m 429 450 l 644 0 l 421 0 l 318 281 l 214 0 l 1 0 l 207 450 l 10 883 l 233 883 l 318 624 l 403 883 l 617 883 l 429 450 z "},"Y":{"ha":638,"x_min":1,"x_max":636,"o":"m 413 253 l 238 253 l 1 883 l 206 883 l 324 468 l 433 883 l 636 883 l 413 253 m 225 360 l 424 360 l 424 0 l 225 0 l 225 360 z "},"Ý":{"ha":638,"x_min":1,"x_max":636,"o":"m 413 253 l 238 253 l 1 883 l 206 883 l 324 468 l 433 883 l 636 883 l 413 253 m 225 360 l 424 360 l 424 0 l 225 0 l 225 360 m 236 928 l 363 1126 l 563 1126 l 392 928 l 236 928 z "},"Ÿ":{"ha":619,"x_min":1,"x_max":636,"o":"m 65 946 l 65 1107 l 250 1107 l 250 946 l 65 946 m 372 946 l 372 1107 l 557 1107 l 557 946 l 372 946 m 413 253 l 238 253 l 1 883 l 206 883 l 324 468 l 433 883 l 636 883 l 413 253 m 225 360 l 424 360 l 424 0 l 225 0 l 225 360 z "},"Z":{"ha":565,"x_min":22,"x_max":543,"o":"m 543 883 l 543 738 l 39 738 l 39 883 l 543 883 m 338 738 l 543 738 l 228 146 l 22 146 l 338 738 m 535 146 l 535 0 l 22 0 l 22 146 l 535 146 z "},"Ź":{"ha":565,"x_min":22,"x_max":543,"o":"m 543 883 l 543 738 l 39 738 l 39 883 l 543 883 m 338 738 l 543 738 l 228 146 l 22 146 l 338 738 m 535 146 l 535 0 l 22 0 l 22 146 l 535 146 m 208 928 l 335 1126 l 535 1126 l 364 928 l 208 928 z "},"Ž":{"ha":565,"x_min":22,"x_max":558,"o":"m 543 883 l 543 738 l 39 738 l 39 883 l 543 883 m 338 738 l 543 738 l 228 146 l 22 146 l 338 738 m 535 146 l 535 0 l 22 0 l 22 146 l 535 146 m 207 928 l 42 1126 l 226 1126 l 300 1025 l 374 1126 l 558 1126 l 393 928 l 207 928 z "},"Ż":{"ha":565,"x_min":22,"x_max":543,"o":"m 543 883 l 543 738 l 39 738 l 39 883 l 543 883 m 338 738 l 543 738 l 228 146 l 22 146 l 338 738 m 535 146 l 535 0 l 22 0 l 22 146 l 535 146 m 200 928 l 200 1090 l 396 1090 l 396 928 l 200 928 z "},"a":{"ha":603,"x_min":46,"x_max":544,"o":"m 240 326 l 46 326 l 46 533 q 84 646 46 604 q 208 688 122 688 l 242 688 q 328 658 299 688 q 358 572 358 628 l 358 458 l 351 458 l 351 497 q 342 531 351 521 q 310 542 332 542 l 278 542 q 249 534 257 542 q 240 507 240 526 l 240 326 m 544 0 l 351 0 l 351 568 l 354 572 l 354 688 l 544 688 l 544 0 m 46 361 l 240 361 l 240 181 q 249 154 240 163 q 278 146 257 146 l 310 146 q 342 156 332 146 q 351 190 351 167 l 351 228 l 358 228 l 358 115 q 328 30 358 60 q 242 0 299 0 l 208 0 q 84 41 122 0 q 46 154 46 82 l 46 361 z "},"á":{"ha":603,"x_min":46,"x_max":556,"o":"m 240 326 l 46 326 l 46 533 q 84 646 46 604 q 208 688 122 688 l 242 688 q 328 658 299 688 q 358 572 358 628 l 358 458 l 351 458 l 351 497 q 342 531 351 521 q 310 542 332 542 l 278 542 q 249 534 257 542 q 240 507 240 526 l 240 326 m 544 0 l 351 0 l 351 568 l 354 572 l 354 688 l 544 688 l 544 0 m 46 361 l 240 361 l 240 181 q 249 154 240 163 q 278 146 257 146 l 310 146 q 342 156 332 146 q 351 190 351 167 l 351 228 l 358 228 l 358 115 q 328 30 358 60 q 242 0 299 0 l 208 0 q 84 41 122 0 q 46 154 46 82 l 46 361 m 229 732 l 356 931 l 556 931 l 385 732 l 229 732 z "},"ă":{"ha":603,"x_min":46,"x_max":567,"o":"m 240 326 l 46 326 l 46 533 q 84 646 46 604 q 208 688 122 688 l 242 688 q 328 658 299 688 q 358 572 358 628 l 358 458 l 351 458 l 351 497 q 342 531 351 521 q 310 542 332 542 l 278 542 q 249 534 257 542 q 240 507 240 526 l 240 326 m 544 0 l 351 0 l 351 568 l 354 572 l 354 688 l 544 688 l 544 0 m 46 361 l 240 361 l 240 181 q 249 154 240 163 q 278 146 257 146 l 310 146 q 342 156 332 146 q 351 190 351 167 l 351 228 l 358 228 l 358 115 q 328 30 358 60 q 242 0 299 0 l 208 0 q 84 41 122 0 q 46 154 46 82 l 46 361 m 393 931 l 567 931 l 567 886 q 526 774 567 815 q 390 732 485 732 l 310 732 l 310 849 l 356 849 q 385 856 376 849 q 393 882 393 864 l 393 931 m 75 931 l 249 931 l 249 882 q 257 856 249 864 q 286 849 265 849 l 333 849 l 333 732 l 251 732 q 116 774 157 732 q 75 886 75 815 l 75 931 z "},"â":{"ha":603,"x_min":46,"x_max":561,"o":"m 240 326 l 46 326 l 46 533 q 84 646 46 604 q 208 688 122 688 l 242 688 q 328 658 299 688 q 358 572 358 628 l 358 458 l 351 458 l 351 497 q 342 531 351 521 q 310 542 332 542 l 278 542 q 249 534 257 542 q 240 507 240 526 l 240 326 m 544 0 l 351 0 l 351 568 l 354 572 l 354 688 l 544 688 l 544 0 m 46 361 l 240 361 l 240 181 q 249 154 240 163 q 278 146 257 146 l 310 146 q 342 156 332 146 q 351 190 351 167 l 351 228 l 358 228 l 358 115 q 328 30 358 60 q 242 0 299 0 l 208 0 q 84 41 122 0 q 46 154 46 82 l 46 361 m 46 732 l 211 931 l 397 931 l 563 732 l 378 732 l 304 835 l 231 732 l 46 732 z "},"ä":{"ha":603,"x_min":46,"x_max":556,"o":"m 64 753 l 64 914 l 249 914 l 249 753 l 64 753 m 371 753 l 371 914 l 556 914 l 556 753 l 371 753 m 240 326 l 46 326 l 46 533 q 84 646 46 604 q 208 688 122 688 l 242 688 q 328 658 299 688 q 358 572 358 628 l 358 458 l 351 458 l 351 497 q 342 531 351 521 q 310 542 332 542 l 278 542 q 249 534 257 542 q 240 507 240 526 l 240 326 m 544 0 l 351 0 l 351 568 l 354 572 l 354 688 l 544 688 l 544 0 m 46 361 l 240 361 l 240 181 q 249 154 240 163 q 278 146 257 146 l 310 146 q 342 156 332 146 q 351 190 351 167 l 351 228 l 358 228 l 358 115 q 328 30 358 60 q 242 0 299 0 l 208 0 q 84 41 122 0 q 46 154 46 82 l 46 361 z "},"æ":{"ha":928,"x_min":53,"x_max":867,"o":"m 401 429 l 449 322 l 247 239 l 53 286 l 401 429 m 53 286 l 247 239 l 247 181 q 256 154 247 163 q 285 146 264 146 l 317 146 q 347 156 338 146 q 358 188 357 165 l 358 500 q 317 542 357 542 l 285 542 q 256 534 264 542 q 247 507 247 526 l 247 431 l 53 431 l 53 533 q 91 646 53 604 q 215 688 129 688 l 311 688 q 393 668 356 688 q 446 617 431 649 q 499 668 463 649 q 596 688 536 688 l 690 688 q 826 646 785 688 q 867 533 867 604 l 867 308 l 678 308 l 678 511 q 669 538 678 531 q 640 546 661 546 l 585 546 q 556 538 564 546 q 547 511 547 531 l 547 175 q 556 149 547 157 q 585 142 564 142 l 639 142 q 668 149 660 142 q 676 175 676 157 l 676 218 l 865 218 l 865 154 q 824 41 865 82 q 689 0 783 0 l 594 0 q 498 20 535 0 q 444 71 461 40 q 392 20 429 40 q 310 0 354 0 l 215 0 q 91 41 129 0 q 53 154 53 82 l 53 286 m 861 407 l 861 286 l 410 286 l 410 407 l 861 407 z "},"à":{"ha":603,"x_min":46,"x_max":544,"o":"m 240 326 l 46 326 l 46 533 q 84 646 46 604 q 208 688 122 688 l 242 688 q 328 658 299 688 q 358 572 358 628 l 358 458 l 351 458 l 351 497 q 342 531 351 521 q 310 542 332 542 l 278 542 q 249 534 257 542 q 240 507 240 526 l 240 326 m 544 0 l 351 0 l 351 568 l 354 572 l 354 688 l 544 688 l 544 0 m 46 361 l 240 361 l 240 181 q 249 154 240 163 q 278 146 257 146 l 310 146 q 342 156 332 146 q 351 190 351 167 l 351 228 l 358 228 l 358 115 q 328 30 358 60 q 242 0 299 0 l 208 0 q 84 41 122 0 q 46 154 46 82 l 46 361 m 290 931 l 417 732 l 261 732 l 90 931 l 290 931 z "},"ā":{"ha":603,"x_min":46,"x_max":544,"o":"m 240 326 l 46 326 l 46 533 q 84 646 46 604 q 208 688 122 688 l 242 688 q 328 658 299 688 q 358 572 358 628 l 358 458 l 351 458 l 351 497 q 342 531 351 521 q 310 542 332 542 l 278 542 q 249 534 257 542 q 240 507 240 526 l 240 326 m 544 0 l 351 0 l 351 568 l 354 572 l 354 688 l 544 688 l 544 0 m 46 361 l 240 361 l 240 181 q 249 154 240 163 q 278 146 257 146 l 310 146 q 342 156 332 146 q 351 190 351 167 l 351 228 l 358 228 l 358 115 q 328 30 358 60 q 242 0 299 0 l 208 0 q 84 41 122 0 q 46 154 46 82 l 46 361 m 61 769 l 61 896 l 538 896 l 538 769 l 61 769 z "},"ą":{"ha":603,"x_min":46,"x_max":569,"o":"m 240 326 l 46 326 l 46 533 q 84 646 46 604 q 208 688 122 688 l 242 688 q 328 658 299 688 q 358 572 358 628 l 358 458 l 351 458 l 351 497 q 342 531 351 521 q 310 542 332 542 l 278 542 q 249 534 257 542 q 240 507 240 526 l 240 326 m 544 0 l 351 0 l 351 568 l 354 572 l 354 688 l 544 688 l 544 0 m 46 361 l 240 361 l 240 181 q 249 154 240 163 q 278 146 257 146 l 310 146 q 342 156 332 146 q 351 190 351 167 l 351 228 l 358 228 l 358 115 q 328 30 358 60 q 242 0 299 0 l 208 0 q 84 41 122 0 q 46 154 46 82 l 46 361 m 275 -161 q 307 -62 275 -99 q 421 -26 339 -26 l 546 -26 l 546 -143 l 450 -143 q 423 -150 431 -143 q 415 -174 415 -157 l 415 -208 q 423 -231 415 -225 q 450 -237 431 -237 l 571 -237 l 571 -354 l 421 -354 q 307 -319 339 -354 q 275 -219 275 -283 l 275 -161 m 546 -33 l 429 -33 l 429 19 l 546 19 l 546 -33 z "},"å":{"ha":603,"x_min":46,"x_max":544,"o":"m 240 326 l 46 326 l 46 533 q 84 646 46 604 q 208 688 122 688 l 242 688 q 328 658 299 688 q 358 572 358 628 l 358 458 l 351 458 l 351 497 q 342 531 351 521 q 310 542 332 542 l 278 542 q 249 534 257 542 q 240 507 240 526 l 240 326 m 544 0 l 351 0 l 351 568 l 354 572 l 354 688 l 544 688 l 544 0 m 46 361 l 240 361 l 240 181 q 249 154 240 163 q 278 146 257 146 l 310 146 q 342 156 332 146 q 351 190 351 167 l 351 228 l 358 228 l 358 115 q 328 30 358 60 q 242 0 299 0 l 208 0 q 84 41 122 0 q 46 154 46 82 l 46 361 m 483 871 l 483 849 q 456 765 483 794 q 357 735 428 735 l 249 735 q 150 765 178 735 q 122 849 122 794 l 122 871 q 150 955 122 925 q 249 985 178 985 l 357 985 q 456 955 428 985 q 483 871 483 925 m 360 851 l 360 867 q 353 891 360 885 q 328 897 347 897 l 278 897 q 253 891 260 897 q 247 867 247 885 l 247 851 q 253 828 247 835 q 278 822 260 822 l 328 822 q 353 828 347 822 q 360 851 360 835 z "},"ã":{"ha":603,"x_min":46,"x_max":544,"o":"m 240 326 l 46 326 l 46 533 q 84 646 46 604 q 208 688 122 688 l 242 688 q 328 658 299 688 q 358 572 358 628 l 358 458 l 351 458 l 351 497 q 342 531 351 521 q 310 542 332 542 l 278 542 q 249 534 257 542 q 240 507 240 526 l 240 326 m 544 0 l 351 0 l 351 568 l 354 572 l 354 688 l 544 688 l 544 0 m 46 361 l 240 361 l 240 181 q 249 154 240 163 q 278 146 257 146 l 310 146 q 342 156 332 146 q 351 190 351 167 l 351 228 l 358 228 l 358 115 q 328 30 358 60 q 242 0 299 0 l 208 0 q 84 41 122 0 q 46 154 46 82 l 46 361 m 394 740 q 328 756 358 740 q 276 789 299 772 q 236 806 253 806 q 213 775 213 806 l 213 740 l 56 740 l 56 799 q 83 890 56 857 q 182 924 110 924 l 203 924 q 269 907 239 924 q 322 874 299 890 q 358 858 344 858 q 378 865 372 858 q 385 889 385 872 l 385 924 l 542 924 l 542 858 q 514 771 542 801 q 414 740 486 740 l 394 740 z "},"b":{"ha":603,"x_min":57,"x_max":557,"o":"m 363 361 l 557 361 l 557 154 q 519 41 557 82 q 394 0 481 0 l 360 0 q 274 30 304 0 q 244 115 244 60 l 244 226 l 251 226 l 251 190 q 262 156 251 167 q 292 146 272 146 l 325 146 q 354 154 346 146 q 363 181 363 163 l 363 361 m 557 328 l 363 328 l 363 507 q 354 534 363 526 q 325 542 346 542 l 292 542 q 262 531 272 542 q 251 497 251 521 l 251 457 l 244 457 l 244 572 q 274 658 244 628 q 360 688 304 688 l 394 688 q 519 647 481 688 q 557 535 557 606 l 557 328 m 57 929 l 251 929 l 251 118 l 249 114 l 249 0 l 57 0 l 57 929 z "},"c":{"ha":574,"x_min":46,"x_max":540,"o":"m 240 507 l 240 181 q 249 154 240 163 q 278 146 257 146 l 307 146 l 307 0 l 222 0 q 87 41 128 0 q 46 154 46 82 l 46 533 q 87 646 46 604 q 222 688 128 688 l 308 688 l 308 542 l 278 542 q 249 534 257 542 q 240 507 240 526 m 351 439 l 351 507 q 344 534 351 526 q 314 542 336 542 l 289 542 l 289 688 l 364 688 q 499 646 458 688 q 540 533 540 604 l 540 439 l 351 439 m 351 181 l 351 247 l 540 247 l 540 154 q 499 41 540 82 q 364 0 458 0 l 289 0 l 289 146 l 314 146 q 344 154 336 146 q 351 181 351 163 z "},"ć":{"ha":574,"x_min":46,"x_max":543,"o":"m 240 507 l 240 181 q 249 154 240 163 q 278 146 257 146 l 307 146 l 307 0 l 222 0 q 87 41 128 0 q 46 154 46 82 l 46 533 q 87 646 46 604 q 222 688 128 688 l 308 688 l 308 542 l 278 542 q 249 534 257 542 q 240 507 240 526 m 351 439 l 351 507 q 344 534 351 526 q 314 542 336 542 l 289 542 l 289 688 l 364 688 q 499 646 458 688 q 540 533 540 604 l 540 439 l 351 439 m 351 181 l 351 247 l 540 247 l 540 154 q 499 41 540 82 q 364 0 458 0 l 289 0 l 289 146 l 314 146 q 344 154 336 146 q 351 181 351 163 m 217 732 l 343 931 l 543 931 l 372 732 l 217 732 z "},"č":{"ha":574,"x_min":32,"x_max":547,"o":"m 240 507 l 240 181 q 249 154 240 163 q 278 146 257 146 l 307 146 l 307 0 l 222 0 q 87 41 128 0 q 46 154 46 82 l 46 533 q 87 646 46 604 q 222 688 128 688 l 308 688 l 308 542 l 278 542 q 249 534 257 542 q 240 507 240 526 m 351 439 l 351 507 q 344 534 351 526 q 314 542 336 542 l 289 542 l 289 688 l 364 688 q 499 646 458 688 q 540 533 540 604 l 540 439 l 351 439 m 351 181 l 351 247 l 540 247 l 540 154 q 499 41 540 82 q 364 0 458 0 l 289 0 l 289 146 l 314 146 q 344 154 336 146 q 351 181 351 163 m 196 732 l 31 931 l 215 931 l 289 829 l 363 931 l 547 931 l 382 732 l 196 732 z "},"ç":{"ha":574,"x_min":46,"x_max":540,"o":"m 240 507 l 240 181 q 249 154 240 163 q 278 146 257 146 l 307 146 l 307 0 l 222 0 q 87 41 128 0 q 46 154 46 82 l 46 533 q 87 646 46 604 q 222 688 128 688 l 308 688 l 308 542 l 278 542 q 249 534 257 542 q 240 507 240 526 m 351 439 l 351 507 q 344 534 351 526 q 314 542 336 542 l 289 542 l 289 688 l 364 688 q 499 646 458 688 q 540 533 540 604 l 540 439 l 351 439 m 351 181 l 351 247 l 540 247 l 540 154 q 499 41 540 82 q 364 0 458 0 l 289 0 l 289 146 l 314 146 q 344 154 336 146 q 351 181 351 163 m 208 -150 l 208 -65 l 390 -65 l 390 -165 q 348 -281 390 -239 q 211 -322 306 -322 l 101 -322 l 101 -187 l 169 -187 q 199 -178 190 -187 q 208 -150 208 -168 z "},"d":{"ha":603,"x_min":46,"x_max":544,"o":"m 240 328 l 46 328 l 46 535 q 84 647 46 606 q 208 688 122 688 l 242 688 q 328 658 299 688 q 358 572 358 628 l 358 457 l 351 457 l 351 497 q 342 531 351 521 q 310 542 332 542 l 278 542 q 249 534 257 542 q 240 507 240 526 l 240 328 m 351 929 l 544 929 l 544 0 l 354 0 l 354 114 l 351 118 l 351 929 m 46 361 l 240 361 l 240 181 q 249 154 240 163 q 278 146 257 146 l 310 146 q 342 156 332 146 q 351 190 351 167 l 351 226 l 358 226 l 358 115 q 328 30 358 60 q 242 0 299 0 l 208 0 q 84 41 122 0 q 46 154 46 82 l 46 361 z "},"ď":{"ha":653,"x_min":46,"x_max":742,"o":"m 603 929 l 742 929 l 742 838 l 653 656 l 603 656 l 603 929 m 240 328 l 46 328 l 46 535 q 84 647 46 606 q 208 688 122 688 l 242 688 q 328 658 299 688 q 358 572 358 628 l 358 457 l 351 457 l 351 497 q 342 531 351 521 q 310 542 332 542 l 278 542 q 249 534 257 542 q 240 507 240 526 l 240 328 m 351 929 l 544 929 l 544 0 l 354 0 l 354 114 l 351 118 l 351 929 m 46 361 l 240 361 l 240 181 q 249 154 240 163 q 278 146 257 146 l 310 146 q 342 156 332 146 q 351 190 351 167 l 351 226 l 358 226 l 358 115 q 328 30 358 60 q 242 0 299 0 l 208 0 q 84 41 122 0 q 46 154 46 82 l 46 361 z "},"đ":{"ha":610,"x_min":53,"x_max":619,"o":"m 247 326 l 53 326 l 53 533 q 91 646 53 604 q 215 688 129 688 l 249 688 q 335 658 306 688 q 365 572 365 628 l 365 457 l 358 457 l 358 497 q 349 531 358 521 q 317 542 339 542 l 285 542 q 256 534 264 542 q 247 507 247 526 l 247 326 m 358 929 l 551 929 l 551 0 l 361 0 l 361 114 l 358 118 l 358 929 m 53 361 l 247 361 l 247 181 q 256 154 247 163 q 285 146 264 146 l 317 146 q 349 156 339 146 q 358 190 358 167 l 358 226 l 365 226 l 365 115 q 335 30 365 60 q 249 0 306 0 l 215 0 q 91 41 129 0 q 53 154 53 82 l 53 361 m 619 856 l 619 758 l 264 758 l 264 856 l 619 856 z "},"ı":{"ha":310,"x_min":57,"x_max":251,"o":"m 251 0 l 57 0 l 57 688 l 251 688 l 251 0 z "},"e":{"ha":596,"x_min":47,"x_max":557,"o":"m 233 514 l 233 172 q 242 147 233 154 q 271 139 250 139 l 308 139 l 308 0 l 224 0 q 88 41 129 0 q 47 154 47 82 l 47 533 q 88 646 47 604 q 224 688 129 688 l 311 688 l 311 549 l 271 549 q 242 541 250 549 q 233 514 233 533 m 371 317 l 371 514 q 363 541 371 533 q 335 549 356 549 l 300 549 l 300 688 l 381 688 q 516 646 475 688 q 557 533 557 604 l 557 317 l 371 317 m 369 175 l 369 221 l 556 221 l 556 154 q 515 41 556 82 q 379 0 474 0 l 300 0 l 300 139 l 333 139 q 362 147 354 139 q 369 175 369 156 m 557 404 l 557 290 l 100 290 l 100 404 l 557 404 z "},"é":{"ha":596,"x_min":47,"x_max":557,"o":"m 233 514 l 233 172 q 242 147 233 154 q 271 139 250 139 l 308 139 l 308 0 l 224 0 q 88 41 129 0 q 47 154 47 82 l 47 533 q 88 646 47 604 q 224 688 129 688 l 311 688 l 311 549 l 271 549 q 242 541 250 549 q 233 514 233 533 m 371 317 l 371 514 q 363 541 371 533 q 335 549 356 549 l 300 549 l 300 688 l 381 688 q 516 646 475 688 q 557 533 557 604 l 557 317 l 371 317 m 369 175 l 369 221 l 556 221 l 556 154 q 515 41 556 82 q 379 0 474 0 l 300 0 l 300 139 l 333 139 q 362 147 354 139 q 369 175 369 156 m 557 404 l 557 290 l 100 290 l 100 404 l 557 404 m 224 732 l 350 931 l 550 931 l 379 732 l 224 732 z "},"ě":{"ha":596,"x_min":46,"x_max":561,"o":"m 233 514 l 233 172 q 242 147 233 154 q 271 139 250 139 l 308 139 l 308 0 l 224 0 q 88 41 129 0 q 47 154 47 82 l 47 533 q 88 646 47 604 q 224 688 129 688 l 311 688 l 311 549 l 271 549 q 242 541 250 549 q 233 514 233 533 m 371 317 l 371 514 q 363 541 371 533 q 335 549 356 549 l 300 549 l 300 688 l 381 688 q 516 646 475 688 q 557 533 557 604 l 557 317 l 371 317 m 369 175 l 369 221 l 556 221 l 556 154 q 515 41 556 82 q 379 0 474 0 l 300 0 l 300 139 l 333 139 q 362 147 354 139 q 369 175 369 156 m 557 404 l 557 290 l 100 290 l 100 404 l 557 404 m 210 732 l 44 931 l 229 931 l 303 829 l 376 931 l 561 931 l 396 732 l 210 732 z "},"ê":{"ha":594,"x_min":47,"x_max":563,"o":"m 47 732 l 213 931 l 399 931 l 564 732 l 379 732 l 306 835 l 232 732 l 47 732 m 233 514 l 233 172 q 242 147 233 154 q 271 139 250 139 l 308 139 l 308 0 l 224 0 q 88 41 129 0 q 47 154 47 82 l 47 533 q 88 646 47 604 q 224 688 129 688 l 311 688 l 311 549 l 271 549 q 242 541 250 549 q 233 514 233 533 m 371 317 l 371 514 q 363 541 371 533 q 335 549 356 549 l 300 549 l 300 688 l 381 688 q 516 646 475 688 q 557 533 557 604 l 557 317 l 371 317 m 369 175 l 369 221 l 556 221 l 556 154 q 515 41 556 82 q 379 0 474 0 l 300 0 l 300 139 l 333 139 q 362 147 354 139 q 369 175 369 156 m 557 404 l 557 290 l 100 290 l 100 404 l 557 404 z "},"ë":{"ha":594,"x_min":47,"x_max":557,"o":"m 54 753 l 54 914 l 239 914 l 239 753 l 54 753 m 361 753 l 361 914 l 546 914 l 546 753 l 361 753 m 233 514 l 233 172 q 242 147 233 154 q 271 139 250 139 l 308 139 l 308 0 l 224 0 q 88 41 129 0 q 47 154 47 82 l 47 533 q 88 646 47 604 q 224 688 129 688 l 311 688 l 311 549 l 271 549 q 242 541 250 549 q 233 514 233 533 m 371 317 l 371 514 q 363 541 371 533 q 335 549 356 549 l 300 549 l 300 688 l 381 688 q 516 646 475 688 q 557 533 557 604 l 557 317 l 371 317 m 369 175 l 369 221 l 556 221 l 556 154 q 515 41 556 82 q 379 0 474 0 l 300 0 l 300 139 l 333 139 q 362 147 354 139 q 369 175 369 156 m 557 404 l 557 290 l 100 290 l 100 404 l 557 404 z "},"ė":{"ha":596,"x_min":47,"x_max":557,"o":"m 233 514 l 233 172 q 242 147 233 154 q 271 139 250 139 l 308 139 l 308 0 l 224 0 q 88 41 129 0 q 47 154 47 82 l 47 533 q 88 646 47 604 q 224 688 129 688 l 311 688 l 311 549 l 271 549 q 242 541 250 549 q 233 514 233 533 m 371 317 l 371 514 q 363 541 371 533 q 335 549 356 549 l 300 549 l 300 688 l 381 688 q 516 646 475 688 q 557 533 557 604 l 557 317 l 371 317 m 369 175 l 369 221 l 556 221 l 556 154 q 515 41 556 82 q 379 0 474 0 l 300 0 l 300 139 l 333 139 q 362 147 354 139 q 369 175 369 156 m 557 404 l 557 290 l 100 290 l 100 404 l 557 404 m 204 750 l 204 913 l 400 913 l 400 750 l 204 750 z "},"è":{"ha":596,"x_min":40,"x_max":557,"o":"m 233 514 l 233 172 q 242 147 233 154 q 271 139 250 139 l 308 139 l 308 0 l 224 0 q 88 41 129 0 q 47 154 47 82 l 47 533 q 88 646 47 604 q 224 688 129 688 l 311 688 l 311 549 l 271 549 q 242 541 250 549 q 233 514 233 533 m 371 317 l 371 514 q 363 541 371 533 q 335 549 356 549 l 300 549 l 300 688 l 381 688 q 516 646 475 688 q 557 533 557 604 l 557 317 l 371 317 m 369 175 l 369 221 l 556 221 l 556 154 q 515 41 556 82 q 379 0 474 0 l 300 0 l 300 139 l 333 139 q 362 147 354 139 q 369 175 369 156 m 557 404 l 557 290 l 100 290 l 100 404 l 557 404 m 240 931 l 367 732 l 211 732 l 40 931 l 240 931 z "},"ē":{"ha":596,"x_min":47,"x_max":557,"o":"m 233 514 l 233 172 q 242 147 233 154 q 271 139 250 139 l 308 139 l 308 0 l 224 0 q 88 41 129 0 q 47 154 47 82 l 47 533 q 88 646 47 604 q 224 688 129 688 l 311 688 l 311 549 l 271 549 q 242 541 250 549 q 233 514 233 533 m 371 317 l 371 514 q 363 541 371 533 q 335 549 356 549 l 300 549 l 300 688 l 381 688 q 516 646 475 688 q 557 533 557 604 l 557 317 l 371 317 m 369 175 l 369 221 l 556 221 l 556 154 q 515 41 556 82 q 379 0 474 0 l 300 0 l 300 139 l 333 139 q 362 147 354 139 q 369 175 369 156 m 557 404 l 557 290 l 100 290 l 100 404 l 557 404 m 60 769 l 60 896 l 536 896 l 536 769 l 60 769 z "},"ę":{"ha":596,"x_min":47,"x_max":557,"o":"m 233 514 l 233 172 q 242 147 233 154 q 271 139 250 139 l 308 139 l 308 0 l 224 0 q 88 41 129 0 q 47 154 47 82 l 47 533 q 88 646 47 604 q 224 688 129 688 l 311 688 l 311 549 l 271 549 q 242 541 250 549 q 233 514 233 533 m 371 317 l 371 514 q 363 541 371 533 q 335 549 356 549 l 300 549 l 300 688 l 381 688 q 516 646 475 688 q 557 533 557 604 l 557 317 l 371 317 m 369 175 l 369 221 l 556 221 l 556 154 q 515 41 556 82 q 379 0 474 0 l 300 0 l 300 139 l 333 139 q 362 147 354 139 q 369 175 369 156 m 557 404 l 557 290 l 100 290 l 100 404 l 557 404 m 104 -161 q 136 -62 104 -99 q 250 -26 168 -26 l 375 -26 l 375 -143 l 279 -143 q 252 -150 260 -143 q 244 -174 244 -157 l 244 -208 q 252 -231 244 -225 q 279 -237 260 -237 l 400 -237 l 400 -354 l 250 -354 q 136 -319 168 -354 q 104 -219 104 -283 l 104 -161 m 375 -33 l 258 -33 l 258 19 l 375 19 l 375 -33 z "},"ð":{"ha":625,"x_min":46,"x_max":568,"o":"m 240 181 q 249 154 240 163 q 278 146 257 146 l 314 146 l 314 0 l 222 0 q 87 41 128 0 q 46 154 46 82 l 46 433 q 87 546 46 504 q 222 588 128 588 l 426 588 l 426 451 l 278 451 q 249 444 257 451 q 240 417 240 436 l 240 181 m 376 425 q 356 560 376 497 q 303 673 336 622 q 231 765 269 724 q 157 835 193 806 q 94 883 121 864 l 363 883 q 425 820 390 860 q 492 724 460 781 q 547 592 525 667 q 568 428 568 518 l 568 154 q 528 41 568 82 q 392 0 488 0 l 301 0 l 301 146 l 340 146 q 369 154 361 146 q 376 181 376 163 l 376 425 m 140 646 l 140 747 l 536 874 l 536 772 l 140 646 z "},"f":{"ha":388,"x_min":13,"x_max":381,"o":"m 275 751 l 275 0 l 82 0 l 82 775 q 122 888 82 847 q 257 929 163 929 l 381 929 l 381 786 l 313 786 q 283 778 292 786 q 275 751 275 771 m 381 688 l 381 542 l 13 542 l 13 688 l 381 688 z "},"g":{"ha":603,"x_min":46,"x_max":544,"o":"m 46 361 l 240 361 l 240 210 q 249 183 240 192 q 278 175 257 175 l 310 175 q 342 185 332 175 q 351 219 351 196 l 351 256 l 358 256 l 358 144 q 328 59 358 89 q 242 29 299 29 l 208 29 q 84 70 122 29 q 46 183 46 111 l 46 361 m 240 326 l 46 326 l 46 533 q 84 646 46 604 q 208 688 122 688 l 242 688 q 328 658 299 688 q 358 572 358 628 l 358 457 l 351 457 l 351 497 q 342 531 351 521 q 310 542 332 542 l 278 542 q 249 534 257 542 q 240 507 240 526 l 240 326 m 351 -8 l 351 44 l 544 44 l 544 -31 q 504 -143 544 -101 q 369 -185 464 -185 l 75 -185 l 75 -43 l 314 -43 q 343 -35 335 -43 q 351 -8 351 -28 m 544 28 l 351 28 l 351 572 l 354 574 l 354 688 l 544 688 l 544 28 z "},"ğ":{"ha":603,"x_min":46,"x_max":547,"o":"m 46 361 l 240 361 l 240 210 q 249 183 240 192 q 278 175 257 175 l 310 175 q 342 185 332 175 q 351 219 351 196 l 351 256 l 358 256 l 358 144 q 328 59 358 89 q 242 29 299 29 l 208 29 q 84 70 122 29 q 46 183 46 111 l 46 361 m 240 326 l 46 326 l 46 533 q 84 646 46 604 q 208 688 122 688 l 242 688 q 328 658 299 688 q 358 572 358 628 l 358 457 l 351 457 l 351 497 q 342 531 351 521 q 310 542 332 542 l 278 542 q 249 534 257 542 q 240 507 240 526 l 240 326 m 351 -8 l 351 44 l 544 44 l 544 -31 q 504 -143 544 -101 q 369 -185 464 -185 l 75 -185 l 75 -43 l 314 -43 q 343 -35 335 -43 q 351 -8 351 -28 m 544 28 l 351 28 l 351 572 l 354 574 l 354 688 l 544 688 l 544 28 m 374 931 l 547 931 l 547 886 q 506 774 547 815 q 371 732 465 732 l 290 732 l 290 849 l 336 849 q 365 856 357 849 q 374 882 374 864 l 374 931 m 56 931 l 229 931 l 229 882 q 238 856 229 864 q 267 849 246 849 l 314 849 l 314 732 l 232 732 q 97 774 138 732 q 56 886 56 815 l 56 931 z "},"ģ":{"ha":603,"x_min":46,"x_max":544,"o":"m 414 732 l 218 732 l 218 832 l 351 1044 l 414 1044 l 414 732 m 46 361 l 240 361 l 240 210 q 249 183 240 192 q 278 175 257 175 l 310 175 q 342 185 332 175 q 351 219 351 196 l 351 256 l 358 256 l 358 144 q 328 59 358 89 q 242 29 299 29 l 208 29 q 84 70 122 29 q 46 183 46 111 l 46 361 m 240 326 l 46 326 l 46 533 q 84 646 46 604 q 208 688 122 688 l 242 688 q 328 658 299 688 q 358 572 358 628 l 358 457 l 351 457 l 351 497 q 342 531 351 521 q 310 542 332 542 l 278 542 q 249 534 257 542 q 240 507 240 526 l 240 326 m 351 -8 l 351 44 l 544 44 l 544 -31 q 504 -143 544 -101 q 369 -185 464 -185 l 75 -185 l 75 -43 l 314 -43 q 343 -35 335 -43 q 351 -8 351 -28 m 544 28 l 351 28 l 351 572 l 354 574 l 354 688 l 544 688 l 544 28 z "},"ß":{"ha":835,"x_min":63,"x_max":808,"o":"m 332 221 l 525 221 l 525 171 q 532 145 525 153 q 557 136 539 138 l 578 136 q 608 144 600 136 q 615 171 615 151 l 615 247 q 608 274 615 267 q 578 282 600 282 l 501 282 q 372 323 407 282 q 336 435 336 364 l 336 483 q 375 590 336 556 q 500 625 414 625 q 531 633 524 625 q 538 657 538 640 l 538 688 q 531 715 538 707 q 504 722 525 722 l 299 722 q 269 715 278 722 q 261 688 261 707 l 261 0 l 63 0 l 63 717 q 99 828 63 788 q 229 869 135 869 l 578 869 q 706 831 667 869 q 746 724 746 792 l 746 635 q 733 562 746 590 q 688 519 721 533 q 593 506 656 506 l 563 506 q 533 498 542 506 q 525 472 525 490 l 525 446 q 533 420 525 428 q 563 413 542 413 l 633 413 q 768 371 728 413 q 808 258 808 329 l 808 154 q 773 41 808 82 q 643 0 738 0 l 500 0 q 371 42 410 1 q 332 154 332 83 l 332 221 z "},"h":{"ha":610,"x_min":57,"x_max":557,"o":"m 557 0 l 363 0 l 363 507 q 354 534 363 526 q 325 542 346 542 l 292 542 q 262 531 272 542 q 251 497 251 521 l 251 458 l 244 458 l 244 572 q 274 658 244 628 q 360 688 304 688 l 394 688 q 519 646 481 688 q 557 533 557 604 l 557 0 m 251 0 l 57 0 l 57 929 l 251 929 l 251 0 z "},"i":{"ha":310,"x_min":54,"x_max":256,"o":"m 251 0 l 57 0 l 57 688 l 251 688 l 251 0 m 54 779 l 54 929 l 256 929 l 256 779 l 54 779 z "},"í":{"ha":310,"x_min":57,"x_max":397,"o":"m 251 0 l 57 0 l 57 688 l 251 688 l 251 0 m 71 732 l 199 931 l 397 931 l 228 732 l 71 732 z "},"î":{"ha":310,"x_min":-104,"x_max":411,"o":"m 251 0 l 57 0 l 57 688 l 251 688 l 251 0 m -104 732 l 60 931 l 246 931 l 411 732 l 226 732 l 153 835 l 79 732 l -104 732 z "},"ï":{"ha":310,"x_min":-93,"x_max":397,"o":"m 251 0 l 57 0 l 57 688 l 251 688 l 251 0 m -93 753 l -93 914 l 90 914 l 90 753 l -93 753 m 213 753 l 213 914 l 397 914 l 397 753 l 213 753 z "},"ì":{"ha":310,"x_min":-90,"x_max":251,"o":"m 251 0 l 57 0 l 57 688 l 251 688 l 251 0 m 108 931 l 236 732 l 79 732 l -90 931 l 108 931 z "},"ī":{"ha":310,"x_min":-83,"x_max":393,"o":"m 251 0 l 57 0 l 57 688 l 251 688 l 251 0 m -83 769 l -83 896 l 393 896 l 393 769 l -83 769 z "},"į":{"ha":310,"x_min":-18,"x_max":276,"o":"m 251 0 l 57 0 l 57 688 l 251 688 l 251 0 m 54 779 l 54 929 l 256 929 l 256 779 l 54 779 m -18 -161 q 14 -62 -18 -99 q 128 -26 46 -26 l 253 -26 l 253 -143 l 157 -143 q 130 -150 138 -143 q 122 -174 122 -157 l 122 -208 q 130 -231 122 -225 q 157 -237 138 -237 l 278 -237 l 278 -354 l 128 -354 q 14 -319 46 -354 q -18 -219 -18 -283 l -18 -161 m 253 -33 l 136 -33 l 136 19 l 253 19 l 253 -33 z "},"j":{"ha":310,"x_min":-18,"x_max":256,"o":"m 57 -8 l 57 688 l 251 688 l 251 -31 q 211 -143 251 -101 q 76 -185 171 -185 l -18 -185 l -18 -43 l 21 -43 q 49 -35 42 -43 q 57 -8 57 -28 m 54 779 l 54 929 l 256 929 l 256 779 l 54 779 z "},"k":{"ha":597,"x_min":57,"x_max":600,"o":"m 251 0 l 57 0 l 57 929 l 251 929 l 251 0 m 253 353 l 449 353 l 600 0 l 397 0 l 253 353 m 449 353 l 253 353 l 399 688 l 600 688 l 449 353 z "},"ķ":{"ha":597,"x_min":57,"x_max":600,"o":"m 251 0 l 57 0 l 57 929 l 251 929 l 251 0 m 253 353 l 449 353 l 600 0 l 397 0 l 253 353 m 449 353 l 253 353 l 399 688 l 600 688 l 449 353 m 214 -65 l 410 -65 l 410 -167 l 275 -379 l 214 -379 l 214 -65 z "},"l":{"ha":310,"x_min":57,"x_max":251,"o":"m 251 0 l 57 0 l 57 929 l 251 929 l 251 0 z "},"ĺ":{"ha":310,"x_min":57,"x_max":401,"o":"m 251 0 l 57 0 l 57 929 l 251 929 l 251 0 m 75 974 l 201 1172 l 401 1172 l 231 974 l 75 974 z "},"ľ":{"ha":369,"x_min":57,"x_max":449,"o":"m 310 929 l 449 929 l 449 838 l 360 656 l 310 656 l 310 929 m 251 0 l 57 0 l 57 929 l 251 929 l 251 0 z "},"ļ":{"ha":310,"x_min":57,"x_max":253,"o":"m 251 0 l 57 0 l 57 929 l 251 929 l 251 0 m 57 -65 l 253 -65 l 253 -167 l 118 -379 l 57 -379 l 57 -65 z "},"ł":{"ha":324,"x_min":-65,"x_max":397,"o":"m 397 699 l 397 563 l -65 342 l -65 478 l 397 699 m 258 0 l 64 0 l 64 929 l 258 929 l 258 0 z "},"m":{"ha":913,"x_min":57,"x_max":861,"o":"m 557 0 l 363 0 l 363 507 q 354 534 363 526 q 325 542 346 542 l 292 542 q 262 531 272 542 q 251 497 251 521 l 251 457 l 244 457 l 244 572 q 274 658 244 628 q 360 688 304 688 l 394 688 q 519 646 481 688 q 557 533 557 604 l 557 0 m 251 0 l 57 0 l 57 688 l 249 688 l 249 574 l 251 571 l 251 0 m 861 0 l 668 0 l 668 507 q 660 534 668 526 q 631 542 651 542 l 597 542 q 567 531 576 542 q 557 497 557 521 l 557 457 l 547 457 l 539 569 q 572 656 536 624 q 665 688 608 688 l 700 688 q 823 646 785 688 q 861 533 861 604 l 861 0 z "},"n":{"ha":610,"x_min":57,"x_max":557,"o":"m 251 0 l 57 0 l 57 688 l 249 688 l 249 574 l 251 571 l 251 0 m 557 0 l 363 0 l 363 507 q 354 534 363 526 q 325 542 346 542 l 292 542 q 262 531 272 542 q 251 497 251 521 l 251 457 l 244 457 l 244 572 q 274 658 244 628 q 360 688 304 688 l 394 688 q 519 646 481 688 q 557 533 557 604 l 557 0 z "},"ń":{"ha":610,"x_min":57,"x_max":557,"o":"m 251 0 l 57 0 l 57 688 l 249 688 l 249 574 l 251 571 l 251 0 m 557 0 l 363 0 l 363 507 q 354 534 363 526 q 325 542 346 542 l 292 542 q 262 531 272 542 q 251 497 251 521 l 251 457 l 244 457 l 244 572 q 274 658 244 628 q 360 688 304 688 l 394 688 q 519 646 481 688 q 557 533 557 604 l 557 0 m 208 732 l 335 931 l 535 931 l 364 732 l 208 732 z "},"ň":{"ha":610,"x_min":35,"x_max":557,"o":"m 251 0 l 57 0 l 57 688 l 249 688 l 249 574 l 251 571 l 251 0 m 557 0 l 363 0 l 363 507 q 354 534 363 526 q 325 542 346 542 l 292 542 q 262 531 272 542 q 251 497 251 521 l 251 457 l 244 457 l 244 572 q 274 658 244 628 q 360 688 304 688 l 394 688 q 519 646 481 688 q 557 533 557 604 l 557 0 m 200 732 l 35 931 l 219 931 l 293 829 l 367 931 l 551 931 l 386 732 l 200 732 z "},"ņ":{"ha":610,"x_min":57,"x_max":557,"o":"m 251 0 l 57 0 l 57 688 l 249 688 l 249 574 l 251 571 l 251 0 m 557 0 l 363 0 l 363 507 q 354 534 363 526 q 325 542 346 542 l 292 542 q 262 531 272 542 q 251 497 251 521 l 251 457 l 244 457 l 244 572 q 274 658 244 628 q 360 688 304 688 l 394 688 q 519 646 481 688 q 557 533 557 604 l 557 0 m 208 -65 l 404 -65 l 404 -167 l 271 -379 l 208 -379 l 208 -65 z "},"ñ":{"ha":610,"x_min":50,"x_max":557,"o":"m 251 0 l 57 0 l 57 688 l 249 688 l 249 574 l 251 571 l 251 0 m 557 0 l 363 0 l 363 507 q 354 534 363 526 q 325 542 346 542 l 292 542 q 262 531 272 542 q 251 497 251 521 l 251 457 l 244 457 l 244 572 q 274 658 244 628 q 360 688 304 688 l 394 688 q 519 646 481 688 q 557 533 557 604 l 557 0 m 390 740 q 324 756 354 740 q 272 789 294 772 q 232 806 249 806 q 208 775 208 806 l 208 740 l 51 740 l 51 799 q 78 890 51 857 q 178 924 106 924 l 199 924 q 265 907 235 924 q 317 874 294 890 q 354 858 340 858 q 374 865 368 858 q 381 889 381 872 l 381 924 l 538 924 l 538 858 q 510 771 538 801 q 410 740 482 740 l 390 740 z "},"o":{"ha":610,"x_min":50,"x_max":558,"o":"m 368 283 l 368 514 q 360 540 368 532 q 331 547 351 547 l 301 547 l 301 688 l 388 688 q 520 646 482 688 q 558 533 558 604 l 558 283 l 368 283 m 368 174 l 368 317 l 558 317 l 558 154 q 520 41 558 82 q 388 0 482 0 l 299 0 l 299 139 l 331 139 q 360 147 351 139 q 368 174 368 156 m 242 514 l 242 283 l 50 283 l 50 533 q 89 646 50 604 q 222 688 128 688 l 307 688 l 307 547 l 279 547 q 250 540 258 547 q 242 514 242 532 m 242 321 l 242 174 q 250 147 242 156 q 279 139 258 139 l 306 139 l 306 0 l 222 0 q 89 41 128 0 q 50 154 50 82 l 50 321 l 242 321 z "},"ó":{"ha":610,"x_min":50,"x_max":558,"o":"m 368 283 l 368 514 q 360 540 368 532 q 331 547 351 547 l 301 547 l 301 688 l 388 688 q 520 646 482 688 q 558 533 558 604 l 558 283 l 368 283 m 368 174 l 368 317 l 558 317 l 558 154 q 520 41 558 82 q 388 0 482 0 l 299 0 l 299 139 l 331 139 q 360 147 351 139 q 368 174 368 156 m 242 514 l 242 283 l 50 283 l 50 533 q 89 646 50 604 q 222 688 128 688 l 307 688 l 307 547 l 279 547 q 250 540 258 547 q 242 514 242 532 m 242 321 l 242 174 q 250 147 242 156 q 279 139 258 139 l 306 139 l 306 0 l 222 0 q 89 41 128 0 q 50 154 50 82 l 50 321 l 242 321 m 232 732 l 358 931 l 558 931 l 388 732 l 232 732 z "},"ô":{"ha":610,"x_min":46,"x_max":563,"o":"m 368 283 l 368 514 q 360 540 368 532 q 331 547 351 547 l 301 547 l 301 688 l 388 688 q 520 646 482 688 q 558 533 558 604 l 558 283 l 368 283 m 368 174 l 368 317 l 558 317 l 558 154 q 520 41 558 82 q 388 0 482 0 l 299 0 l 299 139 l 331 139 q 360 147 351 139 q 368 174 368 156 m 242 514 l 242 283 l 50 283 l 50 533 q 89 646 50 604 q 222 688 128 688 l 307 688 l 307 547 l 279 547 q 250 540 258 547 q 242 514 242 532 m 242 321 l 242 174 q 250 147 242 156 q 279 139 258 139 l 306 139 l 306 0 l 222 0 q 89 41 128 0 q 50 154 50 82 l 50 321 l 242 321 m 46 732 l 211 931 l 397 931 l 563 732 l 378 732 l 304 835 l 231 732 l 46 732 z "},"ö":{"ha":610,"x_min":50,"x_max":558,"o":"m 58 753 l 58 914 l 243 914 l 243 753 l 58 753 m 365 753 l 365 914 l 550 914 l 550 753 l 365 753 m 368 283 l 368 514 q 360 540 368 532 q 331 547 351 547 l 301 547 l 301 688 l 388 688 q 520 646 482 688 q 558 533 558 604 l 558 283 l 368 283 m 368 174 l 368 317 l 558 317 l 558 154 q 520 41 558 82 q 388 0 482 0 l 299 0 l 299 139 l 331 139 q 360 147 351 139 q 368 174 368 156 m 242 514 l 242 283 l 50 283 l 50 533 q 89 646 50 604 q 222 688 128 688 l 307 688 l 307 547 l 279 547 q 250 540 258 547 q 242 514 242 532 m 242 321 l 242 174 q 250 147 242 156 q 279 139 258 139 l 306 139 l 306 0 l 222 0 q 89 41 128 0 q 50 154 50 82 l 50 321 l 242 321 z "},"œ":{"ha":1026,"x_min":53,"x_max":867,"o":"m 215 0 q 91 41 129 0 q 53 154 53 82 l 53 533 q 91 646 53 604 q 215 688 129 688 l 311 688 q 393 668 356 688 q 446 617 431 649 q 499 668 463 649 q 596 688 536 688 l 690 688 q 826 646 785 688 q 867 533 867 604 l 867 308 l 678 308 l 678 511 q 669 538 678 531 q 640 546 661 546 l 585 546 q 556 538 564 546 q 547 511 547 531 l 547 175 q 556 149 547 157 q 585 142 564 142 l 639 142 q 668 149 660 142 q 676 175 676 157 l 676 218 l 865 218 l 865 154 q 824 41 865 82 q 689 0 783 0 l 594 0 q 498 20 535 0 q 444 71 461 40 q 392 20 429 40 q 310 0 354 0 l 215 0 m 247 507 l 247 181 q 256 154 247 163 q 285 146 264 146 l 317 146 q 347 156 338 146 q 358 188 357 165 l 358 500 q 317 542 357 542 l 285 542 q 256 534 264 542 q 247 507 247 526 m 867 407 l 867 286 l 410 286 l 410 407 l 867 407 z "},"ò":{"ha":610,"x_min":50,"x_max":558,"o":"m 368 283 l 368 514 q 360 540 368 532 q 331 547 351 547 l 301 547 l 301 688 l 388 688 q 520 646 482 688 q 558 533 558 604 l 558 283 l 368 283 m 368 174 l 368 317 l 558 317 l 558 154 q 520 41 558 82 q 388 0 482 0 l 299 0 l 299 139 l 331 139 q 360 147 351 139 q 368 174 368 156 m 242 514 l 242 283 l 50 283 l 50 533 q 89 646 50 604 q 222 688 128 688 l 307 688 l 307 547 l 279 547 q 250 540 258 547 q 242 514 242 532 m 242 321 l 242 174 q 250 147 242 156 q 279 139 258 139 l 306 139 l 306 0 l 222 0 q 89 41 128 0 q 50 154 50 82 l 50 321 l 242 321 m 250 931 l 376 732 l 221 732 l 50 931 l 250 931 z "},"ő":{"ha":610,"x_min":50,"x_max":647,"o":"m 346 732 l 474 931 l 647 931 l 476 732 l 346 732 m 119 732 l 247 931 l 421 931 l 250 732 l 119 732 m 368 283 l 368 514 q 360 540 368 532 q 331 547 351 547 l 301 547 l 301 688 l 388 688 q 520 646 482 688 q 558 533 558 604 l 558 283 l 368 283 m 368 174 l 368 317 l 558 317 l 558 154 q 520 41 558 82 q 388 0 482 0 l 299 0 l 299 139 l 331 139 q 360 147 351 139 q 368 174 368 156 m 242 514 l 242 283 l 50 283 l 50 533 q 89 646 50 604 q 222 688 128 688 l 307 688 l 307 547 l 279 547 q 250 540 258 547 q 242 514 242 532 m 242 321 l 242 174 q 250 147 242 156 q 279 139 258 139 l 306 139 l 306 0 l 222 0 q 89 41 128 0 q 50 154 50 82 l 50 321 l 242 321 z "},"ō":{"ha":610,"x_min":50,"x_max":558,"o":"m 368 283 l 368 514 q 360 540 368 532 q 331 547 351 547 l 301 547 l 301 688 l 388 688 q 520 646 482 688 q 558 533 558 604 l 558 283 l 368 283 m 368 174 l 368 317 l 558 317 l 558 154 q 520 41 558 82 q 388 0 482 0 l 299 0 l 299 139 l 331 139 q 360 147 351 139 q 368 174 368 156 m 242 514 l 242 283 l 50 283 l 50 533 q 89 646 50 604 q 222 688 128 688 l 307 688 l 307 547 l 279 547 q 250 540 258 547 q 242 514 242 532 m 242 321 l 242 174 q 250 147 242 156 q 279 139 258 139 l 306 139 l 306 0 l 222 0 q 89 41 128 0 q 50 154 50 82 l 50 321 l 242 321 m 58 769 l 58 896 l 535 896 l 535 769 l 58 769 z "},"ø":{"ha":614,"x_min":43,"x_max":572,"o":"m 561 533 l 561 154 q 523 41 561 82 q 390 0 485 0 l 224 0 q 91 41 129 0 q 53 154 53 82 l 53 533 q 91 646 53 604 q 224 688 129 688 l 390 688 q 523 646 485 688 q 561 533 561 604 m 376 167 l 376 521 q 368 547 376 539 q 338 556 360 556 l 275 556 q 246 547 254 556 q 238 521 238 539 l 238 167 q 246 140 238 147 q 275 132 254 132 l 338 132 q 368 140 360 132 q 376 167 376 147 m 479 715 l 572 715 l 135 -28 l 43 -28 l 479 715 z "},"õ":{"ha":610,"x_min":50,"x_max":558,"o":"m 368 283 l 368 514 q 360 540 368 532 q 331 547 351 547 l 301 547 l 301 688 l 388 688 q 520 646 482 688 q 558 533 558 604 l 558 283 l 368 283 m 368 174 l 368 317 l 558 317 l 558 154 q 520 41 558 82 q 388 0 482 0 l 299 0 l 299 139 l 331 139 q 360 147 351 139 q 368 174 368 156 m 242 514 l 242 283 l 50 283 l 50 533 q 89 646 50 604 q 222 688 128 688 l 307 688 l 307 547 l 279 547 q 250 540 258 547 q 242 514 242 532 m 242 321 l 242 174 q 250 147 242 156 q 279 139 258 139 l 306 139 l 306 0 l 222 0 q 89 41 128 0 q 50 154 50 82 l 50 321 l 242 321 m 394 740 q 328 756 358 740 q 276 789 299 772 q 236 806 253 806 q 213 775 213 806 l 213 740 l 56 740 l 56 799 q 83 890 56 857 q 182 924 110 924 l 203 924 q 269 907 239 924 q 322 874 299 890 q 358 858 344 858 q 378 865 372 858 q 385 889 385 872 l 385 924 l 542 924 l 542 858 q 514 771 542 801 q 414 740 486 740 l 394 740 z "},"p":{"ha":603,"x_min":57,"x_max":557,"o":"m 557 326 l 363 326 l 363 507 q 354 534 363 526 q 325 542 346 542 l 292 542 q 262 531 272 542 q 251 497 251 521 l 251 457 l 244 457 l 244 572 q 274 658 244 628 q 360 688 304 688 l 394 688 q 519 646 481 688 q 557 533 557 604 l 557 326 m 251 -185 l 57 -185 l 57 688 l 249 688 l 249 575 l 251 569 l 251 -185 m 363 361 l 557 361 l 557 154 q 519 41 557 82 q 394 0 481 0 l 360 0 q 274 30 304 0 q 244 115 244 60 l 244 226 l 251 226 l 251 190 q 262 156 251 167 q 292 146 272 146 l 325 146 q 354 154 346 146 q 363 181 363 163 l 363 361 z "},"q":{"ha":603,"x_min":46,"x_max":544,"o":"m 240 326 l 46 326 l 46 533 q 84 646 46 604 q 208 688 122 688 l 242 688 q 328 658 299 688 q 358 572 358 628 l 358 457 l 351 457 l 351 497 q 342 531 351 521 q 310 542 332 542 l 278 542 q 249 534 257 542 q 240 507 240 526 l 240 326 m 544 -185 l 351 -185 l 351 569 l 354 575 l 354 688 l 544 688 l 544 -185 m 46 361 l 240 361 l 240 181 q 249 154 240 163 q 278 146 257 146 l 310 146 q 342 156 332 146 q 351 190 351 167 l 351 226 l 358 226 l 358 115 q 328 30 358 60 q 242 0 299 0 l 208 0 q 84 41 122 0 q 46 154 46 82 l 46 361 z "},"r":{"ha":414,"x_min":57,"x_max":407,"o":"m 407 692 l 407 524 l 339 524 q 251 426 251 524 l 251 392 l 244 392 l 244 550 q 260 622 244 590 q 308 673 276 654 q 383 692 339 692 l 407 692 m 251 0 l 57 0 l 57 688 l 249 688 l 249 540 l 251 557 l 251 0 z "},"ŕ":{"ha":414,"x_min":57,"x_max":481,"o":"m 407 692 l 407 524 l 339 524 q 251 426 251 524 l 251 392 l 244 392 l 244 550 q 260 622 244 590 q 308 673 276 654 q 383 692 339 692 l 407 692 m 251 0 l 57 0 l 57 688 l 249 688 l 249 540 l 251 557 l 251 0 m 154 732 l 281 931 l 481 931 l 310 732 l 154 732 z "},"ř":{"ha":414,"x_min":-26,"x_max":489,"o":"m 407 692 l 407 524 l 339 524 q 251 426 251 524 l 251 392 l 244 392 l 244 550 q 260 622 244 590 q 308 673 276 654 q 383 692 339 692 l 407 692 m 251 0 l 57 0 l 57 688 l 249 688 l 249 540 l 251 557 l 251 0 m 139 732 l -26 931 l 158 931 l 232 829 l 306 931 l 490 931 l 325 732 l 139 732 z "},"ŗ":{"ha":414,"x_min":57,"x_max":407,"o":"m 407 692 l 407 524 l 339 524 q 251 426 251 524 l 251 392 l 244 392 l 244 550 q 260 622 244 590 q 308 673 276 654 q 383 692 339 692 l 407 692 m 251 0 l 57 0 l 57 688 l 249 688 l 249 540 l 251 557 l 251 0 m 57 -65 l 253 -65 l 253 -167 l 119 -379 l 57 -379 l 57 -65 z "},"s":{"ha":557,"x_min":39,"x_max":518,"o":"m 329 165 l 329 243 q 321 269 329 261 q 292 276 313 276 l 213 276 q 78 317 118 276 q 39 429 39 358 l 39 533 q 80 646 39 604 q 215 688 121 688 l 333 688 q 469 646 428 688 q 510 533 510 604 l 510 472 l 324 472 l 324 522 q 315 548 324 540 q 286 556 307 556 l 265 556 q 236 548 244 556 q 228 522 228 540 l 228 439 q 236 413 228 421 q 265 406 244 406 l 344 406 q 478 365 439 406 q 518 254 518 325 l 518 154 q 477 41 518 82 q 342 0 436 0 l 218 0 q 83 41 124 0 q 43 154 43 82 l 43 214 l 232 214 l 232 165 q 240 139 232 147 q 268 131 249 131 l 292 131 q 321 139 313 131 q 329 165 329 147 z "},"ś":{"ha":557,"x_min":39,"x_max":536,"o":"m 329 165 l 329 243 q 321 269 329 261 q 292 276 313 276 l 213 276 q 78 317 118 276 q 39 429 39 358 l 39 533 q 80 646 39 604 q 215 688 121 688 l 333 688 q 469 646 428 688 q 510 533 510 604 l 510 472 l 324 472 l 324 522 q 315 548 324 540 q 286 556 307 556 l 265 556 q 236 548 244 556 q 228 522 228 540 l 228 439 q 236 413 228 421 q 265 406 244 406 l 344 406 q 478 365 439 406 q 518 254 518 325 l 518 154 q 477 41 518 82 q 342 0 436 0 l 218 0 q 83 41 124 0 q 43 154 43 82 l 43 214 l 232 214 l 232 165 q 240 139 232 147 q 268 131 249 131 l 292 131 q 321 139 313 131 q 329 165 329 147 m 210 732 l 336 931 l 536 931 l 365 732 l 210 732 z "},"š":{"ha":557,"x_min":19,"x_max":535,"o":"m 329 165 l 329 243 q 321 269 329 261 q 292 276 313 276 l 213 276 q 78 317 118 276 q 39 429 39 358 l 39 533 q 80 646 39 604 q 215 688 121 688 l 333 688 q 469 646 428 688 q 510 533 510 604 l 510 472 l 324 472 l 324 522 q 315 548 324 540 q 286 556 307 556 l 265 556 q 236 548 244 556 q 228 522 228 540 l 228 439 q 236 413 228 421 q 265 406 244 406 l 344 406 q 478 365 439 406 q 518 254 518 325 l 518 154 q 477 41 518 82 q 342 0 436 0 l 218 0 q 83 41 124 0 q 43 154 43 82 l 43 214 l 232 214 l 232 165 q 240 139 232 147 q 268 131 249 131 l 292 131 q 321 139 313 131 q 329 165 329 147 m 185 732 l 19 931 l 204 931 l 278 829 l 351 931 l 536 931 l 371 732 l 185 732 z "},"ş":{"ha":557,"x_min":39,"x_max":518,"o":"m 329 165 l 329 243 q 321 269 329 261 q 292 276 313 276 l 213 276 q 78 317 118 276 q 39 429 39 358 l 39 533 q 80 646 39 604 q 215 688 121 688 l 333 688 q 469 646 428 688 q 510 533 510 604 l 510 472 l 324 472 l 324 522 q 315 548 324 540 q 286 556 307 556 l 265 556 q 236 548 244 556 q 228 522 228 540 l 228 439 q 236 413 228 421 q 265 406 244 406 l 344 406 q 478 365 439 406 q 518 254 518 325 l 518 154 q 477 41 518 82 q 342 0 436 0 l 218 0 q 83 41 124 0 q 43 154 43 82 l 43 214 l 232 214 l 232 165 q 240 139 232 147 q 268 131 249 131 l 292 131 q 321 139 313 131 q 329 165 329 147 m 179 -65 l 375 -65 l 375 -167 l 242 -379 l 179 -379 l 179 -65 z "},"ș":{"ha":557,"x_min":39,"x_max":518,"o":"m 329 165 l 329 243 q 321 269 329 261 q 292 276 313 276 l 213 276 q 78 317 118 276 q 39 429 39 358 l 39 533 q 80 646 39 604 q 215 688 121 688 l 333 688 q 469 646 428 688 q 510 533 510 604 l 510 472 l 324 472 l 324 522 q 315 548 324 540 q 286 556 307 556 l 265 556 q 236 548 244 556 q 228 522 228 540 l 228 439 q 236 413 228 421 q 265 406 244 406 l 344 406 q 478 365 439 406 q 518 254 518 325 l 518 154 q 477 41 518 82 q 342 0 436 0 l 218 0 q 83 41 124 0 q 43 154 43 82 l 43 214 l 232 214 l 232 165 q 240 139 232 147 q 268 131 249 131 l 292 131 q 321 139 313 131 q 329 165 329 147 m 176 -65 l 372 -65 l 372 -167 l 239 -379 l 176 -379 l 176 -65 z "},"t":{"ha":376,"x_min":7,"x_max":363,"o":"m 274 815 l 274 182 q 282 156 274 164 q 310 149 290 149 l 363 149 l 363 0 l 254 0 q 119 41 160 0 q 79 154 79 82 l 79 815 l 274 815 m 363 688 l 363 542 l 7 542 l 7 688 l 363 688 z "},"ť":{"ha":376,"x_min":7,"x_max":478,"o":"m 332 983 l 478 983 l 478 892 l 382 736 l 332 736 l 332 983 m 274 815 l 274 182 q 282 156 274 164 q 310 149 290 149 l 363 149 l 363 0 l 254 0 q 119 41 160 0 q 79 154 79 82 l 79 815 l 274 815 m 363 688 l 363 542 l 7 542 l 7 688 l 363 688 z "},"ţ":{"ha":536,"x_min":7,"x_max":529,"o":"m 168 825 l 367 825 l 367 0 l 168 0 l 168 825 m 529 883 l 529 738 l 7 738 l 7 883 l 529 883 m 169 -65 l 365 -65 l 365 -167 l 232 -379 l 169 -379 l 169 -65 z "},"ț":{"ha":376,"x_min":7,"x_max":363,"o":"m 274 815 l 274 182 q 282 156 274 164 q 310 149 290 149 l 363 149 l 363 0 l 254 0 q 119 41 160 0 q 79 154 79 82 l 79 815 l 274 815 m 363 688 l 363 542 l 7 542 l 7 688 l 363 688 m 113 -65 l 308 -65 l 308 -167 l 174 -379 l 113 -379 l 113 -65 z "},"þ":{"ha":613,"x_min":51,"x_max":551,"o":"m 551 326 l 357 326 l 357 507 q 349 534 357 526 q 319 542 340 542 l 286 542 q 256 531 267 542 q 246 497 246 521 l 246 457 l 239 457 l 239 572 q 269 658 239 628 q 354 688 299 688 l 389 688 q 513 646 475 688 q 551 533 551 604 l 551 326 m 246 -185 l 51 -185 l 51 929 l 243 929 l 243 575 l 246 569 l 246 -185 m 357 361 l 551 361 l 551 154 q 513 41 551 82 q 389 0 475 0 l 354 0 q 269 30 299 0 q 239 115 239 60 l 239 226 l 246 226 l 246 190 q 256 156 246 167 q 286 146 267 146 l 319 146 q 349 154 340 146 q 357 181 357 163 l 357 361 z "},"u":{"ha":610,"x_min":53,"x_max":551,"o":"m 53 688 l 247 688 l 247 181 q 256 154 247 163 q 285 146 264 146 l 317 146 q 349 156 339 146 q 358 190 358 167 l 358 231 l 365 231 l 365 115 q 335 30 365 60 q 249 0 306 0 l 215 0 q 91 41 129 0 q 53 154 53 82 l 53 688 m 358 688 l 551 688 l 551 0 l 361 0 l 361 114 l 358 117 l 358 688 z "},"ú":{"ha":610,"x_min":53,"x_max":551,"o":"m 53 688 l 247 688 l 247 181 q 256 154 247 163 q 285 146 264 146 l 317 146 q 349 156 339 146 q 358 190 358 167 l 358 231 l 365 231 l 365 115 q 335 30 365 60 q 249 0 306 0 l 215 0 q 91 41 129 0 q 53 154 53 82 l 53 688 m 358 688 l 551 688 l 551 0 l 361 0 l 361 114 l 358 117 l 358 688 m 217 732 l 343 931 l 543 931 l 372 732 l 217 732 z "},"û":{"ha":607,"x_min":44,"x_max":560,"o":"m 43 732 l 208 931 l 394 931 l 560 732 l 375 732 l 301 835 l 228 732 l 43 732 m 53 688 l 247 688 l 247 181 q 256 154 247 163 q 285 146 264 146 l 317 146 q 349 156 339 146 q 358 190 358 167 l 358 231 l 365 231 l 365 115 q 335 30 365 60 q 249 0 306 0 l 215 0 q 91 41 129 0 q 53 154 53 82 l 53 688 m 358 688 l 551 688 l 551 0 l 361 0 l 361 114 l 358 117 l 358 688 z "},"ü":{"ha":624,"x_min":53,"x_max":551,"o":"m 54 753 l 54 914 l 239 914 l 239 753 l 54 753 m 361 753 l 361 914 l 546 914 l 546 753 l 361 753 m 53 688 l 247 688 l 247 181 q 256 154 247 163 q 285 146 264 146 l 317 146 q 349 156 339 146 q 358 190 358 167 l 358 231 l 365 231 l 365 115 q 335 30 365 60 q 249 0 306 0 l 215 0 q 91 41 129 0 q 53 154 53 82 l 53 688 m 358 688 l 551 688 l 551 0 l 361 0 l 361 114 l 358 117 l 358 688 z "},"ù":{"ha":610,"x_min":53,"x_max":551,"o":"m 53 688 l 247 688 l 247 181 q 256 154 247 163 q 285 146 264 146 l 317 146 q 349 156 339 146 q 358 190 358 167 l 358 231 l 365 231 l 365 115 q 335 30 365 60 q 249 0 306 0 l 215 0 q 91 41 129 0 q 53 154 53 82 l 53 688 m 358 688 l 551 688 l 551 0 l 361 0 l 361 114 l 358 117 l 358 688 m 260 931 l 386 732 l 231 732 l 60 931 l 260 931 z "},"ű":{"ha":610,"x_min":53,"x_max":646,"o":"m 344 732 l 472 931 l 646 931 l 475 732 l 344 732 m 118 732 l 246 931 l 419 931 l 249 732 l 118 732 m 53 688 l 247 688 l 247 181 q 256 154 247 163 q 285 146 264 146 l 317 146 q 349 156 339 146 q 358 190 358 167 l 358 231 l 365 231 l 365 115 q 335 30 365 60 q 249 0 306 0 l 215 0 q 91 41 129 0 q 53 154 53 82 l 53 688 m 358 688 l 551 688 l 551 0 l 361 0 l 361 114 l 358 117 l 358 688 z "},"ū":{"ha":610,"x_min":53,"x_max":551,"o":"m 53 688 l 247 688 l 247 181 q 256 154 247 163 q 285 146 264 146 l 317 146 q 349 156 339 146 q 358 190 358 167 l 358 231 l 365 231 l 365 115 q 335 30 365 60 q 249 0 306 0 l 215 0 q 91 41 129 0 q 53 154 53 82 l 53 688 m 358 688 l 551 688 l 551 0 l 361 0 l 361 114 l 358 117 l 358 688 m 63 769 l 63 896 l 539 896 l 539 769 l 63 769 z "},"ų":{"ha":610,"x_min":53,"x_max":576,"o":"m 53 688 l 247 688 l 247 181 q 256 154 247 163 q 285 146 264 146 l 317 146 q 349 156 339 146 q 358 190 358 167 l 358 231 l 365 231 l 365 115 q 335 30 365 60 q 249 0 306 0 l 215 0 q 91 41 129 0 q 53 154 53 82 l 53 688 m 358 688 l 551 688 l 551 0 l 361 0 l 361 114 l 358 117 l 358 688 m 282 -161 q 314 -62 282 -99 q 428 -26 346 -26 l 553 -26 l 553 -143 l 457 -143 q 430 -150 438 -143 q 422 -174 422 -157 l 422 -208 q 430 -231 422 -225 q 457 -237 438 -237 l 578 -237 l 578 -354 l 428 -354 q 314 -319 346 -354 q 282 -219 282 -283 l 282 -161 m 553 -33 l 436 -33 l 436 19 l 553 19 l 553 -33 z "},"ů":{"ha":610,"x_min":53,"x_max":551,"o":"m 53 688 l 247 688 l 247 181 q 256 154 247 163 q 285 146 264 146 l 317 146 q 349 156 339 146 q 358 190 358 167 l 358 231 l 365 231 l 365 115 q 335 30 365 60 q 249 0 306 0 l 215 0 q 91 41 129 0 q 53 154 53 82 l 53 688 m 358 688 l 551 688 l 551 0 l 361 0 l 361 114 l 358 117 l 358 688 m 492 868 l 492 846 q 464 762 492 792 q 365 732 436 732 l 257 732 q 158 762 186 732 q 131 846 131 792 l 131 868 q 158 952 131 922 q 257 982 186 982 l 365 982 q 464 952 436 982 q 492 868 492 922 m 368 849 l 368 864 q 362 888 368 882 q 336 894 356 894 l 286 894 q 262 888 268 894 q 256 864 256 882 l 256 849 q 262 826 256 832 q 286 819 268 819 l 336 819 q 362 826 356 819 q 368 849 368 832 z "},"v":{"ha":563,"x_min":1,"x_max":561,"o":"m 196 688 l 282 194 l 368 688 l 561 688 l 403 0 l 160 0 l 1 688 l 196 688 z "},"w":{"ha":872,"x_min":7,"x_max":865,"o":"m 685 688 l 865 688 l 725 0 l 517 0 l 433 447 l 349 0 l 142 0 l 7 688 l 188 688 l 254 199 l 343 688 l 528 688 l 610 201 l 685 688 z "},"x":{"ha":565,"x_min":6,"x_max":564,"o":"m 393 354 l 564 0 l 365 0 l 281 217 l 200 0 l 8 0 l 169 351 l 6 688 l 210 688 l 281 483 l 350 688 l 546 688 l 393 354 z "},"y":{"ha":581,"x_min":4,"x_max":576,"o":"m 4 688 l 206 688 l 297 210 l 381 688 l 576 688 l 414 -17 q 342 -140 393 -96 q 190 -185 290 -185 l 86 -185 l 86 -40 l 172 -40 q 222 -31 201 -40 q 251 13 242 -21 l 258 39 l 176 39 l 4 688 z "},"ý":{"ha":581,"x_min":4,"x_max":576,"o":"m 4 688 l 206 688 l 297 210 l 381 688 l 576 688 l 414 -17 q 342 -140 393 -96 q 190 -185 290 -185 l 86 -185 l 86 -40 l 172 -40 q 222 -31 201 -40 q 251 13 242 -21 l 258 39 l 176 39 l 4 688 m 215 732 l 342 931 l 542 931 l 371 732 l 215 732 z "},"ÿ":{"ha":615,"x_min":4,"x_max":576,"o":"m 46 753 l 46 914 l 231 914 l 231 753 l 46 753 m 353 753 l 353 914 l 538 914 l 538 753 l 353 753 m 4 688 l 206 688 l 297 210 l 381 688 l 576 688 l 414 -17 q 342 -140 393 -96 q 190 -185 290 -185 l 86 -185 l 86 -40 l 172 -40 q 222 -31 201 -40 q 251 13 242 -21 l 258 39 l 176 39 l 4 688 z "},"z":{"ha":492,"x_min":15,"x_max":475,"o":"m 465 688 l 465 547 l 33 547 l 33 688 l 465 688 m 260 547 l 465 547 l 219 140 l 15 140 l 260 547 m 475 140 l 475 0 l 15 0 l 15 140 l 475 140 z "},"ź":{"ha":492,"x_min":15,"x_max":497,"o":"m 465 688 l 465 547 l 33 547 l 33 688 l 465 688 m 260 547 l 465 547 l 219 140 l 15 140 l 260 547 m 475 140 l 475 0 l 15 0 l 15 140 l 475 140 m 171 732 l 297 931 l 497 931 l 326 732 l 171 732 z "},"ž":{"ha":492,"x_min":-7,"x_max":510,"o":"m 465 688 l 465 547 l 33 547 l 33 688 l 465 688 m 260 547 l 465 547 l 219 140 l 15 140 l 260 547 m 475 140 l 475 0 l 15 0 l 15 140 l 475 140 m 158 732 l -7 931 l 178 931 l 251 829 l 325 931 l 510 931 l 344 732 l 158 732 z "},"ż":{"ha":492,"x_min":15,"x_max":475,"o":"m 465 688 l 465 547 l 33 547 l 33 688 l 465 688 m 260 547 l 465 547 l 219 140 l 15 140 l 260 547 m 475 140 l 475 0 l 15 0 l 15 140 l 475 140 m 157 750 l 157 913 l 353 913 l 353 750 l 157 750 z "},"ﬁ":{"ha":638,"x_min":13,"x_max":581,"o":"m 581 0 l 389 0 l 389 688 l 581 688 l 581 0 m 272 753 l 272 0 l 82 0 l 82 775 q 122 888 82 847 q 257 929 163 929 l 335 929 l 335 788 l 310 788 q 281 780 289 788 q 272 753 272 772 m 486 688 l 486 542 l 13 542 l 13 688 l 486 688 m 389 788 l 389 929 l 581 929 l 581 788 l 389 788 z "},"ﬂ":{"ha":638,"x_min":13,"x_max":581,"o":"m 272 753 l 272 0 l 82 0 l 82 775 q 122 888 82 847 q 257 929 163 929 l 335 929 l 335 788 l 310 788 q 281 780 289 788 q 272 753 272 772 m 486 688 l 486 542 l 13 542 l 13 688 l 486 688 m 581 0 l 390 0 l 390 929 l 581 929 l 581 0 z "},"ª":{"ha":426,"x_min":35,"x_max":385,"o":"m 157 629 l 35 629 l 35 775 q 62 855 35 826 q 150 883 89 883 l 192 883 q 250 863 232 883 q 268 801 268 842 l 268 725 l 263 725 l 263 753 q 233 785 263 785 l 183 785 q 163 779 168 785 q 157 760 157 774 l 157 629 m 385 397 l 263 397 l 263 800 l 265 801 l 265 883 l 385 883 l 385 397 m 35 653 l 157 653 l 157 524 q 163 505 157 511 q 183 499 168 499 l 233 499 q 256 506 249 499 q 263 531 263 514 l 263 557 l 268 557 l 268 479 q 252 419 268 440 q 194 397 236 397 l 150 397 q 62 426 89 397 q 35 507 35 456 l 35 653 z "},"º":{"ha":417,"x_min":35,"x_max":381,"o":"m 258 599 l 258 774 q 252 793 258 788 q 232 799 246 799 l 213 799 l 213 883 l 260 883 q 353 855 326 883 q 381 775 381 826 l 381 599 l 258 599 m 258 506 l 258 622 l 381 622 l 381 507 q 353 426 381 456 q 260 397 326 397 l 210 397 l 210 482 l 232 482 q 252 488 246 482 q 258 506 258 493 m 157 774 l 157 599 l 35 599 l 35 775 q 63 855 35 826 q 156 883 90 883 l 219 883 l 219 799 l 183 799 q 163 793 169 799 q 157 774 157 788 m 157 624 l 157 506 q 163 488 157 493 q 183 482 169 482 l 219 482 l 219 397 l 156 397 q 63 426 90 397 q 35 507 35 456 l 35 624 l 157 624 z "},"अ":{"ha":918,"x_min":63,"x_max":946,"o":"m 663 883 l 857 883 l 857 0 l 663 0 l 663 883 m 390 503 l 728 503 l 728 368 l 447 368 l 390 503 m 807 883 l 946 883 l 946 749 l 807 749 l 807 883 m 385 889 q 517 850 481 889 q 554 742 554 811 l 554 575 q 538 521 554 538 q 493 500 522 504 l 493 494 q 538 474 522 492 q 554 421 554 457 l 554 256 q 517 147 554 185 q 385 108 481 108 l 231 108 q 99 147 135 108 q 63 256 63 185 l 63 375 l 257 375 l 257 275 q 265 250 257 257 q 292 243 274 243 l 324 243 q 351 250 343 243 q 360 275 360 257 l 360 393 q 351 422 360 414 q 322 431 342 431 l 263 431 l 263 564 l 322 564 q 351 572 342 564 q 360 601 360 581 l 360 721 q 351 747 360 740 q 324 754 343 754 l 292 754 q 265 747 274 754 q 257 721 257 740 l 257 632 l 63 632 l 63 742 q 99 850 63 811 q 231 889 135 889 l 385 889 z "},"आ":{"ha":1236,"x_min":63,"x_max":1264,"o":"m 663 883 l 857 883 l 857 0 l 663 0 l 663 883 m 390 503 l 728 503 l 728 368 l 447 368 l 390 503 m 807 883 l 946 883 l 946 749 l 807 749 l 807 883 m 385 889 q 517 850 481 889 q 554 742 554 811 l 554 575 q 538 521 554 538 q 493 500 522 504 l 493 494 q 538 474 522 492 q 554 421 554 457 l 554 256 q 517 147 554 185 q 385 108 481 108 l 231 108 q 99 147 135 108 q 63 256 63 185 l 63 375 l 257 375 l 257 275 q 265 250 257 257 q 292 243 274 243 l 324 243 q 351 250 343 243 q 360 275 360 257 l 360 393 q 351 422 360 414 q 322 431 342 431 l 263 431 l 263 564 l 322 564 q 351 572 342 564 q 360 601 360 581 l 360 721 q 351 747 360 740 q 324 754 343 754 l 292 754 q 265 747 274 754 q 257 721 257 740 l 257 632 l 63 632 l 63 742 q 99 850 63 811 q 231 889 135 889 l 385 889 m 981 779 l 1174 779 l 1174 0 l 981 0 l 981 779 m 890 883 l 1264 883 l 1264 749 l 890 749 l 890 883 z "},"ा":{"ha":318,"x_min":-28,"x_max":346,"o":"m 63 779 l 256 779 l 256 0 l 63 0 l 63 779 m -28 883 l 346 883 l 346 749 l -28 749 l -28 883 z "},"ऐ":{"ha":656,"x_min":-28,"x_max":683,"o":"m 61 794 l 256 794 l 256 157 q 264 132 256 139 q 292 125 272 125 l 372 125 q 394 132 388 125 q 401 157 401 139 l 401 299 l 596 299 l 596 138 q 560 33 596 67 q 426 0 524 0 l 231 0 q 98 33 135 0 q 61 138 61 67 l 61 794 m 403 794 l 597 794 l 597 515 q 561 413 597 446 q 428 379 525 379 l 319 379 l 319 514 l 368 514 q 395 521 388 514 q 403 546 403 528 l 403 794 m -28 883 l 683 883 l 683 749 l -28 749 l -28 883 m 399 1158 l 597 875 l 408 875 q 329 951 368 908 q 250 1046 290 993 l 165 1158 l 399 1158 z "},"औ":{"ha":1236,"x_min":63,"x_max":1264,"o":"m 638 1158 l 869 1158 l 929 1085 q 1008 985 976 1026 q 1068 897 1039 944 l 1075 897 q 1033 982 1050 942 q 993 1075 1017 1022 l 958 1158 l 1140 1158 l 1172 876 l 983 876 q 931 911 957 894 q 877 951 906 928 q 810 1008 849 975 l 638 1158 m 663 883 l 857 883 l 857 0 l 663 0 l 663 883 m 390 503 l 728 503 l 728 368 l 447 368 l 390 503 m 807 883 l 946 883 l 946 749 l 807 749 l 807 883 m 385 889 q 517 850 481 889 q 554 742 554 811 l 554 575 q 538 521 554 538 q 493 500 522 504 l 493 494 q 538 474 522 492 q 554 421 554 457 l 554 256 q 517 147 554 185 q 385 108 481 108 l 231 108 q 99 147 135 108 q 63 256 63 185 l 63 375 l 257 375 l 257 275 q 265 250 257 257 q 292 243 274 243 l 324 243 q 351 250 343 243 q 360 275 360 257 l 360 393 q 351 422 360 414 q 322 431 342 431 l 263 431 l 263 564 l 322 564 q 351 572 342 564 q 360 601 360 581 l 360 721 q 351 747 360 740 q 324 754 343 754 l 292 754 q 265 747 274 754 q 257 721 257 740 l 257 632 l 63 632 l 63 742 q 99 850 63 811 q 231 889 135 889 l 385 889 m 981 779 l 1174 779 l 1174 0 l 981 0 l 981 779 m 890 883 l 1264 883 l 1264 749 l 890 749 l 890 883 z "},"ौ":{"ha":318,"x_min":-281,"x_max":346,"o":"m 63 779 l 256 779 l 256 0 l 63 0 l 63 779 m -28 883 l 346 883 l 346 749 l -28 749 l -28 883 m -281 1158 l -49 1158 l 11 1085 q 90 985 58 1026 q 150 897 121 944 l 157 897 q 115 982 132 942 q 75 1075 99 1022 l 40 1158 l 222 1158 l 254 876 l 65 876 q 13 911 39 894 q -41 951 -12 928 q -108 1008 -69 975 l -281 1158 z "},"ए":{"ha":656,"x_min":-28,"x_max":683,"o":"m 61 794 l 256 794 l 256 157 q 264 132 256 139 q 292 125 272 125 l 372 125 q 394 132 388 125 q 401 157 401 139 l 401 299 l 596 299 l 596 138 q 560 33 596 67 q 426 0 524 0 l 231 0 q 98 33 135 0 q 61 138 61 67 l 61 794 m 403 794 l 597 794 l 597 515 q 561 413 597 446 q 428 379 525 379 l 319 379 l 319 514 l 368 514 q 395 521 388 514 q 403 546 403 528 l 403 794 m -28 883 l 683 883 l 683 749 l -28 749 l -28 883 z "},"इ":{"ha":592,"x_min":-28,"x_max":619,"o":"m -28 883 l 619 883 l 619 749 l -28 749 l -28 883 m 49 239 l 243 239 l 243 -60 l 49 -60 l 49 239 m 326 824 l 521 824 l 521 536 l 274 536 q 246 529 254 536 q 238 504 238 522 l 238 464 q 246 439 238 446 q 274 432 254 432 l 374 432 q 507 399 471 432 q 543 294 543 365 l 543 169 q 507 65 543 99 q 374 32 471 32 l 201 32 l 201 157 l 314 157 q 341 164 333 157 q 349 189 349 171 l 349 275 q 341 300 349 293 q 314 307 333 307 l 213 307 q 80 340 117 307 q 43 443 43 374 l 43 524 q 80 628 43 594 q 213 661 117 661 l 326 661 l 326 824 z "},"ि":{"ha":318,"x_min":-28,"x_max":864,"o":"m -28 883 l 346 883 l 346 749 l -28 749 l -28 883 m 61 783 l 256 783 l 256 0 l 61 0 l 61 783 m 711 1174 q 822 1141 781 1174 q 864 1031 864 1108 l 864 935 l 669 935 l 669 990 q 661 1030 669 1021 q 621 1039 653 1039 l 304 1039 q 265 1030 275 1039 q 256 990 256 1021 l 256 872 l 61 872 l 61 1031 q 103 1141 61 1108 q 214 1174 144 1174 l 711 1174 z "},"ई":{"ha":592,"x_min":-28,"x_max":622,"o":"m -28 883 l 619 883 l 619 749 l -28 749 l -28 883 m 49 239 l 243 239 l 243 -60 l 49 -60 l 49 239 m 326 824 l 521 824 l 521 536 l 274 536 q 246 529 254 536 q 238 504 238 522 l 238 464 q 246 439 238 446 q 274 432 254 432 l 374 432 q 507 399 471 432 q 543 294 543 365 l 543 169 q 507 65 543 99 q 374 32 471 32 l 201 32 l 201 157 l 314 157 q 341 164 333 157 q 349 189 349 171 l 349 275 q 341 300 349 293 q 314 307 333 307 l 213 307 q 80 340 117 307 q 43 443 43 374 l 43 524 q 80 628 43 594 q 213 661 117 661 l 326 661 l 326 824 m 622 986 l 557 986 q 529 980 538 986 q 521 956 521 974 l 521 868 l 326 868 l 326 975 q 363 1078 326 1046 q 496 1111 400 1111 l 622 1111 l 622 986 z "},"ी":{"ha":318,"x_min":-285,"x_max":346,"o":"m 346 883 l 346 749 l -28 749 l -28 883 l 346 883 m 256 783 l 256 0 l 61 0 l 61 783 l 256 783 m 104 1174 q 215 1141 174 1174 q 256 1031 256 1108 l 256 872 l 61 872 l 61 990 q 53 1030 61 1021 q 14 1039 44 1039 l -43 1039 q -83 1030 -74 1039 q -92 990 -92 1021 l -92 935 l -285 935 l -285 1031 q -244 1141 -285 1108 q -133 1174 -203 1174 l 104 1174 z "},"ऌ":{"ha":924,"x_min":-28,"x_max":951,"o":"m -28 883 l 951 883 l 951 749 l -28 749 l -28 883 m 385 661 q 439 645 422 661 q 460 600 456 629 l 465 600 q 485 645 468 629 q 539 661 503 661 l 692 661 l 692 526 l 593 526 q 565 518 572 526 q 558 490 558 510 l 558 281 l 364 281 l 364 490 q 357 518 364 510 q 329 526 350 526 l 288 526 q 260 519 268 526 q 251 490 251 513 l 251 168 q 260 143 251 150 q 288 136 268 136 l 324 136 l 324 0 l 226 0 q 94 33 131 0 q 57 138 57 67 l 57 504 q 98 625 57 589 q 218 661 139 661 l 385 661 m 669 779 l 864 779 l 864 58 l 721 58 q 693 52 701 58 q 685 26 685 46 l 685 -21 q 693 -46 685 -39 q 721 -53 701 -53 l 940 -53 l 940 -187 l 660 -187 q 528 -154 564 -187 q 492 -50 492 -121 l 492 47 q 528 150 492 117 q 660 183 564 183 l 669 183 l 669 779 z "},"ॡ":{"ha":924,"x_min":-28,"x_max":951,"o":"m -28 883 l 951 883 l 951 749 l -28 749 l -28 883 m 385 661 q 439 645 422 661 q 460 600 456 629 l 465 600 q 485 645 468 629 q 539 661 503 661 l 692 661 l 692 526 l 593 526 q 565 518 572 526 q 558 490 558 510 l 558 310 l 364 310 l 364 490 q 357 518 364 510 q 329 526 350 526 l 288 526 q 260 519 268 526 q 251 490 251 513 l 251 168 q 260 143 251 150 q 288 136 268 136 l 324 136 l 324 0 l 226 0 q 94 33 131 0 q 57 138 57 67 l 57 504 q 98 625 57 589 q 218 661 139 661 l 385 661 m 558 164 q 600 263 558 235 q 708 292 642 292 l 864 292 l 864 157 l 788 157 q 761 150 769 157 q 753 121 753 143 l 753 83 q 761 53 753 61 q 788 46 769 46 l 853 46 l 853 -87 l 788 -87 q 761 -95 769 -87 q 753 -125 753 -103 l 753 -162 q 761 -192 753 -185 q 788 -199 769 -199 l 931 -199 l 931 -333 l 749 -333 q 605 -297 651 -333 q 558 -176 558 -261 l 558 -99 q 575 -44 558 -61 q 619 -25 592 -28 l 619 -18 q 575 2 592 -15 q 558 56 558 19 l 558 164 m 669 771 l 864 771 l 864 235 l 669 235 l 669 771 z "},"ओ":{"ha":1236,"x_min":63,"x_max":1264,"o":"m 978 1158 l 1176 875 l 988 875 q 908 951 947 908 q 829 1046 869 993 l 744 1158 l 978 1158 m 663 883 l 857 883 l 857 0 l 663 0 l 663 883 m 390 503 l 728 503 l 728 368 l 447 368 l 390 503 m 807 883 l 946 883 l 946 749 l 807 749 l 807 883 m 385 889 q 517 850 481 889 q 554 742 554 811 l 554 575 q 538 521 554 538 q 493 500 522 504 l 493 494 q 538 474 522 492 q 554 421 554 457 l 554 256 q 517 147 554 185 q 385 108 481 108 l 231 108 q 99 147 135 108 q 63 256 63 185 l 63 375 l 257 375 l 257 275 q 265 250 257 257 q 292 243 274 243 l 324 243 q 351 250 343 243 q 360 275 360 257 l 360 393 q 351 422 360 414 q 322 431 342 431 l 263 431 l 263 564 l 322 564 q 351 572 342 564 q 360 601 360 581 l 360 721 q 351 747 360 740 q 324 754 343 754 l 292 754 q 265 747 274 754 q 257 721 257 740 l 257 632 l 63 632 l 63 742 q 99 850 63 811 q 231 889 135 889 l 385 889 m 981 779 l 1174 779 l 1174 0 l 981 0 l 981 779 m 890 883 l 1264 883 l 1264 749 l 890 749 l 890 883 z "},"ॉ":{"ha":318,"x_min":-137,"x_max":456,"o":"m 63 779 l 256 779 l 256 0 l 63 0 l 63 779 m -28 883 l 346 883 l 346 749 l -28 749 l -28 883 m -137 1192 l 25 1192 l 25 1106 q 34 1075 25 1083 q 65 1067 43 1067 l 253 1067 q 285 1075 276 1067 q 293 1106 293 1083 l 293 1192 l 456 1192 l 456 1082 q 415 985 456 1018 q 275 953 375 953 l 43 953 q -97 985 -57 953 q -137 1082 -137 1018 l -137 1192 z "},"ो":{"ha":318,"x_min":-175,"x_max":346,"o":"m 63 779 l 256 779 l 256 0 l 63 0 l 63 779 m -28 883 l 346 883 l 346 749 l -28 749 l -28 883 m 57 1158 l 256 875 l 67 875 q -12 951 26 908 q -92 1046 -51 993 l -176 1158 l 57 1158 z "},"ऋ":{"ha":1247,"x_min":-28,"x_max":1274,"o":"m 632 786 l 632 0 l 439 0 l 439 786 l 632 786 m -28 883 l 1274 883 l 1274 749 l -28 749 l -28 883 m 133 656 q 213 647 181 656 q 267 617 244 638 q 310 563 289 597 l 453 333 l 250 0 l 28 0 l 267 392 l 242 300 l 151 451 q 106 506 126 492 q 47 521 85 521 l 17 521 l 17 656 l 133 656 m 1000 506 q 992 531 1000 524 q 967 538 985 538 l 947 538 q 921 531 929 538 q 913 506 913 524 l 913 415 q 921 390 913 397 q 947 383 929 383 l 967 383 q 992 390 985 383 q 1000 415 1000 397 l 1000 506 m 1189 -146 l 917 -146 q 788 -113 824 -146 q 753 -14 753 -81 l 753 58 q 783 157 753 122 q 888 192 813 192 l 907 192 l 800 261 l 324 261 l 324 383 l 850 383 l 839 350 q 751 369 783 353 q 718 432 718 386 l 718 506 q 760 624 718 588 q 908 661 803 661 l 1006 661 q 1152 624 1110 661 q 1194 506 1194 588 l 1194 443 q 1152 324 1194 360 q 1006 288 1110 288 l 990 288 l 1144 192 l 1144 68 l 976 68 q 953 62 961 68 q 946 40 946 56 l 946 6 q 953 -16 946 -10 q 976 -22 961 -22 l 1189 -22 l 1189 -146 z "},"ॠ":{"ha":1265,"x_min":-28,"x_max":1308,"o":"m 657 786 l 657 0 l 463 0 l 463 786 l 657 786 m -28 883 l 1308 883 l 1308 749 l -28 749 l -28 883 m 158 656 q 237 647 206 656 q 290 617 268 638 q 333 563 313 597 l 476 333 l 274 0 l 53 0 l 290 392 l 267 300 l 175 451 q 131 506 151 492 q 71 521 110 521 l 42 521 l 42 656 l 158 656 m 1035 506 q 1027 531 1035 524 q 1000 538 1019 538 l 982 538 q 955 531 963 538 q 947 506 947 524 l 947 415 q 955 390 947 397 q 982 383 963 383 l 1000 383 q 1027 390 1019 383 q 1035 415 1035 397 l 1035 506 m 1039 661 q 1187 624 1144 661 q 1229 506 1229 588 l 1229 417 q 1187 297 1229 333 q 1039 261 1144 261 l 981 261 q 956 253 964 260 q 947 224 947 246 l 947 186 q 956 157 947 164 q 982 150 964 150 l 1044 150 l 1044 15 l 982 15 q 956 8 964 15 q 947 -21 947 1 l 947 -60 q 956 -88 947 -81 q 982 -96 964 -96 l 1124 -96 l 1124 -231 l 943 -231 q 799 -194 846 -231 q 753 -74 753 -158 l 753 6 q 769 58 753 42 q 814 79 786 75 l 814 85 q 769 106 786 89 q 753 158 753 122 l 753 224 q 788 278 753 267 q 879 289 822 290 l 885 261 l 349 261 l 349 383 l 883 383 l 874 350 q 785 369 817 353 q 753 432 753 386 l 753 506 q 795 624 753 588 q 943 661 838 661 l 1039 661 z "},"उ":{"ha":593,"x_min":-28,"x_max":613,"o":"m -28 883 l 613 883 l 613 749 l -28 749 l -28 883 m 522 563 q 506 510 522 526 q 461 489 490 493 l 461 483 q 506 463 490 479 q 522 410 522 446 l 522 138 q 486 33 522 67 q 353 0 450 0 l 199 0 q 66 33 103 0 q 29 138 29 67 l 29 303 l 224 303 l 224 157 q 231 132 224 139 q 253 125 239 125 l 293 125 q 320 132 313 125 q 328 157 328 139 l 328 382 q 320 410 328 403 q 293 418 313 418 l 215 418 l 215 553 l 293 553 q 320 560 313 553 q 328 589 328 567 l 328 703 q 319 740 328 731 q 276 749 310 749 l 401 779 q 490 767 457 779 q 522 714 522 756 l 522 563 z "},"ऑ":{"ha":1236,"x_min":63,"x_max":1375,"o":"m 1211 1106 l 1211 1106 l 1211 1192 l 1375 1192 l 1375 1082 q 1333 985 1375 1017 q 1193 953 1292 953 l 961 953 q 822 985 864 953 q 781 1082 781 1017 l 781 1192 l 943 1192 l 943 1106 q 952 1075 943 1083 q 983 1067 961 1067 l 1171 1067 q 1203 1075 1194 1067 q 1211 1106 1211 1083 m 663 883 l 663 883 l 1264 883 l 1264 749 l 1175 749 l 1175 0 l 981 0 l 981 749 l 857 749 l 857 0 l 663 0 l 663 368 l 554 368 l 554 256 q 515 145 554 182 q 385 108 476 108 l 231 108 q 101 145 139 108 q 63 256 63 182 l 63 375 l 257 375 l 257 275 q 265 250 257 257 q 292 243 272 243 l 324 243 q 351 250 343 243 q 360 275 360 257 l 360 393 q 351 422 360 413 q 322 431 342 431 l 263 431 l 263 564 l 322 564 q 351 573 342 564 q 360 601 360 582 l 360 721 q 351 747 360 739 q 324 754 343 754 l 292 754 q 265 747 272 754 q 257 721 257 739 l 257 632 l 63 632 l 63 742 q 101 852 63 815 q 231 889 139 889 l 385 889 q 515 852 476 889 q 554 742 554 815 l 554 575 q 506 503 554 515 l 663 503 l 663 883 z "},"ऊ":{"ha":849,"x_min":-28,"x_max":876,"o":"m 656 483 q 776 447 736 483 q 817 326 817 411 l 817 138 q 781 33 817 67 q 647 0 744 0 l 567 0 l 567 135 l 588 135 q 614 142 606 135 q 622 167 622 149 l 622 313 q 614 342 622 335 q 588 349 606 349 l 406 349 l 406 483 l 656 483 m 876 883 l 876 749 l -28 749 l -28 883 l 876 883 m 522 563 q 506 510 522 526 q 461 489 490 493 l 461 483 q 506 463 490 479 q 522 410 522 446 l 522 138 q 486 33 522 67 q 353 0 450 0 l 199 0 q 66 33 103 0 q 29 138 29 67 l 29 303 l 224 303 l 224 157 q 231 132 224 139 q 253 125 239 125 l 293 125 q 320 132 313 125 q 328 157 328 139 l 328 382 q 320 410 328 403 q 293 418 313 418 l 215 418 l 215 553 l 293 553 q 320 560 313 553 q 328 589 328 567 l 328 703 q 319 740 328 731 q 276 749 310 749 l 401 779 q 490 767 457 779 q 522 714 522 756 l 522 563 z "},"ब":{"ha":721,"x_min":-28,"x_max":749,"o":"m -28 883 l 749 883 l 749 749 l -28 749 l -28 883 m 408 661 l 408 536 l 306 536 l 378 428 q 422 367 400 399 q 459 315 444 336 q 474 294 474 294 q 472 308 474 294 q 467 356 469 321 q 465 451 465 390 l 465 824 l 660 824 l 660 0 l 465 0 l 465 142 l 474 161 l 325 367 q 285 431 308 397 q 244 488 263 464 l 244 279 q 253 250 244 257 q 279 243 261 243 l 446 243 q 473 251 464 243 q 482 281 482 258 l 500 196 q 484 130 500 151 q 417 108 468 108 l 210 108 q 91 144 132 108 q 50 265 50 181 l 50 524 q 86 628 50 594 q 219 661 122 661 l 408 661 z "},"भ":{"ha":936,"x_min":57,"x_max":964,"o":"m 681 785 l 875 785 l 875 0 l 681 0 l 681 785 m 681 883 l 964 883 l 964 749 l 681 749 l 681 883 m 389 889 q 521 850 485 889 q 557 742 557 811 l 557 265 q 515 144 557 181 q 368 108 472 108 l 247 108 q 100 144 143 108 q 57 265 57 181 l 57 458 q 94 561 57 528 q 226 594 131 594 l 782 594 l 782 460 l 288 460 q 260 453 268 460 q 251 428 251 447 l 251 279 q 261 250 251 257 q 289 243 271 243 l 326 243 q 354 250 344 243 q 364 279 364 257 l 364 721 q 356 747 364 740 q 328 754 347 754 l 299 754 q 272 747 281 754 q 264 721 264 740 l 264 672 l 69 672 l 69 742 q 106 850 69 811 q 239 889 143 889 l 389 889 z "},"च":{"ha":646,"x_min":-29,"x_max":674,"o":"m -29 883 l 674 883 l 674 749 l -29 749 l -29 883 m 390 824 l 585 824 l 585 0 l 390 0 l 390 824 m -10 661 l 340 661 l 340 526 l -10 526 l -10 661 m 71 463 q 108 540 71 524 q 203 556 144 557 l 313 526 q 285 524 296 526 q 269 515 274 522 q 265 490 265 507 l 265 279 q 274 250 265 257 q 300 243 282 243 l 354 243 q 381 251 372 243 q 390 281 390 258 l 408 196 q 392 130 408 151 q 325 108 376 108 l 232 108 q 112 144 153 108 q 71 265 71 181 l 71 463 z "},"छ":{"ha":890,"x_min":-28,"x_max":918,"o":"m -28 883 l 918 883 l 918 749 l -28 749 l -28 883 m 521 783 l 703 783 l 703 625 l 521 625 l 521 783 m 56 714 q 92 769 56 758 q 186 779 128 779 l 308 749 q 262 741 274 749 q 250 703 250 733 l 250 540 q 258 511 250 518 q 285 504 267 504 l 333 504 l 333 369 l 285 369 q 258 362 267 369 q 250 333 250 354 l 250 172 q 258 144 250 151 q 285 136 267 136 l 604 136 q 632 144 624 136 q 640 172 640 151 l 640 513 q 632 538 640 532 q 604 544 624 544 l 581 544 q 554 538 563 544 q 546 513 546 532 l 546 419 q 554 393 546 400 q 581 386 563 386 l 600 386 l 600 271 l 544 271 q 433 301 475 271 q 392 408 392 331 l 392 524 q 435 631 392 601 q 564 661 479 661 l 660 661 q 788 631 744 661 q 832 524 832 601 l 832 157 q 785 36 832 72 q 642 0 739 0 l 246 0 q 102 36 149 0 q 56 157 56 72 l 56 360 q 72 413 56 396 q 117 433 89 429 l 117 439 q 72 459 89 442 q 56 513 56 476 l 56 714 z "},"द":{"ha":606,"x_min":-42,"x_max":633,"o":"m -42 883 l 633 883 l 633 749 l -42 749 l -42 883 m 350 818 l 544 818 l 544 526 l 279 526 q 251 519 261 526 q 242 490 242 513 l 242 279 q 250 250 242 257 q 278 243 258 243 l 317 243 q 344 251 335 243 q 353 281 353 258 l 371 196 q 355 130 371 151 q 288 108 339 108 l 238 108 q 91 144 133 108 q 49 265 49 181 l 49 524 q 85 628 49 594 q 217 661 121 661 l 350 661 l 350 818 m 353 394 l 547 394 l 547 0 l 353 0 l 353 394 z "},"ड":{"ha":603,"x_min":-28,"x_max":631,"o":"m -28 883 l 631 883 l 631 749 l -28 749 l -28 883 m 319 824 l 513 824 l 513 536 l 288 536 q 261 529 269 536 q 253 504 253 522 l 253 453 q 261 426 253 433 q 288 419 269 419 l 371 419 q 503 386 467 419 q 539 283 539 353 l 539 138 q 503 33 539 67 q 371 0 467 0 l 217 0 q 83 33 119 0 q 47 138 47 67 l 47 224 l 242 224 l 242 157 q 249 132 242 139 q 271 125 256 125 l 310 125 q 338 132 329 125 q 346 157 346 139 l 346 263 q 338 289 346 282 q 310 296 329 296 l 228 296 q 94 329 131 296 q 58 432 58 363 l 58 524 q 94 628 58 594 q 228 661 131 661 l 319 661 l 319 824 z "},"ड़":{"ha":603,"x_min":-28,"x_max":631,"o":"m -28 883 l 631 883 l 631 749 l -28 749 l -28 883 m 319 824 l 513 824 l 513 536 l 288 536 q 261 529 269 536 q 253 504 253 522 l 253 453 q 261 426 253 433 q 288 419 269 419 l 371 419 q 503 386 467 419 q 539 283 539 353 l 539 138 q 503 33 539 67 q 371 0 467 0 l 217 0 q 83 33 119 0 q 47 138 47 67 l 47 224 l 242 224 l 242 157 q 249 132 242 139 q 271 125 256 125 l 310 125 q 338 132 329 125 q 346 157 346 139 l 346 263 q 338 289 346 282 q 310 296 329 296 l 228 296 q 94 329 131 296 q 58 432 58 363 l 58 524 q 94 628 58 594 q 228 661 131 661 l 319 661 l 319 824 m 218 -85 l 367 -85 l 367 -246 l 218 -246 l 218 -85 z "},"ढ":{"ha":660,"x_min":-28,"x_max":688,"o":"m -28 883 l 688 883 l 688 749 l -28 749 l -28 883 m 360 818 l 553 818 l 553 526 l 293 526 q 265 519 275 526 q 256 490 256 513 l 256 171 q 265 142 256 149 q 293 135 275 135 l 376 135 q 405 142 396 135 q 414 171 414 149 l 414 243 q 405 272 414 265 q 376 279 396 279 l 317 279 l 317 414 l 418 414 q 565 378 522 414 q 608 257 608 342 l 608 157 q 565 36 608 72 q 418 0 522 0 l 251 0 q 104 36 147 0 q 61 157 61 72 l 61 524 q 98 628 61 594 q 231 661 135 661 l 360 661 l 360 818 z "},"ध":{"ha":775,"x_min":79,"x_max":808,"o":"m 524 883 l 808 883 l 808 749 l 525 749 l 524 883 m 525 822 l 719 822 l 719 0 l 525 0 l 525 822 m 272 583 q 281 555 272 563 q 308 547 289 547 l 403 547 l 403 413 l 308 413 q 281 406 289 413 q 272 376 272 399 l 272 279 q 281 250 272 257 q 308 243 289 243 l 478 243 q 515 253 506 243 q 525 290 525 264 l 543 186 q 526 128 543 149 q 464 108 508 108 l 238 108 q 117 141 156 108 q 79 244 79 174 l 79 403 q 95 456 79 439 q 140 476 111 474 l 140 482 q 95 503 111 486 q 79 557 79 519 l 79 754 q 117 858 79 825 q 238 890 156 890 l 304 890 q 425 858 386 890 q 464 754 464 825 l 464 669 l 354 669 l 354 724 q 346 749 354 743 q 319 756 338 756 l 308 756 q 281 749 289 756 q 272 724 272 743 l 272 583 z "},"फ़":{"ha":913,"x_min":-28,"x_max":940,"o":"m 369 821 l 564 821 l 564 0 l 369 0 l 369 821 m 58 821 l 253 821 l 253 279 q 261 250 253 257 q 289 243 269 243 l 333 243 q 361 251 353 243 q 369 281 369 258 l 388 196 q 372 130 388 151 q 304 108 356 108 l 219 108 q 99 144 140 108 q 58 265 58 181 l 58 821 m 714 661 q 835 625 794 661 q 875 504 875 589 l 875 246 q 838 142 875 175 q 706 108 801 108 l 621 108 l 621 233 l 646 233 q 672 240 664 233 q 681 265 681 247 l 681 490 q 672 519 681 513 q 646 526 664 526 l 600 526 q 573 519 582 526 q 564 489 564 511 l 546 574 q 562 640 546 618 q 629 661 578 661 l 714 661 m -28 883 l 940 883 l 940 749 l -28 749 l -28 883 m 125 0 l 274 0 l 274 -161 l 125 -161 l 125 0 z "},"ग":{"ha":919,"x_min":-28,"x_max":947,"o":"m 664 806 l 858 806 l 858 0 l 664 0 l 664 806 m -28 883 l 947 883 l 947 749 l -28 749 l -28 883 m 349 786 l 543 786 l 543 265 q 500 144 543 181 q 353 108 457 108 l 232 108 q 85 144 128 108 q 42 265 42 181 l 42 492 q 92 602 42 568 q 250 636 142 636 l 414 636 l 414 501 l 279 501 q 244 494 253 501 q 236 458 236 486 l 236 279 q 245 250 236 257 q 274 243 254 243 l 311 243 q 340 250 331 243 q 349 279 349 257 l 349 786 z "},"घ":{"ha":690,"x_min":-28,"x_max":718,"o":"m 58 711 q 94 768 58 757 q 189 779 131 779 l 311 749 q 275 746 288 749 q 258 733 263 743 q 253 703 253 722 l 253 599 q 261 570 253 578 q 289 563 269 563 l 349 563 l 349 428 l 289 428 q 261 421 269 428 q 253 392 253 414 l 253 279 q 261 250 253 257 q 289 243 269 243 l 388 243 q 425 253 415 243 q 435 290 435 264 l 453 186 q 435 128 453 149 q 374 108 418 108 l 249 108 q 105 144 151 108 q 58 265 58 181 l 58 418 q 75 472 58 454 q 119 492 92 489 l 119 497 q 75 518 92 501 q 58 571 58 535 l 58 711 m -28 883 l 718 883 l 718 749 l -28 749 l -28 883 m 435 822 l 629 822 l 629 0 l 435 0 l 435 822 z "},"ग़":{"ha":919,"x_min":-28,"x_max":947,"o":"m 664 806 l 858 806 l 858 0 l 664 0 l 664 806 m -28 883 l 947 883 l 947 749 l -28 749 l -28 883 m 349 786 l 543 786 l 543 265 q 500 144 543 181 q 353 108 457 108 l 232 108 q 85 144 128 108 q 42 265 42 181 l 42 492 q 92 602 42 568 q 250 636 142 636 l 414 636 l 414 501 l 279 501 q 244 494 253 501 q 236 458 236 486 l 236 279 q 245 250 236 257 q 274 243 254 243 l 311 243 q 340 250 331 243 q 349 279 349 257 l 349 786 m 215 11 l 364 11 l 364 -150 l 215 -150 l 215 11 z "},"ह":{"ha":626,"x_min":-28,"x_max":658,"o":"m -28 883 l 658 883 l 658 749 l -28 749 l -28 883 m 369 661 l 369 818 l 564 818 l 564 526 l 292 526 q 264 519 272 526 q 256 496 256 513 l 256 469 q 264 446 256 453 q 292 439 272 439 l 379 439 q 526 403 483 439 q 568 282 568 367 l 568 228 l 374 228 l 374 268 q 365 297 374 290 q 338 304 356 304 l 292 304 q 264 297 272 304 q 256 268 256 290 l 256 171 q 264 142 256 149 q 292 135 272 135 l 568 135 l 568 0 l 251 0 q 108 36 156 0 q 61 157 61 72 l 61 294 q 78 347 61 331 q 122 368 94 364 l 122 374 q 78 394 94 378 q 61 447 61 411 l 61 524 q 98 628 61 594 q 231 661 135 661 l 369 661 z "},"ज":{"ha":913,"x_min":-28,"x_max":940,"o":"m 657 803 l 850 803 l 850 0 l 657 0 l 657 803 m -28 883 l 940 883 l 940 749 l -28 749 l -28 883 m 57 661 l 251 661 l 251 279 q 261 250 251 257 q 289 243 271 243 l 321 243 q 349 250 340 243 q 358 279 358 257 l 358 661 l 699 661 l 699 526 l 551 526 l 551 265 q 509 144 551 181 q 363 108 467 108 l 247 108 q 100 144 143 108 q 57 265 57 181 l 57 661 z "},"झ":{"ha":914,"x_min":-47,"x_max":942,"o":"m 49 239 l 243 239 l 243 -60 l 49 -60 l 49 239 m -47 883 l 942 883 l 942 749 l -47 749 l -47 883 m 660 808 l 853 808 l 853 0 l 658 0 l 660 808 m 331 824 l 525 824 l 525 536 l 278 536 q 251 529 260 536 q 243 504 243 522 l 243 464 q 251 439 243 446 q 278 432 260 432 l 682 432 l 682 307 l 482 307 l 532 343 q 546 276 546 317 l 546 169 q 509 65 546 99 q 376 32 472 32 l 200 32 l 200 157 l 315 157 q 343 164 335 157 q 351 189 351 171 l 351 275 q 343 300 351 293 q 315 307 335 307 l 218 307 q 85 340 121 307 q 49 443 49 374 l 49 524 q 85 628 49 594 q 218 661 121 661 l 331 661 l 331 824 z "},"क":{"ha":892,"x_min":-28,"x_max":919,"o":"m 349 822 l 543 822 l 543 0 l 349 0 l 349 822 m 293 661 l 293 536 l 268 536 q 240 529 249 536 q 232 504 232 522 l 232 279 q 240 250 232 257 q 268 243 249 243 l 313 243 q 340 251 332 243 q 349 281 349 258 l 367 196 q 351 130 367 151 q 285 108 336 108 l 199 108 q 78 144 119 108 q 38 265 38 181 l 38 524 q 74 628 38 594 q 207 661 111 661 l 293 661 m 693 661 q 814 625 774 661 q 854 504 854 589 l 854 246 q 817 142 854 175 q 685 108 781 108 l 600 108 l 600 233 l 625 233 q 651 240 643 233 q 660 265 660 247 l 660 490 q 651 519 660 513 q 625 526 643 526 l 579 526 q 552 519 561 526 q 543 489 543 511 l 525 574 q 541 640 525 618 q 608 661 557 661 l 693 661 m -28 883 l 919 883 l 919 749 l -28 749 l -28 883 z "},"ख":{"ha":1149,"x_min":-28,"x_max":1176,"o":"m 894 826 l 1088 826 l 1088 0 l 894 0 l 894 826 m 842 656 l 842 531 l 814 531 q 788 524 796 531 q 779 499 779 517 l 779 296 q 788 267 779 275 q 814 260 796 260 l 856 260 q 885 268 875 260 q 894 300 894 276 l 911 213 q 895 147 911 168 q 828 125 879 125 l 747 125 q 627 161 668 125 q 586 282 586 197 l 586 518 q 622 622 586 589 q 756 656 658 656 l 842 656 m 58 656 l 253 656 l 253 182 q 263 146 253 156 q 299 136 272 136 l 629 136 l 629 0 l 267 0 q 108 34 158 0 q 58 144 58 68 l 58 656 m -28 883 l 1176 883 l 1176 749 l 463 749 l 485 768 q 516 751 506 764 q 526 714 526 739 l 526 471 q 487 360 526 394 q 354 326 447 326 l 226 326 l 226 461 l 286 461 q 322 471 313 461 q 332 507 332 481 l 332 703 q 323 740 332 731 q 286 749 314 749 l -28 749 l -28 883 z "},"ख़":{"ha":1149,"x_min":-28,"x_max":1176,"o":"m 894 826 l 1088 826 l 1088 0 l 894 0 l 894 826 m 842 656 l 842 531 l 814 531 q 788 524 796 531 q 779 499 779 517 l 779 296 q 788 267 779 275 q 814 260 796 260 l 856 260 q 885 268 875 260 q 894 300 894 276 l 911 213 q 895 147 911 168 q 828 125 879 125 l 747 125 q 627 161 668 125 q 586 282 586 197 l 586 518 q 622 622 586 589 q 756 656 658 656 l 842 656 m 58 656 l 253 656 l 253 182 q 263 146 253 156 q 299 136 272 136 l 629 136 l 629 0 l 267 0 q 108 34 158 0 q 58 144 58 68 l 58 656 m -28 883 l 1176 883 l 1176 749 l 463 749 l 485 768 q 516 751 506 764 q 526 714 526 739 l 526 471 q 487 360 526 394 q 354 326 447 326 l 226 326 l 226 461 l 286 461 q 322 471 313 461 q 332 507 332 481 l 332 703 q 323 740 332 731 q 286 749 314 749 l -28 749 l -28 883 m 208 -72 l 357 -72 l 357 -233 l 208 -233 l 208 -72 z "},"ल":{"ha":931,"x_min":-28,"x_max":958,"o":"m -28 883 l 958 883 l 958 749 l -28 749 l -28 883 m 397 661 q 451 645 435 661 q 472 600 468 629 l 478 600 q 499 645 482 629 q 551 661 515 661 l 704 661 l 704 526 l 606 526 q 578 518 585 526 q 571 490 571 510 l 571 242 l 376 242 l 376 490 q 369 518 376 510 q 342 526 363 526 l 300 526 q 272 519 281 526 q 264 490 264 513 l 264 168 q 272 143 264 150 q 300 136 281 136 l 374 136 l 374 0 l 239 0 q 107 33 143 0 q 71 138 71 67 l 71 504 q 111 625 71 589 q 231 661 151 661 l 397 661 m 872 0 l 678 0 l 678 779 l 872 779 l 872 0 z "},"ळ":{"ha":928,"x_min":-36,"x_max":964,"o":"m -36 883 l 964 883 l 964 749 l -36 749 l -36 883 m 547 778 l 742 778 l 742 613 l 547 613 l 547 778 m 714 661 q 835 625 794 661 q 875 504 875 589 l 875 265 q 835 144 875 181 q 714 108 794 108 l 561 108 q 468 169 475 108 l 463 169 q 368 108 456 108 l 214 108 q 94 144 135 108 q 54 265 54 181 l 54 504 q 94 625 54 589 q 214 661 135 661 l 368 661 q 463 600 456 661 l 468 600 q 561 661 475 661 l 714 661 m 681 490 q 672 519 681 513 q 644 526 664 526 l 592 526 q 563 518 569 526 q 556 490 556 510 l 556 279 q 563 252 556 261 q 592 243 569 243 l 644 243 q 672 250 664 243 q 681 279 681 257 l 681 490 m 372 490 q 365 518 372 510 q 336 526 358 526 l 283 526 q 256 519 264 526 q 247 490 247 513 l 247 279 q 256 250 247 257 q 283 243 264 243 l 336 243 q 365 252 358 243 q 372 279 372 261 l 372 490 m 215 24 l 364 24 l 364 -137 l 215 -137 l 215 24 z "},"ऴ":{"ha":928,"x_min":-36,"x_max":964,"o":"m -36 883 l 964 883 l 964 749 l -36 749 l -36 883 m 547 778 l 742 778 l 742 613 l 547 613 l 547 778 m 714 661 q 835 625 794 661 q 875 504 875 589 l 875 265 q 835 144 875 181 q 714 108 794 108 l 561 108 q 468 169 475 108 l 463 169 q 368 108 456 108 l 214 108 q 94 144 135 108 q 54 265 54 181 l 54 504 q 94 625 54 589 q 214 661 135 661 l 368 661 q 463 600 456 661 l 468 600 q 561 661 475 661 l 714 661 m 681 490 q 672 519 681 513 q 644 526 664 526 l 592 526 q 563 518 569 526 q 556 490 556 510 l 556 279 q 563 252 556 261 q 592 243 569 243 l 644 243 q 672 250 664 243 q 681 279 681 257 l 681 490 m 372 490 q 365 518 372 510 q 336 526 358 526 l 283 526 q 256 519 264 526 q 247 490 247 513 l 247 279 q 256 250 247 257 q 283 243 264 243 l 336 243 q 365 252 358 243 q 372 279 372 261 l 372 490 m 215 24 l 364 24 l 364 -137 l 215 -137 l 215 24 z "},"म":{"ha":922,"x_min":-28,"x_max":950,"o":"m 350 783 l 543 783 l 543 278 q 501 157 543 193 q 354 121 458 121 l 233 121 q 86 157 129 121 q 43 278 43 193 l 43 463 q 80 567 43 533 q 213 600 117 600 l 768 600 l 768 465 l 256 465 q 229 459 238 465 q 221 433 221 453 l 221 292 q 230 263 221 269 q 257 256 239 256 l 313 256 q 340 263 331 256 q 350 292 350 269 l 350 783 m 667 785 l 861 785 l 861 0 l 667 0 l 667 785 m -28 883 l 950 883 l 950 749 l -28 749 l -28 883 z "},"न":{"ha":888,"x_min":-28,"x_max":915,"o":"m 631 785 l 825 785 l 825 0 l 631 0 l 631 785 m -28 883 l 915 883 l 915 749 l -28 749 l -28 883 m 536 265 q 494 144 536 181 q 346 108 451 108 l 233 108 q 86 144 129 108 q 43 265 43 181 l 43 524 q 80 628 43 594 q 213 661 117 661 l 733 661 l 733 526 l 274 526 q 246 519 254 526 q 238 494 238 513 l 238 279 q 247 250 238 257 q 275 243 257 243 l 304 243 q 333 250 324 243 q 342 279 342 257 l 342 560 l 536 560 l 536 265 z "},"ङ":{"ha":689,"x_min":-28,"x_max":717,"o":"m -28 883 l 717 883 l 717 749 l -28 749 l -28 883 m 319 824 l 513 824 l 513 536 l 288 536 q 261 529 269 536 q 253 504 253 522 l 253 453 q 261 426 253 433 q 288 419 269 419 l 371 419 q 503 386 467 419 q 539 283 539 353 l 539 138 q 503 33 539 67 q 371 0 467 0 l 217 0 q 83 33 119 0 q 47 138 47 67 l 47 224 l 242 224 l 242 157 q 249 132 242 139 q 271 125 256 125 l 310 125 q 338 132 329 125 q 346 157 346 139 l 346 263 q 338 289 346 282 q 310 296 329 296 l 228 296 q 94 329 131 296 q 58 432 58 363 l 58 524 q 94 628 58 594 q 228 661 131 661 l 319 661 l 319 824 m 536 565 l 685 565 l 685 404 l 536 404 l 536 565 z "},"ण":{"ha":922,"x_min":-28,"x_max":950,"o":"m 667 803 l 860 803 l 860 0 l 667 0 l 667 803 m -28 883 l 950 883 l 950 749 l -28 749 l -28 883 m 57 790 l 251 790 l 251 279 q 261 250 251 257 q 289 243 271 243 l 321 243 q 349 250 340 243 q 358 279 358 257 l 358 790 l 551 790 l 551 265 q 509 144 551 181 q 363 108 467 108 l 247 108 q 100 144 143 108 q 57 265 57 181 l 57 790 z "},"ञ":{"ha":899,"x_min":-28,"x_max":926,"o":"m 642 785 l 836 785 l 836 0 l 642 0 l 642 785 m -28 883 l 926 883 l 926 749 l -28 749 l -28 883 m 32 368 l 226 368 l 226 279 q 235 250 226 257 q 264 243 244 243 l 293 243 q 322 250 313 243 q 331 279 331 257 l 331 494 q 322 519 331 513 q 294 526 314 526 l 160 526 l 160 661 l 356 661 q 488 623 451 661 q 524 514 524 585 l 524 265 q 481 144 524 181 q 335 108 439 108 l 221 108 q 74 144 117 108 q 32 265 32 181 l 32 368 m 431 326 l 431 461 l 743 461 l 743 326 l 431 326 z "},"प":{"ha":629,"x_min":-28,"x_max":657,"o":"m -28 883 l 657 883 l 657 749 l -28 749 l -28 883 m 372 822 l 567 822 l 567 0 l 372 0 l 372 822 m 61 821 l 256 821 l 256 279 q 264 250 256 257 q 292 243 272 243 l 336 243 q 364 251 356 243 q 372 281 372 258 l 390 196 q 375 130 390 151 q 308 108 360 108 l 222 108 q 102 144 143 108 q 61 265 61 181 l 61 821 z "},"फ":{"ha":913,"x_min":-28,"x_max":940,"o":"m 369 821 l 564 821 l 564 0 l 369 0 l 369 821 m 58 821 l 253 821 l 253 279 q 261 250 253 257 q 289 243 269 243 l 333 243 q 361 251 353 243 q 369 281 369 258 l 388 196 q 372 130 388 151 q 304 108 356 108 l 219 108 q 99 144 140 108 q 58 265 58 181 l 58 821 m 714 661 q 835 625 794 661 q 875 504 875 589 l 875 246 q 838 142 875 175 q 706 108 801 108 l 621 108 l 621 233 l 646 233 q 672 240 664 233 q 681 265 681 247 l 681 490 q 672 519 681 513 q 646 526 664 526 l 600 526 q 573 519 582 526 q 564 489 564 511 l 546 574 q 562 640 546 618 q 629 661 578 661 l 714 661 m -28 883 l 940 883 l 940 749 l -28 749 l -28 883 z "},"क़":{"ha":892,"x_min":-28,"x_max":919,"o":"m 349 822 l 543 822 l 543 0 l 349 0 l 349 822 m 293 661 l 293 536 l 268 536 q 240 529 249 536 q 232 504 232 522 l 232 279 q 240 250 232 257 q 268 243 249 243 l 313 243 q 340 251 332 243 q 349 281 349 258 l 367 196 q 351 130 367 151 q 285 108 336 108 l 199 108 q 78 144 119 108 q 38 265 38 181 l 38 524 q 74 628 38 594 q 207 661 111 661 l 293 661 m 693 661 q 814 625 774 661 q 854 504 854 589 l 854 246 q 817 142 854 175 q 685 108 781 108 l 600 108 l 600 233 l 625 233 q 651 240 643 233 q 660 265 660 247 l 660 490 q 651 519 660 513 q 625 526 643 526 l 579 526 q 552 519 561 526 q 543 489 543 511 l 525 574 q 541 640 525 618 q 608 661 557 661 l 693 661 m -28 883 l 919 883 l 919 749 l -28 749 l -28 883 m 107 13 l 256 13 l 256 -149 l 107 -149 l 107 13 z "},"र":{"ha":599,"x_min":-28,"x_max":626,"o":"m 57 644 l 251 644 l 251 157 q 260 132 251 139 q 288 125 268 125 l 318 125 q 340 132 333 125 q 347 157 347 139 l 347 286 l 542 286 l 542 138 q 506 33 542 67 q 372 0 469 0 l 226 0 q 94 33 131 0 q 57 138 57 67 l 57 644 m -28 883 l 626 883 l 626 749 l 478 749 l 501 768 q 532 751 521 764 q 543 714 543 739 l 543 507 q 493 395 543 429 q 335 361 443 361 l 231 361 l 231 496 l 303 496 q 339 506 329 496 q 349 542 349 515 l 349 703 q 340 740 349 731 q 303 749 331 749 l -28 749 l -28 883 z "},"ढ़":{"ha":660,"x_min":-28,"x_max":688,"o":"m -28 883 l 688 883 l 688 749 l -28 749 l -28 883 m 360 818 l 553 818 l 553 526 l 293 526 q 265 519 275 526 q 256 490 256 513 l 256 171 q 265 142 256 149 q 293 135 275 135 l 376 135 q 405 142 396 135 q 414 171 414 149 l 414 243 q 405 272 414 265 q 376 279 396 279 l 317 279 l 317 414 l 418 414 q 565 378 522 414 q 608 257 608 342 l 608 157 q 565 36 608 72 q 418 0 522 0 l 251 0 q 104 36 147 0 q 61 157 61 72 l 61 524 q 98 628 61 594 q 231 661 135 661 l 360 661 l 360 818 m 261 -75 l 410 -75 l 410 -236 l 261 -236 l 261 -75 z "},"ऱ":{"ha":599,"x_min":-28,"x_max":626,"o":"m 57 644 l 251 644 l 251 157 q 260 132 251 139 q 288 125 268 125 l 318 125 q 340 132 333 125 q 347 157 347 139 l 347 286 l 542 286 l 542 138 q 506 33 542 67 q 372 0 469 0 l 226 0 q 94 33 131 0 q 57 138 57 67 l 57 644 m -28 883 l 626 883 l 626 749 l 478 749 l 501 768 q 532 751 521 764 q 543 714 543 739 l 543 507 q 493 395 543 429 q 335 361 443 361 l 231 361 l 231 496 l 303 496 q 339 506 329 496 q 349 542 349 515 l 349 703 q 340 740 349 731 q 303 749 331 749 l -28 749 l -28 883 m 208 -93 l 357 -93 l 357 -254 l 208 -254 l 208 -93 z "},"स":{"ha":899,"x_min":-28,"x_max":926,"o":"m 57 644 l 251 644 l 251 157 q 260 132 251 139 q 288 125 268 125 l 318 125 q 340 132 333 125 q 347 157 347 139 l 347 286 l 542 286 l 542 138 q 506 33 542 67 q 372 0 469 0 l 226 0 q 94 33 131 0 q 57 138 57 67 l 57 644 m -28 883 l 926 883 l 926 749 l 478 749 l 501 768 q 532 751 521 764 q 543 714 543 739 l 543 546 q 511 483 543 500 q 422 464 479 467 l 411 496 l 724 496 l 724 361 l 231 361 l 231 496 l 303 496 q 339 506 329 496 q 349 542 349 515 l 349 703 q 340 740 349 731 q 303 749 331 749 l -28 749 l -28 883 m 644 779 l 838 779 l 838 0 l 644 0 l 644 779 z "},"श":{"ha":926,"x_min":78,"x_max":954,"o":"m 78 550 l 271 550 l 271 157 q 279 132 271 139 q 307 125 288 125 l 338 125 q 360 132 353 125 q 367 157 367 139 l 367 263 l 561 263 l 561 138 q 525 33 561 67 q 392 0 489 0 l 246 0 q 114 33 150 0 q 78 138 78 67 l 78 550 m 393 889 q 526 851 489 889 q 563 742 563 813 l 563 483 q 513 372 563 406 q 354 338 463 338 l 250 338 l 250 472 l 322 472 q 358 482 349 472 q 368 518 368 492 l 368 722 q 360 747 368 740 q 332 754 351 754 l 301 754 q 280 747 288 754 q 272 722 272 740 l 272 639 l 78 639 l 78 742 q 114 851 78 813 q 247 889 150 889 l 393 889 m 671 883 l 954 883 l 954 749 l 864 749 l 864 0 l 671 0 l 671 883 z "},"ष":{"ha":693,"x_min":-28,"x_max":721,"o":"m -28 883 l 721 883 l 721 749 l -28 749 l -28 883 m 61 821 l 250 821 l 250 782 l 381 547 q 433 438 415 485 q 450 392 450 392 q 444 441 450 392 q 438 568 438 490 l 438 822 l 632 822 l 632 0 l 438 0 l 438 218 l 444 246 l 311 488 q 260 594 278 549 q 243 639 243 639 q 249 592 243 639 q 256 471 256 544 l 256 279 q 264 250 256 257 q 292 243 272 243 l 401 243 q 428 251 419 243 q 438 281 438 258 l 456 196 q 440 130 456 151 q 372 108 424 108 l 222 108 q 102 144 143 108 q 61 265 61 181 l 61 821 z "},"त":{"ha":635,"x_min":-28,"x_max":663,"o":"m 574 789 l 574 0 l 379 0 l 379 789 l 574 789 m -28 883 l 663 883 l 663 749 l -28 749 l -28 883 m 406 661 l 406 526 l 288 526 q 260 519 268 526 q 251 494 251 513 l 251 168 q 260 143 251 150 q 288 136 268 136 l 313 136 l 313 0 l 226 0 q 94 33 131 0 q 57 138 57 67 l 57 524 q 94 628 57 594 q 226 661 131 661 l 406 661 z "},"थ":{"ha":813,"x_min":68,"x_max":840,"o":"m 556 883 l 840 883 l 840 749 l 557 749 l 556 883 m 557 822 l 750 822 l 750 0 l 557 0 l 557 822 m 304 890 q 425 858 386 890 q 464 754 464 825 l 464 551 q 427 442 464 481 q 294 404 390 404 l 263 404 l 263 279 q 271 250 263 257 q 297 243 279 243 l 510 243 q 547 253 538 243 q 557 290 557 264 l 575 186 q 557 128 575 149 q 496 108 539 108 l 257 108 q 115 144 161 108 q 68 265 68 181 l 68 539 l 233 539 q 261 546 253 539 q 269 571 269 553 l 269 724 q 261 749 269 743 q 233 756 253 756 l 225 756 q 199 749 207 756 q 190 724 190 743 l 190 669 l 81 669 l 81 754 q 119 858 81 825 q 239 890 157 890 l 304 890 z "},"ट":{"ha":614,"x_min":-28,"x_max":642,"o":"m 360 818 l 553 818 l 553 526 l 293 526 q 265 519 275 526 q 256 490 256 513 l 256 171 q 265 142 256 149 q 293 135 275 135 l 325 135 q 353 142 344 135 q 363 171 363 149 l 363 314 l 556 314 l 556 157 q 513 36 556 72 q 367 0 471 0 l 251 0 q 104 36 147 0 q 61 157 61 72 l 61 524 q 98 628 61 594 q 231 661 135 661 l 360 661 l 360 818 m -28 883 l 642 883 l 642 749 l -28 749 l -28 883 z "},"ठ":{"ha":628,"x_min":-28,"x_max":656,"o":"m -28 883 l 656 883 l 656 749 l -28 749 l -28 883 m 379 661 q 526 625 483 661 q 569 504 569 589 l 569 157 q 526 36 569 72 q 379 0 483 0 l 251 0 q 104 36 147 0 q 61 157 61 72 l 61 504 q 104 625 61 589 q 251 661 147 661 l 379 661 m 218 779 l 413 779 l 413 622 l 218 622 l 218 779 m 375 490 q 366 519 375 513 q 338 526 357 526 l 293 526 q 265 519 275 526 q 256 490 256 513 l 256 171 q 265 142 256 149 q 293 135 275 135 l 338 135 q 366 142 357 135 q 375 171 375 149 l 375 490 z "},"व":{"ha":625,"x_min":-28,"x_max":653,"o":"m -28 883 l 653 883 l 653 749 l -28 749 l -28 883 m 369 822 l 564 822 l 564 0 l 369 0 l 369 822 m 313 661 l 313 526 l 289 526 q 261 519 269 526 q 253 494 253 513 l 253 279 q 261 250 253 257 q 289 243 269 243 l 333 243 q 361 251 353 243 q 369 281 369 258 l 388 196 q 372 130 388 151 q 304 108 356 108 l 219 108 q 99 144 140 108 q 58 265 58 181 l 58 524 q 95 628 58 594 q 228 661 132 661 l 313 661 z "},"य":{"ha":789,"x_min":-36,"x_max":817,"o":"m -36 883 l 817 883 l 817 749 l -36 749 l -36 883 m 533 822 l 728 822 l 728 0 l 533 0 l 533 822 m 431 549 q 416 469 431 503 q 366 419 401 436 q 265 403 331 403 l 247 403 l 247 279 q 256 250 247 257 q 283 243 264 243 l 486 243 q 524 253 514 243 q 533 290 533 264 l 551 186 q 533 128 551 149 q 472 108 515 108 l 243 108 q 101 144 147 108 q 54 265 54 181 l 54 538 l 208 538 q 235 544 228 538 q 243 569 243 551 l 243 703 q 234 740 243 731 q 192 749 225 749 l 301 779 q 397 763 363 779 q 431 694 431 746 l 431 549 z "},"ज़":{"ha":913,"x_min":-28,"x_max":940,"o":"m 657 803 l 850 803 l 850 0 l 657 0 l 657 803 m -28 883 l 940 883 l 940 749 l -28 749 l -28 883 m 57 661 l 251 661 l 251 279 q 261 250 251 257 q 289 243 271 243 l 321 243 q 349 250 340 243 q 358 279 358 257 l 358 661 l 699 661 l 699 526 l 551 526 l 551 265 q 509 144 551 181 q 363 108 467 108 l 247 108 q 100 144 143 108 q 57 265 57 181 l 57 661 m 236 13 l 385 13 l 385 -149 l 236 -149 l 236 13 z "},"८":{"ha":635,"x_min":54,"x_max":579,"o":"m 246 349 l 246 179 q 254 152 246 160 q 283 144 263 144 l 326 144 l 326 0 l 231 0 q 95 41 136 0 q 54 154 54 82 l 54 328 q 68 404 54 374 q 115 449 82 435 q 68 497 82 464 q 54 578 54 531 l 54 729 q 95 842 54 801 q 231 883 136 883 l 324 883 l 324 739 l 283 739 q 254 731 263 739 q 246 704 246 724 l 246 544 q 254 519 246 526 q 283 511 263 511 l 322 511 l 322 383 l 283 383 q 254 376 263 383 q 246 349 246 368 m 389 544 l 389 704 q 381 731 389 724 q 351 739 372 739 l 317 739 l 317 883 l 404 883 q 539 842 499 883 q 579 729 579 801 l 579 578 q 566 497 579 531 q 518 449 553 464 q 566 404 553 435 q 579 328 579 374 l 579 154 q 539 41 579 82 q 404 0 499 0 l 317 0 l 317 144 l 351 144 q 381 152 372 144 q 389 179 389 160 l 389 349 q 381 376 389 368 q 351 383 372 383 l 311 383 l 311 511 l 351 511 q 381 519 372 511 q 389 544 389 526 z "},"५":{"ha":618,"x_min":56,"x_max":574,"o":"m 254 299 l 254 181 q 263 154 254 163 q 292 146 271 146 l 340 146 q 369 154 361 146 q 378 181 378 163 l 378 390 q 369 417 378 410 q 340 425 361 425 l 182 425 l 182 571 l 397 571 q 533 530 492 571 q 574 417 574 489 l 574 154 q 533 41 574 82 q 397 0 492 0 l 232 0 q 97 41 138 0 q 56 154 56 82 l 56 299 l 254 299 m 260 425 l 64 425 l 64 883 l 564 883 l 564 738 l 260 738 l 260 425 z "},"४":{"ha":629,"x_min":13,"x_max":629,"o":"m 71 165 l 71 313 l 629 313 l 629 165 l 71 165 m 13 165 l 13 338 l 314 883 l 514 883 l 107 165 l 13 165 m 353 486 l 540 486 l 540 0 l 353 0 l 353 486 z "},"९":{"ha":625,"x_min":46,"x_max":568,"o":"m 240 703 l 240 519 q 249 492 240 500 q 278 485 257 485 l 426 485 l 426 349 l 222 349 q 87 390 128 349 q 46 501 46 431 l 46 729 q 87 842 46 801 q 222 883 128 883 l 314 883 l 314 738 l 278 738 q 249 730 257 738 q 240 703 240 722 m 374 181 l 374 703 q 366 730 374 722 q 338 738 358 738 l 301 738 l 301 883 l 392 883 q 528 842 488 883 q 568 729 568 801 l 568 154 q 528 41 568 82 q 392 0 488 0 l 301 0 l 301 146 l 338 146 q 366 154 358 146 q 374 181 374 163 m 247 267 l 247 181 q 256 154 247 163 q 285 146 264 146 l 321 146 l 321 0 l 231 0 q 95 41 136 0 q 54 154 54 82 l 54 267 l 247 267 z "},"१":{"ha":403,"x_min":26,"x_max":340,"o":"m 265 883 l 265 738 l 26 738 l 26 883 l 265 883 m 142 883 l 340 883 l 340 0 l 142 0 l 142 883 z "},"७":{"ha":517,"x_min":13,"x_max":510,"o":"m 463 883 l 463 728 l 13 728 l 13 883 l 463 883 m 510 883 l 510 772 l 254 0 l 49 0 l 353 883 l 510 883 z "},"६":{"ha":628,"x_min":57,"x_max":579,"o":"m 385 181 l 385 346 q 377 373 385 365 q 347 381 369 381 l 199 381 l 199 521 l 403 521 q 538 480 497 521 q 579 368 579 439 l 579 154 q 538 41 579 82 q 403 0 497 0 l 311 0 l 311 146 l 347 146 q 377 154 369 146 q 385 181 385 163 m 251 703 l 251 181 q 260 154 251 163 q 288 146 268 146 l 324 146 l 324 0 l 233 0 q 98 41 139 0 q 57 154 57 82 l 57 729 q 98 842 57 801 q 233 883 139 883 l 324 883 l 324 738 l 288 738 q 260 730 268 738 q 251 703 251 722 m 375 611 l 375 703 q 367 730 375 722 q 338 738 360 738 l 304 738 l 304 883 l 393 883 q 528 842 488 883 q 569 729 569 801 l 569 611 l 375 611 z "},"३":{"ha":599,"x_min":36,"x_max":543,"o":"m 236 703 l 236 599 l 36 599 l 36 729 q 77 842 36 801 q 213 883 118 883 l 368 883 q 503 842 463 883 q 543 729 543 801 l 543 579 q 530 499 543 532 q 481 450 517 467 q 530 406 517 436 q 543 329 543 376 l 543 154 q 503 41 543 82 q 368 0 463 0 l 213 0 q 77 41 118 0 q 36 154 36 82 l 36 283 l 236 283 l 236 181 q 244 154 236 163 q 272 146 253 146 l 310 146 q 340 154 332 146 q 347 181 347 163 l 347 344 q 340 372 347 364 q 310 379 332 379 l 201 379 l 201 517 l 310 517 q 340 524 332 517 q 347 550 347 532 l 347 703 q 340 730 347 722 q 310 738 332 738 l 272 738 q 244 730 253 738 q 236 703 236 722 z "},"२":{"ha":576,"x_min":33,"x_max":539,"o":"m 232 703 l 232 586 l 33 586 l 33 729 q 74 842 33 801 q 208 883 114 883 l 358 883 q 494 842 453 883 q 536 729 536 801 l 536 618 q 517 504 536 551 q 457 406 497 457 l 279 146 l 539 146 l 539 0 l 38 0 l 38 135 l 282 463 q 328 540 317 507 q 340 619 340 574 l 340 703 q 332 730 340 722 q 303 738 324 738 l 268 738 q 240 730 249 738 q 232 703 232 722 z "},"०":{"ha":638,"x_min":57,"x_max":581,"o":"m 581 729 l 581 154 q 540 41 581 82 q 406 0 500 0 l 233 0 q 98 41 139 0 q 57 154 57 82 l 57 729 q 98 842 57 801 q 233 883 139 883 l 406 883 q 540 842 500 883 q 581 729 581 801 m 382 181 l 382 703 q 374 730 382 722 q 344 738 365 738 l 293 738 q 264 730 272 738 q 256 703 256 722 l 256 181 q 264 154 256 163 q 293 146 272 146 l 344 146 q 374 154 365 146 q 382 181 382 163 z "},"⁄":{"ha":560,"x_min":-17,"x_max":561,"o":"m 393 974 l 561 974 l 153 -115 l -17 -115 l 393 974 z "},"¹":{"ha":264,"x_min":14,"x_max":204,"o":"m 146 883 l 146 799 l 14 799 l 14 883 l 146 883 m 78 883 l 204 883 l 204 397 l 78 397 l 78 883 z "},"³":{"ha":357,"x_min":19,"x_max":325,"o":"m 143 781 l 143 728 l 19 728 l 19 799 q 42 861 19 839 q 117 883 64 883 l 229 883 q 303 861 281 883 q 325 799 325 839 l 325 713 q 318 668 325 686 q 292 642 311 650 q 318 617 311 635 q 325 575 325 600 l 325 482 q 303 420 325 443 q 229 397 281 397 l 117 397 q 42 420 64 397 q 19 482 19 443 l 19 554 l 143 554 l 143 501 q 148 487 143 492 q 163 482 153 482 l 183 482 q 200 487 196 482 q 204 501 204 492 l 204 582 q 200 597 204 593 q 183 600 196 600 l 135 600 l 135 681 l 183 681 q 200 685 196 681 q 204 699 204 689 l 204 781 q 200 794 204 790 q 183 799 196 799 l 163 799 q 148 794 153 799 q 143 781 143 790 z "},"²":{"ha":354,"x_min":18,"x_max":324,"o":"m 142 781 l 142 710 l 18 710 l 18 799 q 41 861 18 839 q 115 883 64 883 l 226 883 q 301 861 279 883 q 322 799 322 839 l 322 746 q 310 669 322 701 q 274 611 297 638 l 169 488 l 324 488 l 324 397 l 21 397 l 21 478 l 174 651 q 196 690 192 672 q 200 739 200 707 l 200 781 q 196 794 200 790 q 181 799 192 799 l 163 799 q 147 794 151 799 q 142 781 142 790 z "},"\r":{"ha":249,"x_min":0,"x_max":0,"o":""},"\u0000":{"ha":0,"x_min":0,"x_max":0,"o":""},"‍":{"ha":0,"x_min":0,"x_max":0,"o":""},"﻿":{"ha":0,"x_min":0,"x_max":0,"o":""},"‌":{"ha":0,"x_min":-32,"x_max":33,"o":"m 33 -319 l -32 -319 l -32 1126 l 33 1126 l 33 -319 z "}," ":{"ha":249,"x_min":0,"x_max":0,"o":""}," ":{"ha":249,"x_min":0,"x_max":0,"o":""},"​":{"ha":0,"x_min":0,"x_max":0,"o":""},"॰":{"ha":533,"x_min":74,"x_max":460,"o":"m 74 438 q 126 585 74 535 q 265 635 179 635 q 407 585 354 635 q 460 438 460 535 q 407 290 460 339 q 265 240 354 240 q 126 290 179 240 q 74 438 74 339 m 214 438 q 227 372 214 390 q 265 354 240 354 q 306 372 292 354 q 319 438 319 390 q 306 503 319 485 q 265 521 293 521 q 226 503 239 521 q 214 438 214 485 z "},"।":{"ha":533,"x_min":171,"x_max":363,"o":"m 363 928 l 363 -44 l 171 -44 l 171 928 l 363 928 z "},"॥":{"ha":836,"x_min":171,"x_max":665,"o":"m 363 928 l 363 -44 l 171 -44 l 171 928 l 363 928 m 665 928 l 665 -44 l 474 -44 l 474 928 l 665 928 z "},"*":{"ha":506,"x_min":24,"x_max":482,"o":"m 275 667 l 232 667 q 219 687 232 667 q 192 749 206 707 q 179 851 179 790 l 179 883 l 326 883 l 326 850 q 314 749 326 790 q 288 687 301 707 q 275 667 275 667 m 260 688 l 247 646 q 224 640 247 646 q 157 634 200 633 q 54 653 114 635 l 24 664 l 69 803 l 101 793 q 194 750 160 775 q 244 706 229 725 q 260 688 260 688 m 236 679 l 271 654 q 269 630 271 654 q 255 565 268 606 q 204 474 242 524 l 185 447 l 65 533 l 86 561 q 156 635 122 610 q 213 669 190 660 q 236 679 236 679 m 236 654 l 271 679 q 294 670 271 679 q 351 636 317 661 q 422 561 386 611 l 442 535 l 322 447 l 301 475 q 253 565 267 525 q 238 630 239 606 q 236 654 236 654 m 260 646 l 247 688 q 262 706 247 688 q 312 750 276 725 q 406 794 347 775 l 438 804 l 482 664 l 450 653 q 350 634 393 635 q 283 640 307 633 q 260 646 260 646 z "},"\\":{"ha":560,"x_min":-1,"x_max":576,"o":"m -1 974 l 168 974 l 576 -115 l 407 -115 l -1 974 z "},"•":{"ha":550,"x_min":78,"x_max":472,"o":"m 78 446 q 104 545 78 500 q 176 617 131 590 q 275 643 221 643 q 374 617 329 643 q 446 545 419 590 q 472 446 472 500 q 446 347 472 392 q 374 275 419 301 q 275 249 329 249 q 176 275 221 249 q 104 347 131 301 q 78 446 78 392 z "},":":{"ha":304,"x_min":51,"x_max":253,"o":"m 51 481 l 51 688 l 253 688 l 253 481 l 51 481 m 51 0 l 51 206 l 253 206 l 253 0 l 51 0 z "},",":{"ha":304,"x_min":51,"x_max":253,"o":"m 51 206 l 253 206 l 253 94 l 114 -201 l 51 -201 l 51 206 z "},"…":{"ha":940,"x_min":61,"x_max":904,"o":"m 61 0 l 61 204 l 268 204 l 268 0 l 61 0 m 381 0 l 381 204 l 586 204 l 586 0 l 381 0 m 699 0 l 699 204 l 904 204 l 904 0 l 699 0 z "},"!":{"ha":367,"x_min":69,"x_max":297,"o":"m 69 883 l 297 883 l 263 308 l 104 308 l 69 883 m 82 0 l 82 206 l 283 206 l 283 0 l 82 0 z "},"¡":{"ha":367,"x_min":69,"x_max":297,"o":"m 69 -196 l 104 379 l 263 379 l 297 -196 l 69 -196 m 82 688 l 283 688 l 283 481 l 82 481 l 82 688 z "},"#":{"ha":846,"x_min":42,"x_max":804,"o":"m 274 882 l 442 882 l 258 0 l 90 0 l 274 882 m 804 675 l 804 544 l 100 544 l 100 675 l 804 675 m 572 0 l 404 0 l 588 882 l 756 882 l 572 0 m 42 207 l 42 339 l 746 339 l 746 207 l 42 207 z "},".":{"ha":304,"x_min":51,"x_max":253,"o":"m 51 0 l 51 206 l 253 206 l 253 0 l 51 0 z "},"·":{"ha":349,"x_min":60,"x_max":261,"o":"m 60 358 l 60 556 l 261 556 l 261 358 l 60 358 z "},"?":{"ha":585,"x_min":28,"x_max":546,"o":"m 347 544 l 347 713 q 340 739 347 731 q 311 747 332 747 l 274 747 l 274 883 l 371 883 q 506 842 465 883 q 546 731 546 800 l 546 549 q 506 438 546 479 q 371 396 465 396 l 244 396 l 244 510 l 311 510 q 340 518 332 510 q 347 544 347 526 m 176 510 l 378 510 l 360 308 l 194 308 l 176 510 m 174 0 l 174 206 l 375 206 l 375 0 l 174 0 m 226 713 l 226 617 l 28 617 l 28 731 q 68 842 28 800 q 204 883 108 883 l 289 883 l 289 747 l 264 747 q 235 739 243 747 q 226 713 226 731 z "},"¿":{"ha":585,"x_min":28,"x_max":546,"o":"m 226 143 l 226 -25 q 234 -51 226 -43 q 263 -60 242 -60 l 301 -60 l 301 -196 l 204 -196 q 68 -154 108 -196 q 28 -43 28 -112 l 28 139 q 68 250 28 208 q 204 292 108 292 l 329 292 l 329 178 l 263 178 q 234 169 242 178 q 226 143 226 161 m 397 178 l 196 178 l 214 379 l 381 379 l 397 178 m 400 688 l 400 481 l 199 481 l 199 688 l 400 688 m 347 -25 l 347 71 l 546 71 l 546 -43 q 506 -154 546 -112 q 371 -196 465 -196 l 285 -196 l 285 -60 l 311 -60 q 340 -51 332 -60 q 347 -25 347 -43 z "},";":{"ha":304,"x_min":51,"x_max":253,"o":"m 51 206 l 253 206 l 253 94 l 114 -201 l 51 -201 l 51 206 m 51 481 l 51 688 l 253 688 l 253 481 l 51 481 z "},"/":{"ha":560,"x_min":-17,"x_max":561,"o":"m 393 974 l 561 974 l 153 -115 l -17 -115 l 393 974 z "},"—":{"ha":928,"x_min":44,"x_max":875,"o":"m 44 347 l 44 483 l 875 483 l 875 347 l 44 347 z "},"–":{"ha":744,"x_min":53,"x_max":589,"o":"m 53 347 l 53 483 l 589 483 l 589 347 l 53 347 z "},"-":{"ha":461,"x_min":42,"x_max":418,"o":"m 42 347 l 42 483 l 418 483 l 418 347 l 42 347 z "},"­":{"ha":461,"x_min":42,"x_max":418,"o":"m 42 347 l 42 483 l 418 483 l 418 347 l 42 347 z "},"_":{"ha":658,"x_min":0,"x_max":658,"o":"m 0 -193 l 0 -57 l 658 -57 l 658 -193 l 0 -193 z "},"{":{"ha":431,"x_min":18,"x_max":417,"o":"m 333 922 l 333 610 q 303 488 333 528 q 225 438 272 447 q 304 392 275 433 q 333 278 333 350 l 333 -49 q 342 -76 333 -68 q 371 -85 350 -85 l 417 -85 l 417 -221 l 306 -221 q 173 -174 211 -221 q 135 -58 135 -128 l 135 243 q 111 339 135 308 q 32 369 88 369 l 18 369 l 18 506 l 32 506 q 111 536 88 506 q 135 633 135 567 l 135 932 q 173 1047 135 1000 q 306 1094 211 1094 l 417 1094 l 417 958 l 371 958 q 342 950 350 958 q 333 922 333 942 z "},"}":{"ha":431,"x_min":13,"x_max":413,"o":"m 97 610 l 97 922 q 88 950 97 942 q 58 958 79 958 l 13 958 l 13 1094 l 124 1094 q 258 1047 219 1094 q 296 932 296 1000 l 296 633 q 319 536 296 567 q 397 506 342 506 l 413 506 l 413 369 l 397 369 q 319 339 342 369 q 296 243 296 308 l 296 -58 q 258 -174 296 -128 q 124 -221 219 -221 l 13 -221 l 13 -85 l 58 -85 q 88 -76 79 -85 q 97 -49 97 -68 l 97 278 q 126 392 97 350 q 204 438 156 433 q 128 488 158 447 q 97 610 97 528 z "},"[":{"ha":438,"x_min":65,"x_max":396,"o":"m 139 949 l 139 1094 l 396 1094 l 396 949 l 139 949 m 65 1094 l 264 1094 l 264 -222 l 65 -222 l 65 1094 m 135 -222 l 135 -76 l 396 -76 l 396 -222 l 135 -222 z "},"]":{"ha":438,"x_min":32,"x_max":363,"o":"m 289 1094 l 289 949 l 32 949 l 32 1094 l 289 1094 m 164 1094 l 363 1094 l 363 -222 l 164 -222 l 164 1094 m 293 -76 l 293 -222 l 32 -222 l 32 -76 l 293 -76 z "},"(":{"ha":429,"x_min":60,"x_max":431,"o":"m 60 626 q 151 986 60 861 q 415 1111 243 1111 l 431 1111 l 431 946 l 417 946 q 331 910 367 944 q 276 805 296 875 q 257 629 257 735 l 257 246 q 276 71 257 140 q 331 -33 296 1 q 417 -71 367 -68 l 431 -71 l 431 -236 l 415 -236 q 151 -111 243 -236 q 60 250 60 14 l 60 626 z "},")":{"ha":429,"x_min":-3,"x_max":369,"o":"m 369 250 q 277 -111 369 14 q 13 -236 185 -236 l -3 -236 l -3 -71 l 13 -71 q 98 -33 63 -68 q 152 71 133 1 q 171 246 171 140 l 171 629 q 152 805 171 735 q 98 910 133 875 q 13 946 63 944 l -3 946 l -3 1111 l 13 1111 q 277 986 185 1111 q 369 626 369 861 l 369 250 z "},"«":{"ha":690,"x_min":32,"x_max":667,"o":"m 190 138 l 32 351 l 190 563 l 376 563 l 221 351 l 376 138 l 190 138 m 479 138 l 322 351 l 479 563 l 667 563 l 510 351 l 667 138 l 479 138 z "},"»":{"ha":690,"x_min":32,"x_max":667,"o":"m 376 351 l 219 138 l 32 138 l 188 351 l 32 563 l 219 563 l 376 351 m 667 351 l 508 138 l 322 138 l 478 351 l 322 563 l 508 563 l 667 351 z "},"‹":{"ha":410,"x_min":32,"x_max":386,"o":"m 190 138 l 32 351 l 190 563 l 386 563 l 231 351 l 386 138 l 190 138 z "},"›":{"ha":411,"x_min":32,"x_max":386,"o":"m 386 351 l 229 138 l 32 138 l 188 351 l 32 563 l 229 563 l 386 351 z "},"\"":{"ha":528,"x_min":54,"x_max":475,"o":"m 54 883 l 229 883 l 229 536 l 54 536 l 54 883 m 299 883 l 475 883 l 475 536 l 299 536 l 299 883 z "},"„":{"ha":565,"x_min":51,"x_max":514,"o":"m 51 206 l 253 206 l 253 94 l 107 -201 l 51 -201 l 51 206 m 313 206 l 514 206 l 514 94 l 368 -201 l 313 -201 l 313 206 z "},"“":{"ha":565,"x_min":51,"x_max":514,"o":"m 514 475 l 313 475 l 313 588 l 460 883 l 514 883 l 514 475 m 253 475 l 51 475 l 51 588 l 197 883 l 253 883 l 253 475 z "},"”":{"ha":565,"x_min":51,"x_max":514,"o":"m 51 883 l 253 883 l 253 772 l 107 475 l 51 475 l 51 883 m 313 883 l 514 883 l 514 772 l 368 475 l 313 475 l 313 883 z "},"‘":{"ha":307,"x_min":51,"x_max":256,"o":"m 256 475 l 51 475 l 51 588 l 197 883 l 256 883 l 256 475 z "},"’":{"ha":307,"x_min":51,"x_max":256,"o":"m 51 883 l 256 883 l 256 772 l 108 475 l 51 475 l 51 883 z "},"‚":{"ha":304,"x_min":51,"x_max":253,"o":"m 51 206 l 253 206 l 253 94 l 114 -201 l 51 -201 l 51 206 z "},"'":{"ha":294,"x_min":54,"x_max":240,"o":"m 54 883 l 240 883 l 240 536 l 54 536 l 54 883 z "},"ƒ":{"ha":574,"x_min":-3,"x_max":519,"o":"m 411 747 l 300 -49 q 277 -129 294 -94 q 224 -183 260 -164 q 124 -201 188 -201 l -3 -201 l -3 -53 l 68 -53 q 97 -45 89 -53 q 106 -19 104 -37 l 217 775 q 241 857 224 822 q 294 910 258 892 q 393 929 331 929 l 519 929 l 519 781 l 449 781 q 421 773 428 781 q 411 747 414 765 m 518 688 l 518 542 l 93 542 l 93 688 l 518 688 z "},"ऽ":{"ha":592,"x_min":50,"x_max":542,"o":"m 500 758 l 290 758 q 264 752 272 758 q 256 726 256 746 l 256 574 q 264 549 256 556 q 290 542 272 542 l 374 542 q 506 508 469 542 q 542 404 542 475 l 542 138 q 506 33 542 67 q 374 0 469 0 l 219 0 q 86 33 122 0 q 50 138 50 67 l 50 224 l 244 224 l 244 157 q 251 132 244 139 q 274 125 258 125 l 313 125 q 340 132 332 125 q 349 157 349 139 l 349 385 q 340 410 349 403 q 313 417 332 417 l 231 417 q 97 450 133 417 q 61 554 61 483 l 61 746 q 97 850 61 817 q 231 883 133 883 l 500 883 l 500 758 z "},"ॐ":{"ha":1182,"x_min":61,"x_max":1114,"o":"m 594 953 l 742 953 l 742 799 l 594 799 l 594 953 m 490 728 l 769 728 q 801 736 792 728 q 810 767 810 744 l 810 853 l 1001 853 l 1001 740 q 965 632 1001 671 q 832 593 929 593 l 490 593 l 490 728 m 383 883 q 517 845 481 883 q 553 736 553 807 l 553 565 q 540 514 553 529 q 501 499 526 499 l 503 511 l 944 511 q 1078 473 1042 511 q 1114 365 1114 435 l 1114 147 q 1078 38 1114 76 q 944 0 1042 0 l 800 0 q 667 38 703 0 q 631 147 631 76 l 631 286 l 825 286 l 825 167 q 833 142 825 149 q 860 135 842 135 l 885 135 q 911 142 903 135 q 919 167 919 149 l 919 343 q 911 368 919 361 q 885 375 903 375 l 503 375 l 501 389 q 540 373 526 389 q 553 321 553 357 l 553 147 q 517 38 553 76 q 383 0 481 0 l 231 0 q 97 38 133 0 q 61 147 61 76 l 61 303 l 256 303 l 256 167 q 264 142 256 149 q 290 135 272 135 l 324 135 q 350 142 342 135 q 358 167 358 149 l 358 338 q 349 367 358 360 q 322 375 340 375 l 261 375 l 261 510 l 322 510 q 349 517 340 510 q 358 547 358 525 l 358 717 q 350 742 358 736 q 324 749 342 749 l 290 749 q 264 742 272 749 q 256 717 256 736 l 256 592 l 61 592 l 61 736 q 97 845 61 807 q 231 883 133 883 l 383 883 z "},"&":{"ha":782,"x_min":46,"x_max":842,"o":"m 842 -50 l 642 -50 l 192 440 q 116 535 143 496 q 89 621 89 574 l 89 729 q 130 842 89 801 q 265 883 171 883 l 417 883 q 551 842 511 883 q 590 729 590 801 l 590 622 q 575 535 590 569 q 531 476 560 501 q 460 424 501 451 l 269 310 q 244 286 253 299 q 235 247 235 274 l 235 171 q 243 144 235 153 q 272 136 251 136 l 549 136 q 578 144 569 136 q 586 171 586 153 l 586 338 l 743 338 l 743 154 q 699 41 743 82 q 560 0 654 0 l 222 0 q 87 41 128 0 q 46 154 46 82 l 46 258 q 57 328 46 300 q 92 378 68 356 q 158 425 117 400 l 324 525 q 383 568 364 550 q 401 619 401 586 l 401 715 q 393 742 401 735 q 364 750 385 750 l 321 750 q 292 742 300 750 q 283 715 283 735 l 283 611 q 293 569 283 588 q 324 528 303 550 q 378 469 344 507 l 842 -50 z "},"@":{"ha":1111,"x_min":74,"x_max":1047,"o":"m 336 460 q 372 565 336 526 q 486 603 407 603 l 514 603 q 583 584 557 603 q 618 532 608 565 l 618 603 l 778 603 l 778 238 l 839 238 q 868 245 860 238 q 876 272 876 253 l 876 664 q 868 691 876 683 q 839 699 860 699 l 286 699 q 257 691 265 699 q 249 664 249 683 l 249 44 q 257 19 249 26 q 286 11 265 11 l 779 11 l 779 -126 l 236 -126 q 113 -85 151 -126 q 74 26 74 -44 l 74 682 q 113 795 74 754 q 236 836 151 836 l 886 836 q 1010 795 972 836 q 1047 682 1047 754 l 1047 265 q 1008 153 1047 194 q 885 111 969 111 l 622 111 l 622 192 q 588 132 615 153 q 514 111 560 111 l 486 111 q 372 149 407 111 q 336 254 336 188 l 336 460 m 507 443 l 507 271 q 515 246 507 253 q 540 239 522 239 l 578 239 q 606 248 597 239 q 615 279 615 257 l 615 435 q 606 467 615 457 q 578 476 597 476 l 540 476 q 515 469 522 476 q 507 443 507 463 z "},"|":{"ha":333,"x_min":71,"x_max":251,"o":"m 71 1110 l 251 1110 l 251 -229 l 71 -229 l 71 1110 z "},"¦":{"ha":333,"x_min":61,"x_max":261,"o":"m 61 358 l 261 358 l 261 -131 l 61 -131 l 61 358 m 261 524 l 61 524 l 61 1013 l 261 1013 l 261 524 z "},"©":{"ha":1035,"x_min":50,"x_max":993,"o":"m 993 471 l 993 408 q 963 191 993 283 q 859 49 932 99 q 656 0 786 0 l 386 0 q 183 49 257 0 q 80 191 110 99 q 50 408 50 283 l 50 471 q 80 690 50 599 q 183 833 110 782 q 386 883 257 883 l 656 883 q 859 833 786 883 q 963 690 932 782 q 993 471 993 599 m 419 121 l 624 121 q 747 146 700 121 q 817 230 794 171 q 839 390 839 289 l 839 489 q 817 651 839 592 q 747 737 794 711 q 624 763 700 763 l 419 763 q 297 737 344 763 q 226 651 249 711 q 204 489 204 592 l 204 390 q 226 230 204 289 q 297 146 249 171 q 419 121 344 121 m 571 353 l 571 396 l 714 396 l 714 329 q 683 244 714 275 q 582 214 653 214 l 463 214 q 361 244 392 214 q 331 329 331 275 l 331 561 q 361 645 331 614 q 463 676 392 676 l 582 676 q 683 645 653 676 q 714 561 714 614 l 714 494 l 571 494 l 571 538 q 564 558 571 553 q 542 564 557 564 l 503 564 q 480 558 486 564 q 474 538 474 553 l 474 353 q 480 331 474 338 q 503 325 486 325 l 542 325 q 564 331 557 325 q 571 353 571 338 z "},"†":{"ha":582,"x_min":13,"x_max":571,"o":"m 192 883 l 390 883 l 390 -151 l 192 -151 l 192 883 m 571 667 l 571 531 l 13 531 l 13 667 l 571 667 z "},"‡":{"ha":619,"x_min":31,"x_max":589,"o":"m 210 883 l 408 883 l 408 -199 l 210 -199 l 210 883 m 589 667 l 589 531 l 31 531 l 31 667 l 589 667 m 589 154 l 589 18 l 31 18 l 31 154 l 589 154 z "},"°":{"ha":619,"x_min":63,"x_max":554,"o":"m 554 731 l 554 594 q 516 483 554 524 q 383 442 478 442 l 233 442 q 101 483 139 442 q 63 594 63 524 l 63 731 q 101 842 63 801 q 233 883 139 883 l 383 883 q 516 842 478 883 q 554 731 554 801 m 374 601 l 374 724 q 365 751 374 743 q 336 758 357 758 l 281 758 q 251 751 260 758 q 243 724 243 743 l 243 601 q 251 574 243 582 q 281 567 260 567 l 336 567 q 365 574 357 567 q 374 601 374 582 z "},"℮":{"ha":835,"x_min":47,"x_max":808,"o":"m 192 325 l 808 325 l 808 333 q 757 507 808 429 q 619 631 706 585 q 426 678 532 678 q 280 651 349 678 q 159 576 211 624 q 77 467 107 529 q 47 333 47 404 q 77 201 47 263 q 159 93 107 140 q 280 19 211 46 q 426 -7 349 -7 q 599 29 521 -7 q 728 125 676 65 l 674 125 q 565 43 629 74 q 428 13 501 13 q 300 40 360 13 q 194 114 240 67 q 188 135 188 124 l 188 322 q 192 325 188 325 m 668 538 l 668 350 q 664 343 668 343 l 192 343 q 188 350 188 343 l 188 533 q 196 557 188 547 q 301 629 242 601 q 428 657 360 657 q 555 631 496 657 q 660 560 614 604 q 668 538 668 551 z "},"¶":{"ha":757,"x_min":49,"x_max":682,"o":"m 386 883 l 386 300 l 225 300 q 90 341 131 300 q 49 454 49 382 l 49 729 q 90 842 49 801 q 225 883 131 883 l 386 883 m 276 883 l 436 883 l 436 -185 l 276 -185 l 276 883 m 522 883 l 682 883 l 682 -185 l 522 -185 l 522 883 z "},"®":{"ha":631,"x_min":43,"x_max":586,"o":"m 586 761 l 586 726 q 569 601 586 654 q 509 520 551 549 q 392 492 467 492 l 238 492 q 121 520 163 492 q 61 601 79 549 q 43 726 43 654 l 43 761 q 61 888 43 835 q 121 969 79 940 q 238 999 163 999 l 392 999 q 509 969 467 999 q 569 888 551 940 q 586 761 586 835 m 257 565 l 374 565 q 444 578 417 565 q 485 624 472 592 q 497 715 497 657 l 497 772 q 485 864 497 831 q 444 911 472 897 q 374 925 417 925 l 257 925 q 186 911 214 925 q 146 864 158 897 q 133 772 133 831 l 133 715 q 146 624 133 657 q 186 578 158 592 q 257 565 214 565 m 228 882 l 347 882 q 393 869 379 882 q 407 831 407 856 l 407 763 q 372 713 407 724 l 424 610 l 350 610 l 306 710 l 296 710 l 296 610 l 228 610 l 228 882 m 339 771 l 339 824 q 329 833 339 833 l 296 833 l 296 761 l 329 761 q 339 771 339 761 z "},"§":{"ha":686,"x_min":79,"x_max":607,"o":"m 338 233 l 338 326 l 378 326 q 407 334 399 326 q 415 361 415 342 l 415 481 q 407 506 415 499 q 378 514 399 514 l 281 514 q 145 556 186 514 q 104 668 104 597 l 104 775 q 145 888 104 846 q 281 929 186 929 l 431 929 q 566 888 525 929 q 607 775 607 846 l 607 722 l 413 722 l 413 763 q 404 790 413 782 q 375 797 396 797 l 336 797 q 307 790 315 797 q 299 763 299 782 l 299 685 q 307 659 299 667 q 336 651 315 651 l 424 651 q 559 610 518 651 q 600 497 600 568 l 600 394 q 565 276 600 318 q 436 233 531 233 l 338 233 m 349 593 l 349 514 l 308 514 q 279 506 288 514 q 271 481 271 499 l 271 361 q 279 334 271 342 q 308 326 288 326 l 406 326 q 541 285 500 326 q 582 172 582 244 l 582 65 q 541 -47 582 -6 q 406 -87 500 -87 l 256 -87 q 120 -47 161 -87 q 79 65 79 -6 l 79 118 l 274 118 l 274 78 q 282 52 274 60 q 311 44 290 44 l 350 44 q 379 52 371 44 q 388 78 388 60 l 388 156 q 379 183 388 175 q 350 190 371 190 l 263 190 q 128 231 168 190 q 88 343 88 272 l 88 433 q 122 551 88 510 q 250 593 156 593 l 349 593 z "},"™":{"ha":960,"x_min":13,"x_max":918,"o":"m 129 825 l 275 825 l 275 426 l 129 426 l 129 825 m 393 883 l 393 767 l 13 767 l 13 883 l 393 883 m 435 883 l 588 883 l 676 626 l 765 883 l 918 883 l 918 426 l 790 426 l 790 675 l 731 492 l 622 492 l 564 674 l 564 426 l 435 426 l 435 883 z "},"ℓ":{"ha":853,"x_min":129,"x_max":785,"o":"m 572 728 l 557 728 q 528 721 538 728 q 519 692 519 714 l 519 171 q 528 142 519 149 q 557 135 538 135 l 749 135 l 749 0 l 515 0 q 368 36 411 0 q 325 157 325 72 l 325 706 q 368 826 325 790 q 515 863 411 863 l 603 863 q 706 840 665 863 q 765 781 746 817 q 785 704 785 744 q 760 597 785 644 q 688 513 736 550 l 129 63 l 129 238 l 544 576 q 593 626 572 599 q 614 681 614 653 q 604 715 614 703 q 572 728 594 728 z "},"€":{"ha":656,"x_min":25,"x_max":614,"o":"m 283 713 l 283 171 q 292 144 283 151 q 321 136 300 136 l 358 136 l 358 0 l 261 0 q 126 41 167 0 q 85 153 85 82 l 85 729 q 126 842 85 801 q 261 883 167 883 l 361 883 l 361 747 l 321 747 q 292 740 300 747 q 283 713 283 732 m 415 574 l 415 713 q 407 740 415 732 q 378 747 399 747 l 339 747 l 339 883 l 439 883 q 574 842 533 883 q 614 729 614 801 l 614 574 l 415 574 m 415 171 l 415 306 l 614 306 l 614 153 q 574 41 614 82 q 439 0 533 0 l 339 0 l 339 136 l 378 136 q 407 144 399 136 q 415 171 415 151 m 381 414 l 381 296 l 25 296 l 25 414 l 381 414 m 381 588 l 381 469 l 25 469 l 25 588 l 381 588 z "},"¢":{"ha":574,"x_min":46,"x_max":540,"o":"m 240 507 l 240 181 q 249 154 240 163 q 278 146 257 146 l 307 146 l 307 0 l 222 0 q 87 41 128 0 q 46 154 46 82 l 46 533 q 87 646 46 604 q 222 688 128 688 l 308 688 l 308 542 l 278 542 q 249 534 257 542 q 240 507 240 526 m 351 439 l 351 507 q 344 534 351 526 q 314 542 336 542 l 289 542 l 289 688 l 364 688 q 499 646 458 688 q 540 533 540 604 l 540 439 l 351 439 m 351 181 l 351 247 l 540 247 l 540 154 q 499 41 540 82 q 364 0 458 0 l 289 0 l 289 146 l 314 146 q 344 154 336 146 q 351 181 351 163 m 390 619 l 203 619 l 203 797 l 390 797 l 390 619 m 390 -110 l 203 -110 l 203 74 l 390 74 l 390 -110 z "},"¤":{"ha":768,"x_min":58,"x_max":693,"o":"m 647 486 l 647 346 q 628 232 647 281 q 564 158 610 183 q 438 133 518 133 l 322 133 q 195 158 242 133 q 131 232 149 183 q 113 346 113 281 l 113 486 q 131 601 113 553 q 195 674 149 649 q 322 700 242 700 l 438 700 q 564 674 518 700 q 628 601 610 649 q 647 486 647 553 m 358 264 l 399 264 q 465 278 444 264 q 486 350 486 293 l 486 481 q 465 553 486 538 q 399 568 444 568 l 358 568 q 292 553 313 568 q 271 481 271 538 l 271 350 q 292 278 271 293 q 358 264 313 264 m 314 656 l 194 538 l 58 674 l 175 793 l 314 656 m 557 538 l 438 656 l 575 793 l 693 674 l 557 538 m 194 315 l 314 197 l 175 60 l 58 178 l 194 315 m 438 197 l 557 315 l 693 178 l 575 60 l 438 197 z "},"$":{"ha":614,"x_min":46,"x_max":568,"o":"m 401 815 l 213 815 l 213 997 l 401 997 l 401 815 m 401 -112 l 213 -112 l 213 69 l 401 69 l 401 -112 m 369 181 l 369 340 q 361 366 369 358 q 332 374 353 374 l 210 374 q 82 416 118 374 q 46 529 46 458 l 46 729 q 86 842 46 801 q 221 883 126 883 l 390 883 q 525 842 485 883 q 565 729 565 801 l 565 615 l 367 615 l 367 703 q 358 730 367 722 q 329 738 350 738 l 282 738 q 253 730 261 738 q 244 703 244 722 l 244 547 q 253 522 244 529 q 282 514 261 514 l 401 514 q 531 474 494 514 q 568 361 568 433 l 568 154 q 528 41 568 82 q 393 0 488 0 l 225 0 q 90 41 131 0 q 49 154 49 82 l 49 268 l 247 268 l 247 181 q 256 154 247 163 q 285 146 264 146 l 332 146 q 361 154 353 146 q 369 181 369 163 z "},"₹":{"ha":586,"x_min":56,"x_max":526,"o":"m 526 667 l 526 546 l 56 546 l 56 667 l 526 667 m 526 883 l 526 763 l 56 763 l 56 883 l 526 883 m 328 790 q 395 783 372 790 q 426 756 418 776 q 433 692 433 735 l 433 472 q 390 351 433 386 q 236 315 346 315 l 176 315 l 225 369 l 463 0 l 256 0 l 56 315 l 56 450 l 204 450 q 231 458 224 450 q 239 486 239 465 l 239 728 q 231 755 239 747 q 203 763 224 763 l 328 790 z "},"£":{"ha":640,"x_min":33,"x_max":615,"o":"m 296 703 l 296 251 q 288 188 296 215 q 260 146 281 161 l 615 146 l 615 0 l 33 0 l 33 138 q 87 172 76 142 q 97 258 97 201 l 97 729 q 138 842 97 801 q 274 883 179 883 l 433 883 q 569 842 528 883 q 610 729 610 801 l 610 601 l 411 601 l 411 703 q 403 730 411 722 q 374 738 394 738 l 333 738 q 304 730 313 738 q 296 703 296 722 m 33 351 l 33 488 l 493 488 l 493 351 l 33 351 z "},"₺":{"ha":139,"x_min":-56,"x_max":557,"o":"m 363 424 l 557 424 l 557 154 q 519 41 557 82 q 394 0 481 0 l 225 0 l 203 146 l 325 146 q 354 154 346 146 q 363 181 363 163 l 363 424 m 57 929 l 251 929 l 251 118 l 249 114 l 249 0 l 57 0 l 57 929 m 368 653 l 368 517 l -56 315 l -56 451 l 368 653 m 368 858 l 368 722 l -56 521 l -56 657 l 368 858 z "},"¥":{"ha":658,"x_min":11,"x_max":647,"o":"m 235 500 l 235 374 l 49 374 l 49 500 l 235 500 m 615 500 l 615 374 l 435 374 l 435 500 l 615 500 m 615 314 l 615 188 l 49 188 l 49 314 l 615 314 m 421 253 l 246 253 l 11 883 l 214 883 l 332 475 l 446 883 l 647 883 l 421 253 m 235 360 l 433 360 l 433 0 l 235 0 l 235 360 z "},"≈":{"ha":744,"x_min":46,"x_max":699,"o":"m 482 486 q 412 500 440 486 q 360 531 383 514 q 315 563 338 549 q 263 576 292 576 q 231 565 239 576 q 224 531 224 554 l 224 488 l 46 488 l 46 575 q 78 672 46 640 q 186 704 110 704 l 263 704 q 338 690 307 704 q 392 659 369 676 q 436 628 415 642 q 483 614 457 614 q 514 625 507 614 q 521 660 521 636 l 521 704 l 699 704 l 699 615 q 667 518 699 550 q 558 486 635 486 l 482 486 m 482 225 q 412 238 440 225 q 360 269 383 251 q 315 301 338 288 q 263 314 292 314 q 231 303 239 314 q 224 269 224 293 l 224 225 l 46 225 l 46 314 q 78 411 46 379 q 186 443 110 443 l 263 443 q 338 429 307 443 q 392 398 369 415 q 436 367 415 381 q 483 353 457 353 q 514 364 507 353 q 521 399 521 375 l 521 442 l 699 442 l 699 354 q 667 257 699 289 q 558 225 635 225 l 482 225 z "},"^":{"ha":869,"x_min":108,"x_max":718,"o":"m 283 931 l 543 931 l 718 408 l 517 408 l 413 763 l 311 408 l 108 408 l 283 931 z "},"~":{"ha":896,"x_min":115,"x_max":778,"o":"m 561 289 q 490 305 521 289 q 435 342 460 321 q 385 381 410 364 q 332 397 361 397 q 301 386 308 397 q 293 351 293 375 l 293 289 l 115 289 l 115 396 q 147 493 115 461 q 256 525 179 525 l 332 525 q 409 509 376 525 q 467 471 442 493 q 515 433 492 449 q 563 417 538 417 q 593 428 586 417 q 600 463 600 439 l 600 525 l 778 525 l 778 417 q 746 321 778 353 q 638 289 714 289 l 561 289 z "},"∙":{"ha":304,"x_min":51,"x_max":253,"o":"m 51 339 l 51 544 l 253 544 l 253 339 l 51 339 z "},"÷":{"ha":676,"x_min":35,"x_max":642,"o":"m 35 367 l 35 514 l 642 514 l 642 367 l 35 367 m 244 726 l 432 726 l 432 582 l 244 582 l 244 726 m 244 299 l 432 299 l 432 154 l 244 154 l 244 299 z "},"∕":{"ha":560,"x_min":-17,"x_max":561,"o":"m 393 974 l 561 974 l 153 -115 l -17 -115 l 393 974 z "},"=":{"ha":681,"x_min":36,"x_max":644,"o":"m 36 503 l 36 654 l 644 654 l 644 503 l 36 503 m 36 225 l 36 376 l 644 376 l 644 225 l 36 225 z "},">":{"ha":681,"x_min":36,"x_max":644,"o":"m 454 443 l 36 557 l 36 715 l 644 533 l 644 358 l 36 168 l 36 328 l 454 443 z "},"≥":{"ha":699,"x_min":44,"x_max":654,"o":"m 506 565 l 44 631 l 44 779 l 654 651 l 654 485 l 44 346 l 44 499 l 506 565 m 44 181 l 44 318 l 654 318 l 654 181 l 44 181 z "},"∞":{"ha":835,"x_min":8,"x_max":825,"o":"m 194 247 l 214 372 l 238 372 q 276 385 260 372 q 303 413 293 397 l 422 613 q 465 677 447 654 q 510 709 483 700 q 581 718 536 718 l 611 718 l 611 594 l 581 594 q 552 585 563 594 q 531 556 542 575 l 411 350 q 363 285 385 307 q 310 255 340 263 q 229 247 279 247 l 194 247 m 228 372 l 208 247 l 183 247 q 49 289 89 247 q 8 400 8 331 l 8 567 q 49 676 8 635 q 183 718 89 718 l 226 718 l 226 593 l 194 593 q 160 583 167 593 q 153 547 153 572 l 153 418 q 160 383 153 393 q 194 372 167 372 l 228 372 m 461 517 l 369 439 l 303 540 q 271 578 288 564 q 229 593 254 593 l 214 593 l 214 718 l 236 718 q 303 706 276 718 q 352 671 331 694 q 397 613 374 647 l 461 517 m 388 403 l 472 493 l 524 419 q 552 386 536 400 q 590 372 568 372 l 618 372 l 618 247 l 603 247 q 532 256 561 247 q 480 285 503 265 q 431 342 457 306 l 388 403 m 608 247 l 601 372 l 639 372 q 674 383 667 372 q 681 418 681 393 l 681 549 q 674 583 681 572 q 639 593 667 593 l 601 593 l 601 718 l 650 718 q 785 676 744 718 q 825 567 825 635 l 825 400 q 785 289 825 331 q 650 247 744 247 l 608 247 z "},"∫":{"ha":571,"x_min":90,"x_max":500,"o":"m 392 793 l 392 -39 q 351 -151 392 -110 q 217 -192 311 -192 l 90 -192 l 90 -44 l 161 -44 q 189 -36 182 -44 q 197 -10 196 -28 l 197 822 q 238 934 197 893 q 374 975 279 975 l 500 975 l 500 828 l 429 828 q 401 820 408 828 q 392 793 394 813 z "},"<":{"ha":681,"x_min":36,"x_max":644,"o":"m 644 557 l 226 443 l 644 328 l 644 168 l 36 358 l 36 533 l 644 715 l 644 557 z "},"≤":{"ha":699,"x_min":40,"x_max":650,"o":"m 650 631 l 190 565 l 650 499 l 650 346 l 40 485 l 40 651 l 650 779 l 650 631 m 650 318 l 650 181 l 40 181 l 40 318 l 650 318 z "},"¬":{"ha":732,"x_min":61,"x_max":657,"o":"m 593 569 l 593 371 l 61 371 l 61 569 l 593 569 m 657 172 l 519 172 l 519 569 l 657 569 l 657 172 z "},"−":{"ha":806,"x_min":25,"x_max":632,"o":"m 25 367 l 25 514 l 632 514 l 632 367 l 25 367 z "},"×":{"ha":615,"x_min":29,"x_max":585,"o":"m 585 268 l 472 154 l 29 596 l 143 710 l 585 268 m 472 710 l 585 596 l 143 154 l 29 268 l 472 710 z "},"≠":{"ha":715,"x_min":44,"x_max":671,"o":"m 671 232 l 44 232 l 44 381 l 671 381 l 671 232 m 671 503 l 44 503 l 44 653 l 671 653 l 671 503 m 260 132 l 131 132 l 457 750 l 585 750 l 260 132 z "},"%":{"ha":1113,"x_min":36,"x_max":1075,"o":"m 446 757 l 446 501 q 413 409 446 443 q 303 375 381 375 l 179 375 q 69 409 103 375 q 36 501 36 443 l 36 757 q 69 850 36 817 q 179 883 103 883 l 303 883 q 413 850 381 883 q 446 757 446 817 m 1075 382 l 1075 126 q 1043 34 1075 68 q 933 0 1011 0 l 810 0 q 700 34 733 0 q 667 126 667 68 l 667 382 q 700 475 667 442 q 810 508 733 508 l 933 508 q 1043 475 1011 508 q 1075 382 1075 442 m 285 525 l 285 733 q 278 757 285 750 q 254 764 272 764 l 228 764 q 204 757 211 764 q 197 733 197 750 l 197 525 q 204 502 197 508 q 228 496 211 496 l 254 496 q 278 502 272 496 q 285 525 285 508 m 915 150 l 915 358 q 909 382 915 375 q 883 389 903 389 l 858 389 q 835 382 842 389 q 828 358 828 375 l 828 150 q 835 127 828 133 q 858 121 842 121 l 883 121 q 909 127 903 121 q 915 150 915 133 m 715 883 l 865 883 l 399 0 l 251 0 l 715 883 z "},"‰":{"ha":1576,"x_min":36,"x_max":1540,"o":"m 446 757 l 446 501 q 413 409 446 443 q 303 375 381 375 l 179 375 q 69 409 103 375 q 36 501 36 443 l 36 757 q 69 850 36 817 q 179 883 103 883 l 303 883 q 413 850 381 883 q 446 757 446 817 m 1075 382 l 1075 126 q 1043 34 1075 68 q 933 0 1011 0 l 810 0 q 700 34 733 0 q 667 126 667 68 l 667 382 q 700 475 667 442 q 810 508 733 508 l 933 508 q 1043 475 1011 508 q 1075 382 1075 442 m 285 525 l 285 733 q 278 757 285 750 q 254 764 272 764 l 228 764 q 204 757 211 764 q 197 733 197 750 l 197 525 q 204 502 197 508 q 228 496 211 496 l 254 496 q 278 502 272 496 q 285 525 285 508 m 915 150 l 915 358 q 909 382 915 375 q 883 389 903 389 l 858 389 q 835 382 842 389 q 828 358 828 375 l 828 150 q 835 127 828 133 q 858 121 842 121 l 883 121 q 909 127 903 121 q 915 150 915 133 m 715 883 l 865 883 l 399 0 l 251 0 l 715 883 m 1540 382 l 1540 126 q 1508 34 1540 68 q 1397 0 1475 0 l 1275 0 q 1165 34 1199 0 q 1132 126 1132 68 l 1132 382 q 1165 475 1132 442 q 1275 508 1199 508 l 1397 508 q 1508 475 1475 508 q 1540 382 1540 442 m 1379 150 l 1379 358 q 1373 382 1379 375 q 1349 389 1367 389 l 1324 389 q 1299 382 1306 389 q 1292 358 1292 375 l 1292 150 q 1299 127 1292 133 q 1324 121 1306 121 l 1349 121 q 1373 127 1367 121 q 1379 150 1379 133 z "},"+":{"ha":657,"x_min":25,"x_max":632,"o":"m 25 367 l 25 514 l 632 514 l 632 367 l 25 367 m 235 726 l 422 726 l 422 154 l 235 154 l 235 726 z "},"±":{"ha":681,"x_min":36,"x_max":644,"o":"m 36 506 l 36 649 l 644 649 l 644 506 l 36 506 m 247 756 l 435 756 l 435 400 l 247 400 l 247 756 m 36 210 l 36 357 l 644 357 l 644 210 l 36 210 z "},"∏":{"ha":694,"x_min":4,"x_max":632,"o":"m 86 182 l 86 804 l 279 804 l 279 154 q 239 41 279 82 q 104 0 199 0 l 4 0 l 4 149 l 49 149 q 78 156 69 149 q 86 182 86 164 m 433 813 l 632 813 l 632 0 l 433 0 l 433 813 m 632 883 l 632 747 l 86 747 l 86 883 l 632 883 z "},"√":{"ha":1079,"x_min":113,"x_max":947,"o":"m 179 389 l 349 389 l 454 61 l 779 974 l 947 974 l 539 -115 l 369 -115 l 179 389 m 315 389 l 315 253 l 113 253 l 113 389 l 315 389 z "},"Ω":{"ha":672,"x_min":19,"x_max":651,"o":"m 407 422 l 407 703 q 399 730 407 722 q 369 738 390 738 l 322 738 l 322 883 l 429 883 q 565 842 524 883 q 606 729 606 801 l 606 422 l 407 422 m 407 190 l 407 456 l 606 456 l 606 254 q 565 150 606 182 q 429 118 524 118 l 371 118 l 371 146 l 379 146 q 402 159 397 146 q 407 190 407 172 m 265 703 l 265 422 l 67 422 l 67 729 q 108 842 67 801 q 243 883 149 883 l 349 883 l 349 738 l 303 738 q 274 730 282 738 q 265 703 265 722 m 265 460 l 265 190 q 270 159 265 172 q 293 146 275 146 l 300 146 l 300 118 l 243 118 q 108 150 149 118 q 67 254 67 182 l 67 460 l 265 460 m 651 146 l 651 0 l 368 0 l 368 146 l 651 146 m 303 146 l 303 0 l 19 0 l 19 146 l 303 146 z "},"µ":{"ha":617,"x_min":56,"x_max":554,"o":"m 56 688 l 250 688 l 250 181 q 258 154 250 163 q 288 146 267 146 l 319 146 q 351 156 342 146 q 361 190 361 167 l 361 231 l 368 231 l 368 115 q 338 30 368 60 q 251 0 308 0 l 218 0 q 94 41 132 0 q 56 154 56 82 l 56 688 m 361 688 l 554 688 l 554 0 l 364 0 l 364 114 l 361 117 l 361 688 m 56 618 l 250 618 l 250 -185 l 56 -185 l 56 618 z "},"◌":{"ha":917,"x_min":61,"x_max":856,"o":"m 193 718 q 210 762 193 744 q 254 779 228 779 q 299 762 282 779 q 315 718 315 744 q 299 674 315 692 q 254 656 282 656 q 210 674 228 656 q 193 718 193 692 m 79 565 q 98 609 79 592 q 143 626 117 626 q 186 609 168 626 q 204 565 204 592 q 186 522 204 539 q 143 504 168 504 q 98 522 117 504 q 79 565 79 539 m 61 390 q 78 435 61 418 q 122 453 96 453 q 167 435 150 453 q 183 390 183 418 q 167 347 183 364 q 122 331 150 331 q 78 347 96 331 q 61 390 61 364 m 133 229 q 151 273 133 256 q 194 290 168 290 q 238 273 221 290 q 256 229 256 256 q 238 185 256 203 q 194 168 221 168 q 151 185 168 168 q 133 229 133 203 m 274 125 q 292 168 274 150 q 336 186 310 186 q 380 168 363 186 q 397 125 397 150 q 380 80 397 99 q 336 61 363 61 q 292 80 310 61 q 274 125 274 99 m 450 103 q 467 147 450 131 q 511 164 485 164 q 556 147 539 164 q 574 103 574 131 q 556 59 574 76 q 511 42 539 42 q 467 59 485 42 q 450 103 450 76 m 618 176 q 635 220 618 203 q 679 238 653 238 q 724 220 706 238 q 742 176 742 203 q 724 133 742 150 q 679 115 706 115 q 635 133 653 115 q 618 176 618 150 m 719 313 q 738 358 719 340 q 782 375 756 375 q 824 358 807 375 q 842 313 842 340 q 824 269 842 286 q 782 251 807 251 q 738 269 756 251 q 719 313 719 286 m 733 499 q 751 543 733 526 q 794 560 768 560 q 838 543 821 560 q 856 499 856 526 q 838 455 856 472 q 794 438 821 438 q 751 455 768 438 q 733 499 733 472 m 664 663 q 681 708 664 690 q 725 725 699 725 q 769 708 753 725 q 786 663 786 690 q 769 619 786 636 q 725 601 753 601 q 681 619 699 601 q 664 663 664 636 m 532 757 q 550 802 532 785 q 594 819 568 819 q 638 802 621 819 q 654 757 654 785 q 638 714 654 732 q 594 696 621 696 q 550 714 568 696 q 532 757 532 732 m 357 778 q 374 822 357 806 q 418 839 392 839 q 463 822 446 839 q 479 778 479 806 q 463 734 479 751 q 418 717 446 717 q 374 734 392 717 q 357 778 357 751 z "},"◊":{"ha":865,"x_min":85,"x_max":767,"o":"m 767 443 l 574 443 l 422 733 l 278 443 l 85 443 l 326 883 l 519 883 l 767 443 m 574 443 l 767 443 l 519 1 l 326 1 l 85 443 l 278 443 l 422 151 l 574 443 z "},"ै":{"ha":0,"x_min":-604,"x_max":-69,"o":"m -604 1158 l -372 1158 l -312 1085 q -234 985 -265 1026 q -174 897 -203 944 l -167 897 q -208 982 -192 942 q -249 1075 -225 1022 l -283 1158 l -101 1158 l -69 876 l -258 876 q -310 911 -285 894 q -365 951 -336 928 q -432 1008 -393 975 l -604 1158 z "},"ं":{"ha":0,"x_min":-231,"x_max":-81,"o":"m -231 1172 l -81 1172 l -81 1011 l -231 1011 l -231 1172 z "},"ँ":{"ha":0,"x_min":-453,"x_max":142,"o":"m -453 1192 l -290 1192 l -290 1106 q -281 1075 -290 1083 q -250 1067 -272 1067 l -61 1067 q -31 1075 -39 1067 q -22 1106 -22 1083 l -22 1192 l 142 1192 l 142 1082 q 101 985 142 1018 q -39 953 61 953 l -272 953 q -412 985 -371 953 q -453 1082 -453 1018 l -453 1192 m -229 1278 l -83 1278 l -83 1124 l -229 1124 l -229 1278 z "},"े":{"ha":0,"x_min":-499,"x_max":-67,"o":"m -265 1158 l -67 875 l -256 875 q -335 951 -296 908 q -414 1046 -374 993 l -499 1158 l -265 1158 z "},"्":{"ha":0,"x_min":-272,"x_max":89,"o":"m -79 -85 l 89 -285 l -104 -285 l -272 -85 l -79 -85 z "},"ॢ":{"ha":0,"x_min":-546,"x_max":-22,"o":"m -349 14 q -306 -22 -311 14 l -303 -22 q -290 4 -300 -6 q -258 14 -281 14 l -171 14 l -171 -68 l -225 -68 q -241 -73 -237 -68 q -244 -89 -244 -78 l -244 -204 l -365 -204 l -365 -89 q -369 -73 -365 -78 q -385 -68 -372 -68 l -406 -68 q -420 -72 -415 -68 q -425 -89 -425 -76 l -425 -268 q -420 -283 -425 -279 q -406 -286 -415 -286 l -387 -286 l -387 -368 l -446 -368 q -524 -349 -503 -368 q -546 -287 -546 -329 l -546 -78 q -522 -7 -546 -28 q -450 14 -497 14 l -349 14 m -182 14 l -61 14 l -61 -335 l -149 -335 q -163 -339 -158 -335 q -168 -354 -168 -343 l -168 -378 q -163 -392 -168 -387 q -149 -396 -158 -396 l -22 -396 l -22 -478 l -189 -478 q -267 -458 -246 -478 q -289 -397 -289 -439 l -289 -340 q -267 -278 -289 -299 q -189 -258 -246 -258 l -182 -258 l -182 14 z "},"ॣ":{"ha":0,"x_min":-544,"x_max":-19,"o":"m -19 -481 l -19 -562 l -135 -562 q -218 -541 -190 -562 q -246 -471 -246 -519 l -246 -426 q -236 -395 -246 -404 q -210 -385 -226 -386 l -210 -381 q -236 -368 -226 -378 q -246 -337 -246 -358 l -246 -272 q -231 -222 -246 -242 q -185 -203 -217 -203 l -182 -203 l -182 -67 l -225 -67 q -241 -72 -237 -67 q -244 -89 -244 -78 l -244 -194 l -364 -194 l -364 -89 q -367 -72 -364 -78 q -385 -67 -371 -67 l -406 -67 q -421 -72 -417 -67 q -425 -89 -425 -76 l -425 -264 q -421 -278 -425 -275 q -406 -282 -417 -282 l -389 -282 l -389 -364 l -446 -364 q -523 -344 -501 -364 q -544 -285 -544 -325 l -544 -79 q -521 -7 -544 -28 q -450 14 -497 14 l -349 14 q -304 -22 -310 14 l -303 -22 q -290 4 -301 -6 q -260 14 -279 14 l -61 14 l -61 -283 l -106 -283 q -122 -287 -117 -283 q -128 -303 -128 -292 l -128 -321 q -122 -337 -128 -332 q -106 -342 -117 -342 l -68 -342 l -68 -422 l -106 -422 q -122 -426 -117 -422 q -128 -443 -128 -431 l -128 -460 q -122 -476 -128 -472 q -106 -481 -117 -481 l -19 -481 z "},"़":{"ha":0,"x_min":-231,"x_max":-82,"o":"m -231 -56 l -82 -56 l -82 -217 l -231 -217 l -231 -56 z "},"ृ":{"ha":0,"x_min":-385,"x_max":-15,"o":"m -61 8 l -61 -126 l -149 -126 q -183 -134 -175 -126 q -192 -169 -192 -142 l -192 -193 q -183 -228 -192 -219 q -149 -236 -175 -236 l -15 -236 l -15 -372 l -225 -372 q -344 -336 -304 -372 q -385 -215 -385 -300 l -385 -149 q -344 -28 -385 -64 q -225 8 -304 8 l -61 8 z "},"ॄ":{"ha":0,"x_min":-368,"x_max":6,"o":"m -368 -119 q -326 -20 -368 -49 q -217 8 -285 8 l -61 8 l -61 -126 l -137 -126 q -165 -134 -157 -126 q -174 -162 -174 -142 l -174 -201 q -165 -230 -174 -222 q -137 -237 -157 -237 l -74 -237 l -74 -372 l -137 -372 q -165 -379 -157 -372 q -174 -408 -174 -386 l -174 -447 q -165 -476 -174 -468 q -137 -483 -157 -483 l 6 -483 l 6 -618 l -178 -618 q -322 -582 -275 -618 q -368 -461 -368 -546 l -368 -382 q -351 -328 -368 -346 q -307 -308 -335 -311 l -307 -303 q -351 -282 -335 -299 q -368 -229 -368 -265 l -368 -119 z "},"ु":{"ha":0,"x_min":-578,"x_max":56,"o":"m -104 7 q 15 -28 -25 7 q 56 -149 56 -64 l 56 -217 q 15 -337 56 -301 q -104 -372 -25 -372 l -282 -372 q -394 -358 -350 -372 q -471 -314 -439 -344 q -533 -232 -503 -283 l -578 -156 l -350 -156 l -319 -204 q -292 -231 -307 -224 q -253 -237 -276 -237 l -182 -237 q -147 -229 -154 -237 q -139 -194 -139 -221 l -139 -171 q -147 -135 -139 -143 q -182 -128 -154 -128 l -256 -128 l -256 7 l -104 7 z "},"ॆ":{"ha":0,"x_min":-569,"x_max":-61,"o":"m -569 1085 l -569 1085 l -569 1167 l -375 1167 l -375 1144 q -365 1106 -375 1114 q -326 1097 -356 1097 l -185 1097 q -61 975 -61 1097 l -61 832 l -256 832 l -256 914 q -265 953 -256 944 q -304 963 -275 963 l -446 963 q -569 1085 -569 963 z "},"ू":{"ha":0,"x_min":-399,"x_max":310,"o":"m -86 8 q 25 -6 -18 8 q 99 -51 68 -21 q 161 -131 131 -82 l 310 -371 l 82 -371 l -50 -162 q -76 -135 -61 -143 q -114 -126 -90 -126 l -161 -126 q -196 -134 -187 -126 q -204 -169 -204 -142 l -204 -193 q -196 -228 -204 -219 q -161 -236 -187 -236 l -92 -236 l -92 -372 l -237 -372 q -358 -336 -317 -372 q -399 -215 -399 -300 l -399 -149 q -358 -28 -399 -64 q -237 8 -317 8 l -86 8 z "},"ः":{"ha":318,"x_min":85,"x_max":233,"o":"m 85 244 l 233 244 l 233 82 l 85 82 l 85 244 m 85 679 l 233 679 l 233 518 l 85 518 l 85 679 z "},"´":{"ha":653,"x_min":163,"x_max":489,"o":"m 163 732 l 289 931 l 489 931 l 318 732 l 163 732 z "},"˘":{"ha":653,"x_min":81,"x_max":572,"o":"m 399 931 l 572 931 l 572 886 q 531 774 572 815 q 396 732 490 732 l 315 732 l 315 849 l 361 849 q 390 856 382 849 q 399 882 399 864 l 399 931 m 81 931 l 254 931 l 254 882 q 263 856 254 864 q 292 849 271 849 l 339 849 l 339 732 l 257 732 q 122 774 163 732 q 81 886 81 815 l 81 931 z "},"ˇ":{"ha":653,"x_min":68,"x_max":585,"o":"m 233 732 l 68 931 l 253 931 l 326 829 l 400 931 l 585 931 l 419 732 l 233 732 z "},"¸":{"ha":653,"x_min":174,"x_max":463,"o":"m 281 -150 l 281 -65 l 463 -65 l 463 -165 q 420 -281 463 -239 q 283 -322 378 -322 l 174 -322 l 174 -187 l 242 -187 q 272 -178 263 -187 q 281 -150 281 -168 z "},"ˆ":{"ha":653,"x_min":68,"x_max":585,"o":"m 68 732 l 233 931 l 419 931 l 585 732 l 400 732 l 326 835 l 253 732 l 68 732 z "},"¨":{"ha":653,"x_min":81,"x_max":572,"o":"m 81 753 l 81 914 l 265 914 l 265 753 l 81 753 m 388 753 l 388 914 l 572 914 l 572 753 l 388 753 z "},"˙":{"ha":653,"x_min":229,"x_max":425,"o":"m 229 750 l 229 913 l 425 913 l 425 750 l 229 750 z "},"`":{"ha":653,"x_min":143,"x_max":469,"o":"m 343 931 l 469 732 l 314 732 l 143 931 l 343 931 z "},"˝":{"ha":653,"x_min":63,"x_max":590,"o":"m 289 732 l 417 931 l 590 931 l 419 732 l 289 732 m 63 732 l 190 931 l 364 931 l 193 732 l 63 732 z "},"¯":{"ha":653,"x_min":88,"x_max":564,"o":"m 88 769 l 88 896 l 564 896 l 564 769 l 88 769 z "},"˛":{"ha":653,"x_min":188,"x_max":483,"o":"m 188 -161 q 219 -62 188 -99 q 333 -26 251 -26 l 458 -26 l 458 -143 l 363 -143 q 335 -150 343 -143 q 328 -174 328 -157 l 328 -208 q 335 -231 328 -225 q 363 -237 343 -237 l 483 -237 l 483 -354 l 333 -354 q 219 -319 251 -354 q 188 -219 188 -283 l 188 -161 m 458 -33 l 342 -33 l 342 19 l 458 19 l 458 -33 z "},"˚":{"ha":653,"x_min":146,"x_max":507,"o":"m 507 843 l 507 821 q 479 737 507 767 q 381 707 451 707 l 272 707 q 174 737 201 707 q 146 821 146 767 l 146 843 q 174 927 146 897 q 272 957 201 957 l 381 957 q 479 927 451 957 q 507 843 507 897 m 383 824 l 383 839 q 377 863 383 857 q 351 869 371 869 l 301 869 q 277 863 283 869 q 271 839 271 857 l 271 824 q 277 801 271 807 q 301 794 283 794 l 351 794 q 377 801 371 794 q 383 824 383 807 z "},"˜":{"ha":653,"x_min":83,"x_max":569,"o":"m 422 740 q 356 756 386 740 q 303 789 326 772 q 264 806 281 806 q 240 775 240 806 l 240 740 l 83 740 l 83 799 q 110 890 83 857 q 210 924 138 924 l 231 924 q 297 907 267 924 q 349 874 326 890 q 386 858 372 858 q 406 865 400 858 q 413 889 413 872 l 413 924 l 569 924 l 569 858 q 542 771 569 801 q 442 740 514 740 l 422 740 z "},"ʼ":{"ha":307,"x_min":51,"x_max":256,"o":"m 51 883 l 256 883 l 256 772 l 108 475 l 51 475 l 51 883 z "},"ˉ":{"ha":653,"x_min":88,"x_max":564,"o":"m 88 768 l 88 896 l 564 896 l 564 768 l 88 768 z "}}}
